<svg xmlns="http://www.w3.org/2000/svg" viewBox="0 0 150 150">
  <title>like</title>
  <g id="Слой_1" data-name="Слой 1">
    <rect width="150" height="150" style="fill: none"/>
  </g>
  <g id="Слой_2" data-name="Слой 2">
    <g>
      <rect x="23.44" y="90.5" width="30.66" height="54.13" style="fill: #d8e5ff"/>
      <path d="M57.83,109.43a2.23,2.23,0,0,0-1.55-.63,2.18,2.18,0,0,0-1.54,3.72,2.17,2.17,0,0,0,1.54.64,2.2,2.2,0,0,0,1.55-.64,2.18,2.18,0,0,0,0-3.09Zm0,0" transform="translate(0)" style="fill: #2478ff"/>
      <path d="M130.88,111.42a9.28,9.28,0,0,0-7.24-9A9.25,9.25,0,0,0,115.93,88H91.63l3.18-9.44a14.72,14.72,0,0,0-9.68-18.8L81.3,58.59a2.2,2.2,0,0,0-2.69,1.35l-6,16.64a20.51,20.51,0,0,1-9.49,11l-6,3.28A7.1,7.1,0,0,0,51.37,88H21.25a2.19,2.19,0,0,0-2.18,2.18v56.64A2.19,2.19,0,0,0,21.25,149H51.37a7.11,7.11,0,0,0,6.13-3.53l3.08,1.21A33.37,33.37,0,0,0,72.84,149H111a9.28,9.28,0,0,0,9.27-9.26,9.15,9.15,0,0,0-1.58-5.16,9.26,9.26,0,0,0,5.45-14.25,9.27,9.27,0,0,0,6.75-8.91Zm-9.27,4.89H99.15a2.19,2.19,0,0,0,0,4.37H116.5a4.9,4.9,0,0,1,0,9.79H99.15a2.19,2.19,0,0,0,0,4.37H111a4.9,4.9,0,1,1,0,9.79H72.84a29.25,29.25,0,0,1-10.67-2l-3.7-1.46V119.74a2.19,2.19,0,1,0-4.37,0V141.9a2.73,2.73,0,0,1-2.73,2.73H23.44V92.36H51.37A2.74,2.74,0,0,1,54.1,95.1v8.17c0,1.2,1,1.43,2.18,1.43a2.19,2.19,0,0,0,2.19-2.19V95.12l6.72-3.66A24.86,24.86,0,0,0,76.7,78.06L82,63.38l1.85.56a10.36,10.36,0,0,1,6.81,13.22L86.52,89.48a2.19,2.19,0,0,0,.3,2,2.16,2.16,0,0,0,1.77.91h27.34a4.9,4.9,0,0,1,0,9.8H99.15a2.18,2.18,0,0,0,0,4.36h22.46a4.9,4.9,0,1,1,0,9.79Zm0,0" transform="translate(0)" style="fill: #2478ff"/>
      <path d="M42.91,127.93A6.12,6.12,0,1,0,49,134.05a6.13,6.13,0,0,0-6.12-6.12Zm0,7.87a1.75,1.75,0,1,1,1.75-1.75,1.75,1.75,0,0,1-1.75,1.75Zm0,0" transform="translate(0)" style="fill: #2478ff"/>
      <path d="M85.87,37.83" transform="translate(0)" style="fill: #2478ff"/>
      <path d="M84.32,45.35" transform="translate(0)" style="fill: #2478ff"/>
      <path d="M104.57,47.79" transform="translate(0)" style="fill: #2478ff"/>
    </g>
    <path d="M81.29,21.59a7.24,7.24,0,0,1-1.76-4.17c-.2-1.88-3.13-2-3,0a10.55,10.55,0,0,0,1.54,5.06l1.69-2.21a5.34,5.34,0,0,1-2.53-1.55c-1.45-1.35-3.29.64-2.12,2.12l.61.78,1.46-2.5c-1.34-.28-2.21-.88-3.62-.52-1.7.45-3.58,2-5.09,2.85l2.2,1.7c.65-1.77,2.52-4.8,2-6.73S69.3,12.53,68,11.13l-1.06,2.56c1.92.18,4.59.49,6.29-.67,1.49-1,1.25-4.51,2.49-5l-1.82-.24c1.37,1.22,1,3.35,2.78,4.38,2,1.16,4.59.42,6.62,1.86l-.75-1.3a35.17,35.17,0,0,0-3.19,2.72,5.42,5.42,0,0,0-.7,4.05l2.74-1.16a4,4,0,0,1,0-4.47,1.52,1.52,0,0,0-1.3-2.26c-2.57,0-3.34,3.37-3.79,5.4h2.89a13.94,13.94,0,0,1-.9-3.38c-.16-1.25-2.13-2.31-2.8-.75a13.1,13.1,0,0,0-1,3.64l2.94-.4L76.31,10.4c-.3-1.49-2.52-1.37-2.89,0-.63,2.34.59,6.19-1.47,7.8l2.36.3c-1-1.92.12-7.77-3.91-6.42a1.54,1.54,0,0,0-1.1,1.44,2.29,2.29,0,0,0,1.09,2.18,5.45,5.45,0,0,0,1.18.54l1.82.68c.75.85,1.11.88,1.1.1-1.44,1.29.69,3.41,2.12,2.12A2.3,2.3,0,0,0,77,15.83c-.51-.71-4.65-2.67-4.65-2.31L71.2,15c-1.62.54,0,4,.52,5a1.52,1.52,0,0,0,2.35.3c3.07-2.4,1.38-5.89,2.24-9.12H73.42l1.13,5.65c.36,1.82,2.74,1.13,3-.39l.58-2.13-2.79-.76a17.63,17.63,0,0,0,1,4.17c.48,1.27,2.54,1.58,2.89,0a23.06,23.06,0,0,1,.9-3.19L78.8,12.3a6.78,6.78,0,0,0,0,7.49,1.51,1.51,0,0,0,2.74-1.15c-.41-2.72,6.43-4.26,3.26-7.26-1.08-1-3-1.17-4.37-1.53a4.81,4.81,0,0,1-3.3-2.46A6.69,6.69,0,0,0,76,5.61a1.56,1.56,0,0,0-1.81-.23,4.32,4.32,0,0,0-2.23,3c-.31,1.17,0,1.3-1.06,2s-2.71.42-4,.3-1.91,1.7-1.06,2.56,3.58,2.83,3.85,3.9-1.5,4.11-1.9,5.2c-.46,1.27,1.14,2.31,2.2,1.69,2.35-1.36,3.7-2.59,6.4-2a1.51,1.51,0,0,0,1.46-2.51l-.61-.78-2.12,2.12A10.39,10.39,0,0,0,79,23.17,1.52,1.52,0,0,0,80.66,21a5.69,5.69,0,0,1-1.13-3.54h-3a11,11,0,0,0,2.64,6.29c1.24,1.48,3.35-.65,2.12-2.12Z" transform="translate(0)" style="fill: #d8e5ff"/>
    <path d="M116.21,32.71a7.24,7.24,0,0,1-1.76-4.17c-.19-1.88-3.13-1.95-3,0A10.55,10.55,0,0,0,113,33.6l1.7-2.2a5.39,5.39,0,0,1-2.54-1.56c-1.45-1.35-3.28.64-2.12,2.13l.61.78,1.46-2.51c-1.34-.28-2.21-.88-3.61-.51-1.71.44-3.59,2-5.1,2.85l2.21,1.69c.64-1.77,2.51-4.8,2-6.72s-3.38-3.9-4.74-5.3l-1.06,2.57c1.92.17,4.6.48,6.29-.68,1.49-1,1.25-4.51,2.49-5.05l-1.81-.23c1.36,1.21,1,3.34,2.77,4.37,2,1.17,4.59.43,6.62,1.86l-.74-1.3a34.09,34.09,0,0,0-3.19,2.72,5.39,5.39,0,0,0-.71,4l2.75-1.16a4,4,0,0,1,0-4.47,1.51,1.51,0,0,0-1.3-2.25c-2.57,0-3.34,3.36-3.79,5.39h2.89a14.46,14.46,0,0,1-.9-3.37c-.16-1.26-2.13-2.32-2.79-.76a12.78,12.78,0,0,0-1,3.64l2.94-.4-1.13-5.66c-.29-1.48-2.52-1.37-2.89,0-.63,2.34.59,6.2-1.47,7.8l2.36.31c-1-1.93.12-7.77-3.91-6.43a1.56,1.56,0,0,0-1.1,1.45,2.31,2.31,0,0,0,1.09,2.17,5.84,5.84,0,0,0,1.19.55l1.82.67c.74.85,1.11.88,1.09.1-1.44,1.29.69,3.41,2.13,2.12a2.31,2.31,0,0,0,.34-3.31c-.52-.71-4.66-2.67-4.66-2.3l-1.1,1.44c-1.61.54,0,4,.52,5.05a1.51,1.51,0,0,0,2.35.3c3.07-2.39,1.38-5.89,2.24-9.12h-2.89L109.47,28c.36,1.81,2.75,1.12,3-.4l.59-2.13-2.8-.75a17.75,17.75,0,0,0,1,4.17c.48,1.26,2.54,1.57,2.89,0a23.67,23.67,0,0,1,.9-3.19l-1.29-2.26a6.77,6.77,0,0,0,0,7.5,1.51,1.51,0,0,0,2.74-1.16c-.42-2.72,6.42-4.26,3.25-7.26-1.08-1-3-1.17-4.37-1.53a4.8,4.8,0,0,1-3.3-2.46,6.82,6.82,0,0,0-1.11-1.78,1.59,1.59,0,0,0-1.82-.23,4.33,4.33,0,0,0-2.23,3c-.31,1.16,0,1.3-1.06,2s-2.71.41-4,.3-1.91,1.69-1.06,2.56,3.59,2.83,3.85,3.89-1.5,4.11-1.9,5.2c-.46,1.27,1.14,2.31,2.21,1.7,2.34-1.37,3.69-2.6,6.4-2a1.51,1.51,0,0,0,1.45-2.5l-.61-.79L110,32a10.44,10.44,0,0,0,3.86,2.32,1.51,1.51,0,0,0,1.69-2.2,5.74,5.74,0,0,1-1.13-3.55h-3a11,11,0,0,0,2.64,6.29c1.24,1.48,3.35-.65,2.12-2.12Z" transform="translate(0)" style="fill: #d8e5ff"/>
    <path d="M142,56.77a7.24,7.24,0,0,1-1.76-4.16c-.2-1.89-3.13-2-3,0a10.44,10.44,0,0,0,1.54,5l1.69-2.2a5.36,5.36,0,0,1-2.53-1.56c-1.45-1.35-3.29.64-2.12,2.13l.61.78,1.46-2.51c-1.34-.28-2.22-.88-3.62-.51-1.7.44-3.58,2-5.09,2.85l2.2,1.69c.65-1.77,2.52-4.8,2-6.72s-3.39-3.9-4.74-5.3l-1.06,2.57c1.92.17,4.59.48,6.29-.68,1.49-1,1.25-4.51,2.49-5.05l-1.82-.23c1.36,1.21,1,3.34,2.77,4.37,2,1.17,4.6.43,6.63,1.86l-.75-1.29A33.62,33.62,0,0,0,140,50.57a5.43,5.43,0,0,0-.7,4L142,53.46a4,4,0,0,1,0-4.47,1.51,1.51,0,0,0-1.3-2.25c-2.58,0-3.34,3.36-3.79,5.39h2.89a13.86,13.86,0,0,1-.9-3.37c-.17-1.26-2.13-2.32-2.8-.76a13.57,13.57,0,0,0-1,3.64l3-.4L137,45.58a1.51,1.51,0,0,0-2.89,0c-.63,2.34.59,6.2-1.47,7.8l2.36.31c-1-1.93.12-7.77-3.91-6.43a1.54,1.54,0,0,0-1.1,1.45,2.27,2.27,0,0,0,1.09,2.17,6,6,0,0,0,1.18.55l1.82.67c.75.85,1.11.88,1.1.1-1.44,1.29.69,3.41,2.12,2.12a2.3,2.3,0,0,0,.34-3.31c-.51-.71-4.65-2.67-4.65-2.3l-1.1,1.44c-1.62.54,0,4,.52,5.05a1.51,1.51,0,0,0,2.35.3c3.07-2.39,1.38-5.89,2.24-9.12H134.1L135.23,52c.36,1.81,2.74,1.12,2.94-.4l.59-2.13L136,48.76a17.75,17.75,0,0,0,1,4.17c.48,1.26,2.53,1.57,2.89,0a22.29,22.29,0,0,1,.9-3.19l-1.3-2.26a6.79,6.79,0,0,0,0,7.5,1.51,1.51,0,0,0,2.74-1.16c-.41-2.72,6.43-4.26,3.26-7.26-1.08-1-3-1.17-4.37-1.53a4.8,4.8,0,0,1-3.31-2.46,6.57,6.57,0,0,0-1.11-1.78,1.57,1.57,0,0,0-1.81-.23,4.31,4.31,0,0,0-2.23,3c-.31,1.16,0,1.3-1.06,2s-2.71.41-4,.3-1.91,1.69-1.07,2.56,3.59,2.83,3.86,3.89-1.5,4.11-1.9,5.2c-.47,1.27,1.14,2.31,2.2,1.7,2.35-1.37,3.7-2.6,6.4-2a1.51,1.51,0,0,0,1.46-2.5l-.61-.79L135.79,56a10.36,10.36,0,0,0,3.86,2.32,1.51,1.51,0,0,0,1.69-2.2,5.73,5.73,0,0,1-1.13-3.54h-3a10.86,10.86,0,0,0,2.64,6.28c1.24,1.48,3.35-.65,2.12-2.12Z" transform="translate(0)" style="fill: #d8e5ff"/>
    <path d="M46.56,33.83a7.32,7.32,0,0,1-1.77-4.16c-.19-1.89-3.12-2-3,0a10.55,10.55,0,0,0,1.55,5L45,32.52A5.42,5.42,0,0,1,42.5,31c-1.45-1.36-3.29.63-2.12,2.12l.61.78,1.46-2.51c-1.34-.28-2.22-.88-3.62-.51-1.7.44-3.58,2-5.09,2.85l2.2,1.69c.65-1.77,2.52-4.8,2-6.72s-3.39-3.9-4.75-5.29l-1.06,2.56c1.93.17,4.6.48,6.3-.68,1.49-1,1.25-4.51,2.49-5.05L39.12,20c1.36,1.21,1,3.34,2.77,4.37,2,1.17,4.6.43,6.62,1.86l-.74-1.29a33.62,33.62,0,0,0-3.19,2.71,5.43,5.43,0,0,0-.7,4.05l2.74-1.16a3.93,3.93,0,0,1,0-4.46,1.51,1.51,0,0,0-1.29-2.26c-2.58,0-3.34,3.36-3.8,5.39h2.9a13.86,13.86,0,0,1-.9-3.37c-.17-1.25-2.13-2.32-2.8-.76a13.21,13.21,0,0,0-1,3.64l3-.4-1.13-5.66a1.51,1.51,0,0,0-2.89,0c-.63,2.34.58,6.2-1.47,7.8l2.35.31c-1-1.93.13-7.77-3.9-6.43a1.54,1.54,0,0,0-1.1,1.45,2.27,2.27,0,0,0,1.09,2.17,6,6,0,0,0,1.18.55l1.82.67c.75.85,1.11.89,1.1.1-1.44,1.3.69,3.41,2.12,2.13a2.31,2.31,0,0,0,.34-3.32c-.51-.71-4.65-2.67-4.65-2.3l-1.1,1.44c-1.62.54,0,4,.51,5a1.53,1.53,0,0,0,2.36.31c3.07-2.4,1.37-5.9,2.24-9.13H38.69l1.13,5.66c.36,1.81,2.74,1.12,2.94-.4l.59-2.12-2.79-.76a18.12,18.12,0,0,0,1,4.17c.49,1.27,2.54,1.57,2.9,0a22.67,22.67,0,0,1,.9-3.19l-1.3-2.26A6.79,6.79,0,0,0,44,32a1.51,1.51,0,0,0,2.74-1.16c-.41-2.72,6.43-4.26,3.26-7.26-1.08-1-3-1.17-4.37-1.53a4.8,4.8,0,0,1-3.31-2.46,6.37,6.37,0,0,0-1.11-1.77,1.58,1.58,0,0,0-1.81-.24,4.33,4.33,0,0,0-2.23,3c-.31,1.16,0,1.3-1.06,2s-2.71.41-4,.3-1.9,1.69-1.06,2.56,3.59,2.83,3.86,3.9-1.5,4.11-1.9,5.19c-.47,1.27,1.14,2.32,2.2,1.7,2.35-1.36,3.7-2.6,6.4-2a1.51,1.51,0,0,0,1.46-2.5L42.5,31l-2.12,2.12a10.36,10.36,0,0,0,3.86,2.32,1.51,1.51,0,0,0,1.69-2.2,5.8,5.8,0,0,1-1.14-3.54h-3A10.94,10.94,0,0,0,44.44,36c1.24,1.49,3.35-.65,2.12-2.12Z" transform="translate(0)" style="fill: #d8e5ff"/>
    <path d="M21.07,56.77a7.24,7.24,0,0,1-1.76-4.16c-.19-1.89-3.12-2-3,0a10.54,10.54,0,0,0,1.54,5l1.7-2.2A5.39,5.39,0,0,1,17,53.9c-1.45-1.35-3.28.64-2.12,2.13l.61.78L17,54.3c-1.34-.28-2.21-.88-3.61-.51-1.71.44-3.59,2-5.1,2.85l2.21,1.69c.64-1.77,2.51-4.8,2-6.72s-3.38-3.9-4.74-5.3L6.67,48.88c1.92.17,4.6.48,6.29-.68,1.49-1,1.25-4.51,2.49-5.05l-1.81-.23c1.36,1.21,1,3.34,2.77,4.37,2,1.17,4.59.43,6.62,1.86l-.74-1.29a32.41,32.41,0,0,0-3.19,2.71,5.39,5.39,0,0,0-.71,4l2.75-1.16a4,4,0,0,1,0-4.47,1.51,1.51,0,0,0-1.3-2.25c-2.57,0-3.34,3.36-3.79,5.39H19a14.33,14.33,0,0,1-.9-3.37c-.16-1.26-2.13-2.32-2.79-.76a12.87,12.87,0,0,0-1,3.64l2.94-.4-1.13-5.66c-.29-1.48-2.52-1.37-2.89,0-.62,2.34.59,6.2-1.47,7.8l2.36.31c-1-1.93.12-7.77-3.91-6.43a1.56,1.56,0,0,0-1.1,1.45,2.31,2.31,0,0,0,1.09,2.17,5.84,5.84,0,0,0,1.19.55l1.82.67c.74.85,1.11.88,1.1.1-1.45,1.29.68,3.41,2.12,2.12A2.31,2.31,0,0,0,16.74,51c-.52-.71-4.66-2.67-4.66-2.3L11,50.15c-1.61.54,0,4,.52,5.05a1.51,1.51,0,0,0,2.35.3c3.07-2.39,1.38-5.89,2.24-9.12H13.2L14.33,52c.36,1.81,2.75,1.12,3-.4l.59-2.13-2.8-.75a17.75,17.75,0,0,0,1,4.17c.48,1.26,2.54,1.57,2.89,0a23.67,23.67,0,0,1,.9-3.19l-1.29-2.26a6.77,6.77,0,0,0,0,7.5,1.51,1.51,0,0,0,2.74-1.16c-.42-2.72,6.42-4.26,3.25-7.26-1.08-1-3-1.17-4.37-1.53a4.8,4.8,0,0,1-3.3-2.46,6.82,6.82,0,0,0-1.11-1.78,1.59,1.59,0,0,0-1.82-.23,4.33,4.33,0,0,0-2.23,3c-.31,1.16,0,1.3-1.06,2s-2.71.41-4,.3-1.91,1.69-1.06,2.56,3.59,2.83,3.85,3.89-1.5,4.11-1.9,5.2c-.46,1.27,1.14,2.31,2.21,1.7,2.35-1.37,3.69-2.6,6.4-2a1.51,1.51,0,0,0,1.45-2.5L17,53.9,14.89,56a10.44,10.44,0,0,0,3.86,2.32,1.51,1.51,0,0,0,1.69-2.2,5.73,5.73,0,0,1-1.13-3.54h-3A11,11,0,0,0,19,58.89c1.24,1.48,3.35-.65,2.12-2.12Z" transform="translate(0)" style="fill: #d8e5ff"/>
    <path d="M24.61,59l-.95-5.56,4-4A3.07,3.07,0,0,0,26,44.24l-5.59-.81-2.5-5.06a3.07,3.07,0,0,0-2.76-1.72h0a3,3,0,0,0-2.75,1.72L9.9,43.43l-5.59.82a3.07,3.07,0,0,0-1.7,5.24l4,3.94L5.7,59a3.07,3.07,0,0,0,3,3.59,3.22,3.22,0,0,0,1.44-.35l5-2.63,5,2.62A3.07,3.07,0,0,0,24.61,59Zm-3.72-8A3.09,3.09,0,0,0,20,53.74l.81,4.72-4.23-2.23a3.08,3.08,0,0,0-2.86,0L9.49,58.46l.81-4.71A3.08,3.08,0,0,0,9.42,51L6,47.69,10.72,47A3.07,3.07,0,0,0,13,45.32L15.15,41l2.12,4.29A3.07,3.07,0,0,0,19.58,47l4.74.69Z" transform="translate(0)" style="fill: #2478ff"/>
    <path d="M49.73,35.52l-1-5.56,4-3.95a3.08,3.08,0,0,0-1.71-5.24L45.52,20,43,14.9a3,3,0,0,0-2.75-1.71h0a3,3,0,0,0-2.75,1.71L35,20l-5.59.81A3.07,3.07,0,0,0,27.72,26L31.77,30l-1,5.57a3,3,0,0,0,1.23,3,3,3,0,0,0,1.8.59,3,3,0,0,0,1.43-.35l5-2.63,5,2.62a3.07,3.07,0,0,0,4.46-3.24Zm-3.72-8a3.06,3.06,0,0,0-.89,2.72L45.93,35,41.7,32.76a3,3,0,0,0-2.86,0L34.61,35l.81-4.71a3.06,3.06,0,0,0-.89-2.72l-3.42-3.34,4.73-.69a3.05,3.05,0,0,0,2.31-1.68l2.12-4.29,2.11,4.29a3.07,3.07,0,0,0,2.32,1.68l4.73.69Z" transform="translate(0)" style="fill: #2478ff"/>
    <path d="M84.49,23.63l-.95-5.57,4-3.94a3.07,3.07,0,0,0-1.7-5.24l-5.59-.81L77.78,3A3,3,0,0,0,75,1.29h0A3.08,3.08,0,0,0,72.27,3L69.78,8.07l-5.59.81a3.08,3.08,0,0,0-1.71,5.24l4.05,4-1,5.56a3.08,3.08,0,0,0,3,3.6A3.1,3.1,0,0,0,70,26.87l5-2.63,5,2.63a3.07,3.07,0,0,0,4.45-3.24Zm-3.72-8a3.09,3.09,0,0,0-.88,2.72l.81,4.71-4.24-2.22a3.08,3.08,0,0,0-2.86,0L69.37,23.1l.81-4.72a3.09,3.09,0,0,0-.88-2.72l-3.43-3.33,4.73-.69A3.08,3.08,0,0,0,72.91,10L75,5.67,77.15,10a3.05,3.05,0,0,0,2.31,1.68l4.73.69Z" transform="translate(0)" style="fill: #2478ff"/>
    <path d="M119.38,34.9l-.95-5.56,4-3.95a3.07,3.07,0,0,0-1.7-5.24l-5.59-.81-2.51-5.06a3,3,0,0,0-2.75-1.72h0a3.06,3.06,0,0,0-2.76,1.72l-2.49,5.06-5.59.82a3.08,3.08,0,0,0-1.71,5.24l4,3.94-1,5.57a3.07,3.07,0,0,0,3,3.59,3.22,3.22,0,0,0,1.44-.35l5-2.63,5,2.62a3.07,3.07,0,0,0,4.45-3.24Zm-3.72-8a3.09,3.09,0,0,0-.88,2.72l.81,4.72-4.24-2.23a3.08,3.08,0,0,0-2.86,0l-4.23,2.23.81-4.71a3.06,3.06,0,0,0-.89-2.72l-3.42-3.34,4.73-.69a3,3,0,0,0,2.31-1.68l2.12-4.29L112,21.23a3.06,3.06,0,0,0,2.31,1.68l4.73.69Z" transform="translate(0)" style="fill: #2478ff"/>
    <path d="M145.14,58.87l-1-5.57,4-3.94a3.08,3.08,0,0,0-1.71-5.24l-5.59-.81-2.5-5.07a3.06,3.06,0,0,0-2.75-1.71h0a3.07,3.07,0,0,0-2.76,1.71l-2.5,5.07-5.59.81a3.07,3.07,0,0,0-1.7,5.24l4.05,4-1,5.56a3.09,3.09,0,0,0,3,3.6,3,3,0,0,0,1.43-.36l5-2.63,5,2.63a3.08,3.08,0,0,0,4.46-3.24Zm-3.72-8a3.06,3.06,0,0,0-.89,2.72l.81,4.71-4.23-2.22a3.08,3.08,0,0,0-2.86,0L130,58.34l.81-4.72a3.07,3.07,0,0,0-.89-2.72l-3.42-3.33,4.73-.69a3.1,3.1,0,0,0,2.31-1.68l2.12-4.29,2.11,4.28a3.1,3.1,0,0,0,2.32,1.69l4.73.68Z" transform="translate(0)" style="fill: #2478ff"/>
  </g>
</svg>
