<svg id="Слой_1" data-name="Слой 1" xmlns="http://www.w3.org/2000/svg" xmlns:xlink="http://www.w3.org/1999/xlink" viewBox="0 0 113.73 150">
  <defs>
    <clipPath id="clip-path" transform="translate(-18.71 0)">
      <rect x="18.54" width="114.06" height="150" style="fill: none"/>
    </clipPath>
  </defs>
  <title>medal</title>
  <path d="M94.9,48.05c-3.43-.28-7.7.83-10.8-1.1S80.85,40.53,78,38.26a2.27,2.27,0,0,0-1.16-.52l-.51-1.46a2,2,0,0,0-3.57-.47,39.45,39.45,0,0,0-4.17,11.53A2.22,2.22,0,0,0,69,49a27.14,27.14,0,0,0-9.76.89,1.78,1.78,0,0,0-.84.54,25.75,25.75,0,0,1-2.66-.65c-2.41-.72-3.44,3-1,3.77l.82.23A1.73,1.73,0,0,0,56.38,55a21.76,21.76,0,0,0,2,1A1.62,1.62,0,0,0,59,57.33a16.15,16.15,0,0,0,2.62,1.85,2.32,2.32,0,0,0,.52,1.67,8.47,8.47,0,0,0,3,2.3,15.39,15.39,0,0,0-4.34,9.06,1.53,1.53,0,0,0,.38,1.2q-.4.36-.84.69c-1.47,1.12-1.11,3.6,1,3.64a12.1,12.1,0,0,0,7.25-2.36,4.83,4.83,0,0,0,1.32-1c1.23-1,2.39-2.06,3.57-3.13a2.35,2.35,0,0,0,.62.16c.64.07,1.28.11,1.91.12a11,11,0,0,0,8.3,4.83,1.67,1.67,0,0,0,1.35-.45c.38.66.79,1.31,1.23,1.93a2,2,0,0,0,3.57-1.51A51.33,51.33,0,0,1,89.2,66.08c0-.72-.07-1.66,0-2.64.81-1.81,1.63-3.61,2.44-5.41l1.86-.84c1.74-.79,4.23-1.43,5.56-2.86C101.82,51.29,97.83,48.29,94.9,48.05ZM85.58,60.79a2.18,2.18,0,0,0-.71-.22.86.86,0,0,1,.14-.18,2.67,2.67,0,0,0,.63.1Z" transform="translate(-18.71 0)" style="fill: #d8e5ff"/>
  <ellipse cx="56.28" cy="56.84" rx="45.51" ry="44.34" style="fill: none;stroke: #d8e5ff;stroke-miterlimit: 10;stroke-width: 9px"/>
  <path d="M127.94,53.43a61.13,61.13,0,0,1-2.81-9.27c-1-5.71-1.73-10.87-6.86-14.34-1.27-.85-2.85-1.61-3.56-3-.78-1.58-.64-3.46-1.46-5.07-1.27-2.5-3.78-3.9-6.21-5.07a18.66,18.66,0,0,1-6.72-4.89c-1.84-2.16-4-4.48-7.12-4.08A2.24,2.24,0,0,0,91.42,9.1,17.07,17.07,0,0,1,86.7,7.51c-2.78-1.26-5.56-2.78-8.6-3.29C74.63,3.64,72,4.82,69,6.43a17.23,17.23,0,0,1-8.88,2.05,1.47,1.47,0,0,0-1.67-.9L56,7.9A2.24,2.24,0,0,0,54,10.15a139.56,139.56,0,0,1-15.74,9c-2.26,1.1-.28,4.47,2,3.38A139.8,139.8,0,0,0,58,12.21,20.74,20.74,0,0,0,68.14,11.1c3.61-1.37,6.26-3.9,10.32-2.81,5.76,1.56,11.15,6.37,17.23,4.14a22.22,22.22,0,0,1,2.39,2.7,16.57,16.57,0,0,0,5.15,4c1.91,1,4.21,1.72,5.73,3.28,1.81,1.85,1.27,4.76,2.68,6.88s3.49,3,5.35,4.4c2,1.53,2.89,3.75,3.44,6.15s.78,5.1,1.37,7.61c.68,2.86,2,5.51,2.78,8.34,1.59,5.62-.82,12-2.73,17.3a27.29,27.29,0,0,1-3.66,7.17c-1.63,2.16-4,3.55-5.66,5.64A8.53,8.53,0,0,0,111,88.73a8.62,8.62,0,0,1-.55,2.11c-.42.65-1.33.84-2,1.11a23.83,23.83,0,0,0-5.77,3.51c-3.44,2.7-6.93,6.72-11.54,7.2-2.85.3-5.68-.63-8.53-.46a9.29,9.29,0,0,0-3.86,1,17.28,17.28,0,0,0-3,2.62c-1.29,1.14-2.92.83-4.49.57l-5.48-.89-5.12-.84a9.12,9.12,0,0,1-2.18-.52c-.27-.12-1.22-.84-1.31-.65,1-2.28-2.36-4.27-3.37-2-2.89,6.57,7.87,7.24,11.67,7.86,3,.5,6.58,1.61,9.67,1s4.28-4.05,7.45-4.29c2.94-.23,5.84.73,8.79.43a15.33,15.33,0,0,0,7-2.71c2.19-1.48,4.14-3.28,6.18-4.94a35.9,35.9,0,0,1,7-4c3-1.55,2.31-4.87,4.44-7s4.35-3.81,6-6.34c3.47-5.16,5.46-12,6.58-18.09A19.34,19.34,0,0,0,127.94,53.43Z" transform="translate(-18.71 0)" style="fill: #d8e5ff"/>
  <path d="M41.77,92.49a6.21,6.21,0,0,1-2.9-5.38c0-2.51-3.89-2.52-3.91,0a10.21,10.21,0,0,0,4.84,8.75C41.94,97.21,43.9,93.83,41.77,92.49Z" transform="translate(-18.71 0)" style="fill: #d8e5ff"/>
  <path d="M31.91,39.52c1.62-1.91-1.13-4.68-2.76-2.76-2.22,2.6-2.62,5.66-3.22,8.91a15.62,15.62,0,0,1-1.71,4.87,14.91,14.91,0,0,0-2.09,5c-.6,3.78,1.58,6.91,2.69,10.35,1.31,4.07.89,8.43.52,12.62C25.12,81,29,81,29.25,78.48a42.37,42.37,0,0,0-.07-11.25c-.61-3.4-2.91-6.41-3.23-9.83-.31-3.16,2.58-6,3.37-9S29.87,41.92,31.91,39.52Z" transform="translate(-18.71 0)" style="fill: #d8e5ff"/>
  <g>
    <path d="M94.72,18.69A42.71,42.71,0,0,0,41.73,83a2.36,2.36,0,0,0,3.73-2.9,38,38,0,0,1,47.13-57.2,2.36,2.36,0,1,0,2.13-4.22Zm0,0" transform="translate(-18.71 0)" style="fill: #2478ff"/>
    <path d="M113.6,37.57a2.36,2.36,0,1,0-4.22,2.13,38,38,0,0,1-57.2,47.13,2.37,2.37,0,1,0-2.91,3.73,42.72,42.72,0,0,0,64.33-53Zm0,0" transform="translate(-18.71 0)" style="fill: #2478ff"/>
    <g style="clip-path: url(#clip-path)">
      <path d="M107.49,28.57c-.58-.67-1.2-1.32-1.83-1.95s-1.28-1.24-1.94-1.83a2.37,2.37,0,1,0-3.13,3.55c.59.52,1.17,1.07,1.73,1.63s1.11,1.14,1.63,1.73a2.36,2.36,0,0,0,3.54-3.13Zm0,0" transform="translate(-18.71 0)" style="fill: #2478ff"/>
      <path d="M131.26,61.06a8,8,0,0,0,0-8.39l-3.11-5.1a3.33,3.33,0,0,1-.45-2.24l.93-5.89a8,8,0,0,0-3.22-7.77l-4.82-3.5a3.27,3.27,0,0,1-1.27-1.91l-1.41-5.8A8,8,0,0,0,112,14.53l-5.8-1.4a3.34,3.34,0,0,1-1.9-1.28L100.77,7A8,8,0,0,0,93,3.81l-5.89.93a3.33,3.33,0,0,1-2.24-.45l-5.1-3.11a8.06,8.06,0,0,0-8.39,0l-5.1,3.11A3.33,3.33,0,0,1,64,4.74l-5.89-.93A8,8,0,0,0,50.38,7l-3.5,4.82A3.34,3.34,0,0,1,45,13.12l-5.8,1.41a8,8,0,0,0-5.93,5.93l-1.41,5.8a3.3,3.3,0,0,1-1.27,1.91l-4.82,3.5a8,8,0,0,0-3.22,7.76l.93,5.9A3.33,3.33,0,0,1,23,47.57l-3.11,5.1a8,8,0,0,0,0,8.39L23,66.16a3.34,3.34,0,0,1,.45,2.25l-.93,5.88a8,8,0,0,0,3.22,7.77l4.82,3.5a3.34,3.34,0,0,1,1.27,1.91l1.41,5.8a8,8,0,0,0,5.93,5.93l2.42.59L25.2,136.36a2.36,2.36,0,0,0,2.43,3.31l13.19-1.58,7.6,10.9a2.39,2.39,0,0,0,1.94,1h.22a2.37,2.37,0,0,0,1.94-1.39l16.74-37.35,2.12,1.3a8,8,0,0,0,8.39,0L82,111.21,98.73,148.6a2.35,2.35,0,0,0,1.93,1.39h.22a2.38,2.38,0,0,0,1.94-1l7.6-10.9,13.19,1.58a2.36,2.36,0,0,0,2.44-3.31l-16.4-36.59,2.33-.56a8,8,0,0,0,5.93-5.94l1.4-5.8a3.34,3.34,0,0,1,1.28-1.9l4.82-3.51a8,8,0,0,0,3.22-7.76l-.93-5.89a3.34,3.34,0,0,1,.45-2.25Zm-81.35,81.8-6-8.64a2.38,2.38,0,0,0-2.22-1l-10.45,1.25,14.93-33.32a3.08,3.08,0,0,1,.72.72l3.51,4.82A8.33,8.33,0,0,0,51.5,108l-7.86,17.53a2.36,2.36,0,0,0,1.19,3.13,2.33,2.33,0,0,0,1,.2A2.37,2.37,0,0,0,48,127.42l7.83-17.48a8.12,8.12,0,0,0,2.36,0L64,109a3.42,3.42,0,0,1,1.06,0ZM120,134.48l-10.46-1.25a2.39,2.39,0,0,0-2.22,1l-6,8.64L86.15,109a3.09,3.09,0,0,1,1,0l5.89.93a8.12,8.12,0,0,0,2.46,0l7.84,17.49a2.36,2.36,0,0,0,2.16,1.39,2.33,2.33,0,0,0,1-.2,2.38,2.38,0,0,0,1.19-3.13l-7.89-17.6a8,8,0,0,0,1-1.18l3.5-4.82a3.25,3.25,0,0,1,.8-.77Zm7.19-75.88-3.11,5.1A8.1,8.1,0,0,0,123,69.14L124,75a3.34,3.34,0,0,1-1.33,3.21l-4.82,3.5a8.06,8.06,0,0,0-3.09,4.62l-1.4,5.8a3.34,3.34,0,0,1-2.45,2.45l-5.8,1.4a8.06,8.06,0,0,0-4.62,3.09l-3.51,4.82a3.28,3.28,0,0,1-3.2,1.33l-5.89-.93a8.12,8.12,0,0,0-5.45,1.08l-5.09,3.11a3.33,3.33,0,0,1-3.47,0l-5.1-3.11a8.06,8.06,0,0,0-4.19-1.18,8.66,8.66,0,0,0-1.25.1l-5.89.93a3.32,3.32,0,0,1-3.21-1.33L50.7,99.1A8.06,8.06,0,0,0,46.08,96l-5.8-1.4a3.34,3.34,0,0,1-2.45-2.45l-1.4-5.8a8.06,8.06,0,0,0-3.09-4.62l-4.82-3.51A3.29,3.29,0,0,1,27.19,75l.93-5.89A8.1,8.1,0,0,0,27,63.7l-3.11-5.1a3.33,3.33,0,0,1,0-3.47L27,50a8.13,8.13,0,0,0,1.08-5.45l-.93-5.89a3.32,3.32,0,0,1,1.33-3.21L33.34,32a8.06,8.06,0,0,0,3.09-4.62l1.4-5.8a3.35,3.35,0,0,1,2.45-2.45l5.8-1.4a8.06,8.06,0,0,0,4.62-3.09l3.51-4.82a3.31,3.31,0,0,1,3.2-1.33l5.89.93a8.13,8.13,0,0,0,5.45-1.08l5.09-3.11a3.33,3.33,0,0,1,3.47,0L82.4,8.33a8.13,8.13,0,0,0,5.45,1.08l5.89-.93a3.31,3.31,0,0,1,3.2,1.33l3.51,4.82a8.06,8.06,0,0,0,4.62,3.09l5.8,1.4a3.34,3.34,0,0,1,2.45,2.45l1.4,5.8A8.06,8.06,0,0,0,117.81,32l4.82,3.51A3.3,3.3,0,0,1,124,38.7L123,44.59A8.12,8.12,0,0,0,124.11,50l3.11,5.09a3.33,3.33,0,0,1,0,3.47Zm0,0" transform="translate(-18.71 0)" style="fill: #2478ff"/>
    </g>
    <path d="M103.24,49.51a4.25,4.25,0,0,0-3.56-2.92L85.45,44.9l-6-13a4.26,4.26,0,0,0-7.75,0l-6,13L51.47,46.59A4.27,4.27,0,0,0,49.07,54l10.52,9.72-2.79,14A4.22,4.22,0,0,0,58.48,82a4.27,4.27,0,0,0,2.5.82,4.21,4.21,0,0,0,2.09-.55l12.5-7,12.5,7a4.27,4.27,0,0,0,6.28-4.56l-2.79-14L102.07,54a4.24,4.24,0,0,0,1.17-4.46ZM87.38,61.12a2.35,2.35,0,0,0-.72,2.19l2.86,14.38L76.73,70.53a2.37,2.37,0,0,0-2.31,0L61.63,77.69l2.85-14.38a2.34,2.34,0,0,0-.71-2.19L53,51.17l14.56-1.73a2.36,2.36,0,0,0,1.86-1.36l6.14-13.31,6.14,13.31a2.37,2.37,0,0,0,1.87,1.36l14.56,1.73Zm0,0" transform="translate(-18.71 0)" style="fill: #2478ff"/>
  </g>
</svg>
