<svg xmlns="http://www.w3.org/2000/svg" xmlns:xlink="http://www.w3.org/1999/xlink" viewBox="0 0 360 360">
  <defs>
    <clipPath id="clip-path" transform="translate(-59 -140)">
      <rect x="59" y="140" width="360" height="360" style="fill: none"/>
    </clipPath>
  </defs>
  <title>pricing</title>
  <g id="Слой_2" data-name="Слой 2">
    <circle cx="179" cy="198" r="96" style="fill: #d8e5ff"/>
    <path d="M398.39,254.88c-3.38-5.58-11.86-8.84-17.2-12.09q-42.82-26.11-86.67-50.51Q269.4,178.32,244,165a4.79,4.79,0,0,0-5.08.23,9.74,9.74,0,0,0-1.91-.64c-6.34-1.34-12.18,3.21-17.14,7.1-8,3.22-15.43,7.84-22.88,12l-37.06,20.87-36.2,20.39c-11.34,6.38-22.84,12.58-32.42,21.51a4,4,0,0,0-.57.67,32.74,32.74,0,0,0-10.13,7.44c-2.57,2.78-1.18,6.38,1.28,7.9-.44.61-.88,1.22-1.3,1.85-3,4.36,2.7,9.05,6.84,6.84q47.15-25.24,93.29-52.28,23.07-13.53,45.86-27.51c4.23-2.59,9.44-5.08,13.19-8.73l.43.26a4.76,4.76,0,0,0,2.24,4.93l43.28,27.8c9.6,6.16,21.26,14.7,32.9,11.83l.93.54a231.91,231.91,0,0,0,55.87,34.5,25,25,0,0,0,3.81,4.16c4.45,3.61,10.31,4.79,15.4,1.7C399.2,265.54,401.29,259.68,398.39,254.88Z" transform="translate(-59 -140)" style="fill: #d8e5ff"/>
    <path d="M409.75,472.05c-1.14-1.66-3.52-3.16-5.64-2.3a102.89,102.89,0,0,1-11.26,3.81l-.81-.05c-14.92-.6-30.08.35-45.06.82l-7-.14q-32.35-.62-64.73-1-64.74-.72-129.49-.44-36.85.17-73.7.65a4.75,4.75,0,0,0-.94.1c-3.66-1.31-8,1.6-8.73,5.47-1.18,5.95,4.52,8.78,9.46,9.23,15.48,1.43,31.29,1.26,46.83,1.47,31.86.44,63.72-.08,95.57-.46,31.49-.37,63-.62,94.48.32,15.71.47,31.42,1.23,47.09,2.43q10.77.81,21.53,1.92,5.87.6,11.73,1.3c3.42.41,7,1.16,10.45.33A10,10,0,0,0,407,483q.32-.21.63-.45C410.92,479.94,412.3,475.72,409.75,472.05Zm-15.5,13.77c-1.67-.11-3.35-.32-5-.55l5.49.13c.78,0,1.55,0,2.32,0A4.55,4.55,0,0,1,394.25,485.82Z" transform="translate(-59 -140)" style="fill: #d8e5ff"/>
    <path d="M380.09,155.91c.89-8.83-17.82-8.77-23.11-8.41-13,.88-26,2.88-38.93,4.36-5.25.61-6.18,7.63-2.67,9.55a4.22,4.22,0,0,0,1.46,3c3.59,3.09,7.52,3.65,12.14,3.19,4.1-.41,8.2-.92,12.3-1.43q17.4-.26,34.73-2.13C380.38,163.61,381.76,158.68,380.09,155.91Z" transform="translate(-59 -140)" style="fill: #d8e5ff"/>
  </g>
  <g id="Слой_1" data-name="Слой 1">
    <g>
      <path d="M341,338A102,102,0,1,0,239,440,102,102,0,0,0,341,338ZM239,428a90,90,0,1,1,90-90,90,90,0,0,1-90,90Zm0,0" transform="translate(-59 -140)" style="fill: #2478ff"/>
      <g style="clip-path: url(#clip-path)">
        <path d="M239,254a84,84,0,1,0,84,84,84,84,0,0,0-84-84Zm0,156a72,72,0,1,1,72-72,72,72,0,0,1-72,72Zm0,0" transform="translate(-59 -140)" style="fill: #2478ff"/>
        <path d="M401,464H377V274.62l4,2.29a18,18,0,0,0,25-7.57l1.25-2.5a18,18,0,0,0-7.16-23.68L377,230v-55a18,18,0,0,0-6-34.9H323a18,18,0,0,0-6.09,34.87v20.74l-69-39.41a18.06,18.06,0,0,0-17.86,0l-152.19,87a18,18,0,0,0-7.17,23.68l1.25,2.5a18,18,0,0,0,25,7.57l4-2.29V464H77a18,18,0,0,0,0,36H401a18,18,0,0,0,0-36ZM323,152h48a6,6,0,0,1,0,12H323a6,6,0,0,1,0-12Zm5.91,24H365v47.09l-36.09-20.62ZM91,266.5a6,6,0,0,1-4.71.53A6,6,0,0,1,82.69,264l-1.24-2.5a6,6,0,0,1,2.4-7.89l152.15-87a6,6,0,0,1,5.95,0l152.19,87a6,6,0,0,1,2.4,7.89l-1.25,2.5a6,6,0,0,1-8.34,2.53l-139-79.48a18.06,18.06,0,0,0-17.86,0Zm22,1.3,123-70.33a6,6,0,0,1,5.95,0L365,267.77V464H113ZM401,488H77a6,6,0,0,1,0-12H401a6,6,0,0,1,0,12Zm0,0" transform="translate(-59 -140)" style="fill: #2478ff"/>
      </g>
      <path d="M239,308a12,12,0,0,1,12,12h12a24,24,0,0,0-18-23.15V284H233v12.85A24,24,0,0,0,239,344a12,12,0,1,1-12,12H215a24,24,0,0,0,18,23.15V392h12V379.15A24,24,0,0,0,239,332a12,12,0,0,1,0-24Zm0,0" transform="translate(-59 -140)" style="fill: #2478ff"/>
      <rect x="66" y="300" width="24" height="12" style="fill: #2478ff"/>
      <rect x="270" y="300" width="24" height="12" style="fill: #2478ff"/>
      <rect x="102" y="300" width="12" height="12" style="fill: #2478ff"/>
      <rect x="246" y="300" width="12" height="12" style="fill: #2478ff"/>
    </g>
  </g>
</svg>
