<?xml version="1.0" encoding="utf-8"?>
<!-- Generator: Adobe Illustrator 22.1.0, SVG Export Plug-In . SVG Version: 6.00 Build 0)  -->
<svg version="1.1" id="Layer_1" xmlns="http://www.w3.org/2000/svg" xmlns:xlink="http://www.w3.org/1999/xlink" x="0px" y="0px"
	 viewBox="0 0 452.7 192.6" style="enable-background:new 0 0 452.7 192.6;" xml:space="preserve">
<style type="text/css">
	.st0{fill:#004A98;}
	.st1{fill:#D7282F;}
	.st2{display:none;}
	.st3{display:inline;fill:#D7282F;}
	.st4{display:inline;fill:#004A98;}
	.st5{fill:#FEDCA6;}
	.st6{fill:none;}
	.st7{fill:none;stroke:#000000;stroke-width:0;stroke-linecap:round;stroke-linejoin:round;}
	.st8{fill:#FFFFFF;}
	.st9{fill:#000F9F;}
	.st10{fill:#C8C8C8;}
</style>
<g>
	<g>
		<path class="st0" d="M40.3,126.9c0,0,5.5-1.4,15.1-3.8c2.4-0.6,5.1-1.3,8-2c2.9-0.6,6.1-1.3,9.5-2.1c3.4-0.7,7-1.5,10.8-2.3
			c3.8-0.8,7.8-1.5,12-2.3c4.2-0.8,8.5-1.6,13.1-2.4c4.5-0.7,9.2-1.4,14-2.2c2.4-0.4,4.9-0.7,7.3-1.1c2.5-0.3,5-0.6,7.5-0.9
			c5.1-0.6,10.3-1.3,15.6-1.9c10.6-1,21.5-2.2,32.7-2.8c11.1-0.9,22.5-1.2,33.8-1.7c11.4-0.1,22.7-0.4,33.9-0.2
			c11.2,0,22.2,0.6,32.8,1c5.3,0.3,10.5,0.6,15.7,1c2.6,0.2,5.1,0.3,7.6,0.5c2.5,0.2,5,0.4,7.4,0.6c4.9,0.4,9.6,0.8,14.2,1.2
			c4.6,0.4,9,1,13.2,1.4c4.2,0.5,8.3,0.9,12.2,1.4c3.9,0.5,7.5,1,10.9,1.5c3.4,0.5,6.6,0.9,9.6,1.3c3,0.5,5.7,0.9,8.1,1.2
			c9.8,1.5,15.5,2.4,15.5,2.4l-1.3,7.2c0,0-5.6-1-15.3-2.7c-2.4-0.4-5.1-0.9-8.1-1.4c-2.9-0.5-6.1-0.9-9.5-1.5
			c-3.4-0.5-7-1.1-10.8-1.7c-3.8-0.6-7.9-1-12.1-1.6c-4.2-0.5-8.6-1.1-13.1-1.7c-4.5-0.5-9.2-1-14.1-1.5c-2.4-0.3-4.9-0.5-7.3-0.8
			c-2.5-0.2-5-0.4-7.5-0.6c-5.1-0.4-10.3-0.8-15.6-1.3c-10.6-0.6-21.5-1.4-32.6-1.6c-11.1-0.5-22.4-0.4-33.7-0.5
			c-11.3,0.3-22.6,0.3-33.7,1c-11.1,0.4-22.1,1.4-32.6,2.2c-5.3,0.5-10.5,1.1-15.5,1.6c-2.5,0.3-5.1,0.5-7.5,0.8
			c-2.5,0.3-4.9,0.7-7.3,1c-4.8,0.6-9.5,1.3-14,1.9c-4.5,0.7-8.9,1.4-13.1,2.1c-4.2,0.7-8.2,1.3-12,2c-3.8,0.7-7.4,1.4-10.8,2.1
			c-3.4,0.7-6.6,1.3-9.5,1.9c-2.9,0.6-5.6,1.3-8,1.8C45.8,125.6,40.3,126.9,40.3,126.9z"/>
		<path class="st1" d="M54.5,134.6c0,0,4.2-1.1,11.6-3.1c1.8-0.5,3.9-1,6.1-1.6c2.2-0.5,4.7-1.1,7.2-1.7c2.6-0.6,5.3-1.3,8.2-2
			c2.9-0.7,6-1.3,9.2-1.9c3.2-0.7,6.5-1.4,10-2.1c3.5-0.6,7.1-1.3,10.8-2c1.8-0.3,3.7-0.7,5.6-1c1.9-0.3,3.8-0.6,5.8-0.9
			c3.9-0.6,7.9-1.3,11.9-1.8c8.1-1.1,16.5-2.3,25.1-3.1c8.5-1,17.3-1.6,26-2.3c8.7-0.5,17.5-1.1,26.1-1.3c8.6-0.4,17.1-0.4,25.3-0.5
			c4.1,0,8.1,0.1,12.1,0.1c2,0,3.9,0,5.9,0.1c1.9,0.1,3.8,0.1,5.7,0.2c3.8,0.1,7.4,0.2,11,0.3c3.5,0.1,6.9,0.3,10.2,0.5
			c3.3,0.2,6.4,0.3,9.4,0.5c3,0.2,5.8,0.4,8.5,0.6c2.7,0.2,5.2,0.4,7.5,0.5c2.3,0.2,4.4,0.4,6.3,0.6c7.6,0.7,12,1.1,12,1.1l-0.8,7.2
			c0,0-4.3-0.5-11.9-1.4c-1.9-0.2-4-0.5-6.3-0.7c-2.3-0.2-4.7-0.5-7.4-0.7c-2.6-0.3-5.4-0.5-8.4-0.8c-3-0.3-6.1-0.5-9.3-0.7
			c-3.2-0.2-6.6-0.5-10.1-0.8c-3.5-0.2-7.1-0.4-10.9-0.6c-1.9-0.1-3.8-0.2-5.7-0.3c-1.9-0.1-3.9-0.1-5.8-0.2
			c-3.9-0.1-7.9-0.3-12-0.4c-8.1-0.1-16.6-0.3-25.1-0.1c-8.6,0-17.3,0.4-25.9,0.6c-8.7,0.5-17.4,0.9-25.9,1.6
			c-8.5,0.6-16.9,1.6-25,2.4c-4.1,0.5-8,1-11.9,1.5c-1.9,0.3-3.9,0.5-5.8,0.8c-1.9,0.3-3.8,0.6-5.6,0.9c-3.7,0.6-7.3,1.1-10.8,1.7
			c-3.5,0.6-6.8,1.2-10,1.8c-3.2,0.6-6.3,1.1-9.2,1.7c-2.9,0.6-5.7,1.2-8.3,1.7c-2.6,0.5-5,1.1-7.3,1.5c-2.2,0.5-4.3,1-6.2,1.4
			C58.7,133.6,54.5,134.6,54.5,134.6z"/>
		<g class="st2">
			<path class="st3" d="M26.5,141.3h10.6l1.3,36.1h-8.8l0.2-6.9h-8.6l-2.7,6.9H9.6L26.5,141.3z M30.2,147.9h-0.1L23.7,164h6.2
				L30.2,147.9z"/>
			<path class="st3" d="M46.6,150.1h7.9l-0.7,3.2h0.1c1.7-2.4,4.4-3.9,7.4-3.9c4.7,0,6.6,2.3,5.5,7.6l-4.3,20.5h-8.2l3.9-18.7
				c0.5-2-0.2-3.1-1.7-3.1c-1.6,0-3.2,1.2-3.8,3.9L49,177.4h-8.2L46.6,150.1z"/>
			<path class="st3" d="M75.1,141.3h13.2c6.2,0,9.7,2.9,8.3,8.9c-0.9,4.2-3.8,7.5-7.4,8.1v0.1c2.6,0.4,6.3,1.6,4.8,9
				c-0.9,4.2-4,10-14.1,10H67.4L75.1,141.3z M77.2,171.2h2.6c3.4,0,5.1-2.2,5.6-4.7c0.8-3.5-0.8-5.1-3.4-5.1h-2.7L77.2,171.2z
				 M80.5,155.7h2.3c2.9,0,4.5-1.7,5.1-4.2c0.4-1.9-0.2-3.9-3.3-3.9h-2.4L80.5,155.7z"/>
		</g>
		<g class="st2">
			<path class="st4" d="M117.9,141.3h9l1.9,36.1h-7.6l-0.1-7.6h-9.6l-3.3,7.6h-7.6L117.9,141.3z M114,163.8h7.1l-0.1-16.2H121
				L114,163.8z"/>
			<path class="st4" d="M136.8,150.2h6.7l-0.6,2.9h0.1c2.1-2.5,4.2-3.6,6.9-3.6c5.7,0,7.5,4.2,5.3,14.3
				c-2.1,10.1-5.7,14.3-11.4,14.3c-2.6,0-4.2-1.1-5.2-3.2h-0.1l-2.4,11.4h-7L136.8,150.2z M142.8,172.8c3,0,4.2-3,5.5-9
				c1.3-5.9,1.3-9-1.7-9c-3.1,0-4.3,3-5.6,9C139.7,169.7,139.7,172.8,142.8,172.8z"/>
			<path class="st4" d="M162.1,150.2h6.7l-0.6,2.9h0.1c2.1-2.5,4.2-3.6,6.9-3.6c5.7,0,7.5,4.2,5.3,14.3
				c-2.1,10.1-5.7,14.3-11.4,14.3c-2.6,0-4.2-1.1-5.2-3.2h-0.1l-2.4,11.4h-7L162.1,150.2z M168,172.8c3,0,4.2-3,5.5-9
				c1.3-5.9,1.3-9-1.7-9c-3.1,0-4.3,3-5.6,9C165,169.7,165,172.8,168,172.8z"/>
			<path class="st4" d="M189.6,141.3h7l-7.7,36.1h-7L189.6,141.3z"/>
			<path class="st4" d="M199.8,150.2h7l-5.8,27.2h-7L199.8,150.2z M201.8,140.9h7l-1.3,6h-7L201.8,140.9z"/>
			<path class="st4" d="M209.9,158.6l0.2-0.7c1.3-6.3,6.1-8.4,11.3-8.4c8.3,0,9.2,3.4,8.1,8.3l-3,14.3c-0.6,2.5-0.6,3.7-0.3,5.3
				h-6.7c-0.3-0.9-0.3-1.9-0.3-2.8h-0.1c-2.2,2.8-4.3,3.5-7.7,3.5c-4.9,0-5.7-4.1-4.9-7.8c1.1-5.1,3.6-7.2,8.6-8.5l4.2-1.1
				c2.2-0.6,3.1-1.4,3.4-3.2c0.5-2.1-0.2-3.3-2.5-3.3c-2.1,0-3.5,1.4-4,3.5l-0.2,0.8H209.9z M221.5,163.8c-1.1,0.7-2.4,1.2-3.3,1.4
				c-2.9,0.6-4.3,2-4.9,4.4c-0.5,2.1-0.1,3.8,1.8,3.8c1.9,0,4.6-1.2,5.2-4.2L221.5,163.8z"/>
			<path class="st4" d="M236,150.2h6.7l-0.7,3.2h0.1c2-2.7,4.8-3.9,7.7-3.9c4.3,0,6.4,2.4,5.3,7.7l-4.3,20.2h-7l4-18.8
				c0.6-2.7-0.1-3.8-2.2-3.8c-2.4,0-4,1.5-4.7,4.5l-3.8,18.1h-7L236,150.2z"/>
			<path class="st4" d="M272.3,160c0.6-2.6,0.7-5.5-2-5.5c-3.4,0-4.7,3-6,9.3c-1.4,6.7-1.4,9.5,1.7,9.5c2.3,0,3.8-2,4.8-6.4h6.7
				c-1.5,7.1-5.4,11.1-12.7,11.1c-7,0-9.7-3.4-7.4-14.3c2.4-11.2,7.6-14.3,14.1-14.3c6.4,0,8.9,4.1,7.5,10.5H272.3z"/>
			<path class="st4" d="M287.6,164.9l-0.5,2.2c-0.7,3.2-0.5,6.3,2.1,6.3c2.3,0,3.6-1.8,4.8-5.1h6.3c-1.6,6.3-5.4,9.9-11.9,9.9
				c-10.1,0-8.9-7.8-7.4-14.6c1.6-7.3,4.4-14.1,13.8-14.1c8.1,0,8.8,5.5,7,13.8l-0.3,1.6H287.6z M295.6,160.7
				c0.8-4.1,0.7-6.5-2.2-6.5c-2.8,0-4.2,2.9-4.7,5.4l-0.3,1.1H295.6z"/>
			<path class="st4" d="M322.4,141.3h13.5c6,0,9,3.1,7.6,9.3c-1.1,4.8-3.6,8-7.9,8.9v0.1c4.8,0.7,5,3.4,3.4,11
				c-0.7,3.8-1,5.8,0.3,6.5l-0.1,0.3h-7.9c-0.5-1-0.4-2.4-0.1-3.8l1.3-6.9c0.5-2.8-0.4-4.6-3.3-4.6h-3.9l-3.2,15.3h-7.3L322.4,141.3
				z M326.3,157.1h3c3.5,0,5.8-1.5,6.6-5.4c0.7-3.3-0.7-5-4-5h-3.4L326.3,157.1z"/>
			<path class="st4" d="M351.3,164.9l-0.5,2.2c-0.7,3.2-0.5,6.3,2.1,6.3c2.3,0,3.6-1.8,4.8-5.1h6.3c-1.6,6.3-5.4,9.9-11.9,9.9
				c-10.1,0-8.9-7.8-7.4-14.6c1.6-7.3,4.4-14.1,13.8-14.1c8.1,0,8.8,5.5,7,13.8l-0.3,1.6H351.3z M359.3,160.7
				c0.8-4.1,0.7-6.5-2.2-6.5c-2.8,0-4.2,2.9-4.7,5.4l-0.3,1.1H359.3z"/>
			<path class="st4" d="M371.8,150.2h6.7l-0.6,2.9h0.1c2.1-2.5,4.2-3.6,6.9-3.6c5.7,0,7.5,4.2,5.3,14.3
				c-2.1,10.1-5.7,14.3-11.4,14.3c-2.6,0-4.2-1.1-5.2-3.2h-0.1l-2.4,11.4h-7L371.8,150.2z M377.7,172.8c3,0,4.2-3,5.5-9
				c1.3-5.9,1.3-9-1.7-9c-3.1,0-4.3,3-5.6,9C374.6,169.7,374.6,172.8,377.7,172.8z"/>
			<path class="st4" d="M395.3,158.6l0.2-0.7c1.3-6.3,6.1-8.4,11.3-8.4c8.3,0,9.2,3.4,8.1,8.3l-3,14.3c-0.6,2.5-0.6,3.7-0.3,5.3
				h-6.7c-0.3-0.9-0.3-1.9-0.3-2.8h-0.1c-2.2,2.8-4.3,3.5-7.7,3.5c-4.9,0-5.7-4.1-4.9-7.8c1.1-5.1,3.6-7.2,8.6-8.5l4.2-1.1
				c2.2-0.6,3.1-1.4,3.4-3.2c0.5-2.1-0.2-3.3-2.5-3.3c-2.1,0-3.5,1.4-4,3.5l-0.2,0.8H395.3z M406.9,163.8c-1.1,0.7-2.4,1.2-3.3,1.4
				c-2.9,0.6-4.3,2-4.9,4.4c-0.5,2.1-0.1,3.8,1.8,3.8s4.6-1.2,5.2-4.2L406.9,163.8z"/>
			<path class="st4" d="M421.7,150.2h7l-5.8,27.2h-7L421.7,150.2z M423.6,140.9h7l-1.3,6h-7L423.6,140.9z"/>
			<path class="st4" d="M433.5,150.2h6.7l-0.8,3.6h0.1c2-2.6,4.3-4.3,7.2-4.3c0.4,0,0.9,0.1,1.3,0.1l-1.4,6.7
				c-0.7-0.1-1.5-0.1-2.2-0.1c-2.4,0-5.4,1.3-6.2,4.9l-3.5,16.3h-7L433.5,150.2z"/>
		</g>
		<g>
			<path class="st5" d="M326.9,107.4c0.2-1.3,0.4-2.5,0.6-3.7c0.2-1,0.5-2,0.7-3c0.3-1,0.6-2,1.1-2.9c1.7-0.1,3.4,0.3,5.1,0.4
				c0.3-0.4,0.5-0.8,0.7-1.2c2.4,0.2,4.9,0.2,7.4,0l1.4-0.2c1.6-0.1,3.3-0.5,4.8-1c1.6-0.5,3.2-1.2,4.7-2.1c0.5-0.3,1-0.6,1.4-0.9
				c-1.5-3.5,1-11.3,1-11.3c0.5-1.5,0.9-3.1,1.4-4.7c0.1,0,0.2,0,0.2,0c0.1,0,0.1,0,0.2-0.1c0.6-2.6,0.7-5.3,0.4-7.9
				c-0.4-4-1.7-7.8-3.4-11.5c-0.1-0.1-0.2-0.3-0.2-0.4c-1.9-0.3-3.7-0.4-5.6-0.1c-1.8,0.3-3.5,1-5.1,2c-2.2,1.5-3.9,3.5-5.3,5.8
				c-0.1,0.1-0.1,0.4-0.1,0.5c0.1,0.7,0.1,1.4,0.2,2.2c0.1,0.9,0.1,1.7,0.2,2.6c0.1,0.1,0.3,0.2,0.5,0.3c-0.3,1.4-0.5,2.8-0.8,4.2
				c0.1,0.1,0.1,0.1,0.2,0.1c0.8,0.4,1.6,0.7,2.4,1.1c1,0.5,1.8,1.2,2.3,2.3c0.5,1.2,0.4,2.4,0.1,3.6c-0.4,1.5-0.9,2.9-1.4,4.4
				c-0.3,0.9-0.6,1.9-0.9,2.8c-0.2,0.7-0.5,1.4-0.8,2.1l-5.3,1.4c0,0,0,0,0,0c-0.7,0.2-1.4,0.4-2,0.5c-8.1-4.2-16.1-8.4-24.2-12.6
				c0.2-0.4,0.3-0.7,0.4-1.1c0.5-1.5,1-2.9,1.5-4.4c0.4-1.1,0.8-2.2,1.2-3.4c0.3-0.7,0.6-1.3,0.8-2c0.2,0,0.3,0,0.5-0.1
				c0-0.2,0-0.3,0-0.5c0.1-0.1,0.2-0.3,0.3-0.4c0,0-0.1,0-0.1,0c0.1-0.2,0.2-0.5,0.3-0.7c0.1-0.2,0.2-0.3,0.3-0.5
				c1.1-1.3,2.4-2.1,4.2-1.7c0.5,0.1,0.9,0.3,1.4,0.4c0.4,0.1,0.8,0.3,1.2,0.5c0.1-0.3,0.1-0.5,0.2-0.7c0.2-0.5,0.3-1.1,0.5-1.6
				c0.3-0.6,0.7-0.8,1.4-0.7c0.3,0.1,0.6,0.2,1,0.3c0.1-0.1,0.2-0.2,0.3-0.3c0.9-1,1.8-1.9,2.7-2.9c0.4-0.4,0.9-0.8,1.3-1.3
				c0.8-1.2,1.6-2.5,2.5-3.7c1.9-2.6,4.1-4.8,7-6.3c1.2-0.6,2.5-1.1,3.9-1.5c0.1,0,0.1,0,0.2-0.1l0,0c0.9-0.2,1.8-0.4,2.7-0.6
				c0.1,0,0.3-0.1,0.4-0.1c0.2,0,0.3,0,0.5-0.1c1.5-0.2,2.9-0.3,4.3-0.2l0,0c1.7,0.1,3.3,0.3,5,0.6c0.7,0.2,1.5,0.4,2.3,0.4
				c1.3-0.1,2.7,0,4,0c0.1,0,0.2,0,0.3,0c0-0.1,0-0.2,0.1-0.2c0.2-1.4,0.4-2.8,0.5-4.2c0-0.2,0-0.4,0-0.6c-0.2-1.1-0.5-2.2-0.7-3.4
				c-0.1-0.5-0.2-0.9-0.3-1.4c-0.2-0.1-0.4-0.2-0.5-0.2c-1-0.3-1.6-0.9-2.1-1.8c-0.5-1-1-2-1.2-3.2c-0.2-0.8-0.2-1.7-0.2-2.5
				c0-0.5,0.1-1,0.6-1.2c0.1-1,0.2-2,0.2-3c0-0.6,0.1-1.2,0.1-1.8c-0.1-2.4-0.3-4.8-0.4-7.2c0-0.3,0.1-0.7,0.3-1
				c0.9-1.8,2.4-3.2,4-4.3c1.9-1.3,4-2.1,6.3-2.7c1.7-0.5,3.4-0.7,5.2-0.9c1.7-0.1,3.3-0.1,4.9,0.1c1.5,0.2,2.9,0.5,4.4,0.9
				c1.2,0.4,2.4,0.9,3.5,1.5c1.4,0.8,2.6,1.7,3.7,2.9c0.2,0.2,0.3,0.4,0.3,0.6c0.4,1.2,0.5,2.5,0.6,3.8c0.1,1.5,0.2,3,0.3,4.5
				c0,0.4,0.1,0.8,0.1,1.3c0.8,0.5,1.5,1,2.3,1.5c1.2,0.8,2.3,1.7,3.3,2.7c0.2,0.2,0.4,0.5,0.7,0.8c-0.3,0.3-0.5,0.6-0.8,0.7
				c-0.7,0.3-1.4,0.7-2.1,0.9c-1.1,0.4-2.2,0.6-3.4,0.7c-0.2,0-0.5,0.1-0.7,0.1c-0.5,1.4-1,2.7-1.5,4.1c-0.4,1-0.6,2-0.5,3.1
				c0.2,3.7,0.3,7.4,0.4,11.1c0,0.2,0,0.4-0.1,0.6c-0.6,1-1.3,2-2.2,2.8c-0.2,0.2-0.4,0.3-0.7,0.3c-1.4,0.3-2.9,0.3-4.4,0.2
				c-1.1-0.1-2.2-0.2-3.3-0.2c0,0,0,0.1,0.1,0.2c0.6,0.6,1.2,1.1,1.8,1.7c0.2,0.2,0.4,0.5,0.6,0.6c2.2,1.3,4.5,2.2,7,2.8
				c2,0.4,4,0.6,6,0.4c1.3-0.2,2.6-0.4,3.9-0.8c1.4-0.4,2.7-1,3.9-1.7c1-0.6,2-1.3,3-2c-0.5-3.6,0.3-6.7,2.7-9.4
				c-0.6-1.1-1.2-2.1-1.8-3.2c-3.2-0.4-5-2.3-5.7-4.7c-0.6-2.2-0.1-4.1,1.4-5.9c0.9,1.5,1.7,3,2.6,4.5c0.8,0,1.5,0.1,2.4,0.1
				c0.4-0.7,0.7-1.4,1.1-2.1c-0.9-1.5-1.7-3-2.6-4.5c2-0.3,3.7,0.1,5.2,1.3c2.1,1.7,3.1,4.8,1.9,7.4c-0.1,0.3-0.1,0.5,0.1,0.7
				c0.5,0.9,1,1.8,1.5,2.6c0.3,0.5,0.6,1.1,0.9,1.6c0.6-0.3,1.2-0.6,1.7-0.9c1.7,0.5,4,3.2,4.1,5.4c-0.2,0.2-0.3,0.4-0.5,0.6
				c0.1,0.1,0.2,0.3,0.3,0.4c1.5,2.2,2.8,4.5,3.1,7.2c0.1,0.7,0.5,1.5-0.3,2c0.5,0.9,1,1.7,1.5,2.6c0.4,0.7,0.9,1.4,1.1,2.2
				c0,0.1,0,0.1,0,0.2v0c0,0,0,0.1,0,0.1c0,0,0,0.1,0,0.1c0,0.1,0,0.4,0,0.4c0,0.5-0.2,1-0.5,1.5c0,0,0,0,0,0c0,0,0,0.1-0.1,0.1
				c0,0-0.1,0.1-0.1,0.1c0,0,0,0,0,0c-0.1,0.1-0.2,0.2-0.3,0.3c0,0,0,0,0,0c0,0-0.1,0.1-0.2,0.1l0,0c-0.3,0.3-0.6,0.5-1,0.7
				c-1.6,1-3.7,0.3-4.6-1.3c-0.6-1.1-1.3-2.2-1.9-3.3c-1.4,0.6-2.9,1-4.5,1.3c-0.2,0-0.4,0.1-0.5,0.3c-1.3,1.1-2.7,2.1-4.1,3
				c-2,1.1-4.1,2-6.4,2.5l0,0c-1,0.3-2.1,0.5-3.4,0.6c-4.7,0.5-9.2-0.2-13.7-2c-0.2,5.6-1.6,10.9-3.3,16.1c1.8,0.6,3.6,1.4,5.4,2.2
				c2.9,1.3,5.6,2.7,8,4.3c0,0,0,0,0,0c0,0,0,0,0,0c0.4,0.2,0.8,0.5,1.1,0.7c0,0,0,0,0,0c0.1,0,0.1,0.1,0.2,0.1
				c0.6,0.4,1.2,0.8,1.8,1.2c0,0,0,0,0,0c0,0,0.1,0.1,0.1,0.1c0.3,0.2,0.6,0.4,0.9,0.7c0,0,0,0,0,0c0.2,0.1,0.4,0.2,0.5,0.4
				c0,0,0,0,0,0c0.4,0.3,0.9,0.6,1.3,1c0,0,0,0,0-0.1c0.2,0.2,0.5,0.4,0.7,0.7c0.1,0.1,0.2,0.2,0.3,0.3c0,0,0,0,0,0
				c0.3,0.2,0.5,0.4,0.8,0.6c0,0,0,0,0,0.1c0.1,0.1,0.2,0.2,0.3,0.3c0,0,0-0.1,0.1-0.1c0.2,0.2,0.4,0.3,0.6,0.5c0,0,0,0.1-0.1,0.1
				c0.1,0.1,0.2,0.2,0.3,0.2c0,0,0.1-0.1,0.1-0.1c0.3,0.3,0.5,0.5,0.8,0.7c0,0-0.1,0.1-0.1,0.1c0.1,0.1,0.2,0.2,0.3,0.3
				c0,0,0.1,0,0.1-0.1c0.1,0.1,0.2,0.1,0.4,0.3c0,0-0.1,0.1-0.1,0.1c0.1,0.1,0.2,0.2,0.3,0.3c0,0,0.1-0.1,0.1-0.1
				c0.3,0.3,0.5,0.5,0.8,0.7c0,0-0.1,0.1-0.1,0.1c0.1,0.1,0.2,0.2,0.3,0.3c0,0,0.1-0.1,0.1-0.1c0.3,0.6,1,0.8,1.2,1.4c0,0,0,0,0,0
				c0.1,0.1,0.2,0.2,0.3,0.3c0,0,0,0,0.1-0.1c0.5,0.5,1,1.1,1.5,1.6c0.1,0,0.1,0,0.2,0c1.1-0.1,2.3-0.2,3.4-0.3
				c1.6-0.1,3.2,0,4.8,0.3c1.3,0.2,2.6,0.6,3.8,1.1c0.6,0.3,1.2,0.6,1.8,0.9c-0.1,0.2-0.1,0.3-0.1,0.4c-0.5,1.3-1.3,2.4-2.2,3.4
				c-1.7,2-3.6,3.7-5.6,5.4c-1.5,1.3-3.1,2.5-4.7,3.7l0,0c0,0-0.1,0-0.1,0.1c-0.1,0.1-0.2,0.1-0.3,0.2c-0.1,0.1-0.3,0.2-0.4,0.3
				c-1.5,1.1-3.1,2.1-4.7,3c-0.7,0.4-1.4,0.8-2.2,1.1c0-0.1-0.1-0.1-0.1-0.1c-0.2,0.1-0.3,0.1-0.5,0.2c0,0,0.1,0,0.1,0l0,0.1h-0.2
				c0,0,0,0,0-0.1c-0.3,0.1-0.6,0.3-1,0.4c-0.1,0.1-0.3,0.1-0.4,0.2c-0.8,0.3-1.6,0.7-2.4,1c-5.2-10.2-11.2-17.5-18.8-21.9
				c-1.5-0.8-3-1.5-4.6-2.2c-0.9-0.4-1.9-0.7-2.8-1c-0.1,0.1-0.1,0.1-0.2,0.2c-1.5,2-3.1,3.9-5,5.6c-1.6,1.5-3.4,2.9-5.3,4.2
				c-1.8,1.2-3.6,2.2-5.5,3c-1.4,0.6-2.9,1.2-4.4,1.7c-1.7,0.5-3.4,0.9-5.2,1.2c-1.8,0.2-3.5,0.4-5.3,0.3c-0.9,0-1.9-0.1-2.8-0.2
				c-0.1,0.1-0.1,0.2-0.2,0.3c-0.5,0.9-1,1.9-1.7,2.7c-1.9,2.5-4.3,4.3-7.5,4.7c-0.8,0.1-1.6,0.1-2.4-0.1c-0.1-0.2-0.1-0.3-0.1-0.5
				c-0.3-1-0.3-2-0.3-3c0-2.5,0.1-4.9,0.4-7.3C326.6,109.6,326.8,108.5,326.9,107.4z"/>
			<g>
				<path class="st6" d="M374.9,54.8L374.9,54.8c0.2-0.5,0.4-1,0.6-1.4C375.3,53.8,375.1,54.3,374.9,54.8z"/>
				<path class="st6" d="M365.6,50.2c1,0.6,2,1.2,3,1.7C367.6,51.4,366.6,50.8,365.6,50.2z"/>
				<path class="st6" d="M375.7,52.8L375.7,52.8c-0.1,0-0.3-0.1-0.4-0.1C375.4,52.8,375.5,52.8,375.7,52.8z"/>
				<path class="st6" d="M375.1,52.7c-0.1,0-0.3-0.1-0.4-0.1C374.8,52.6,375,52.7,375.1,52.7z"/>
				<path class="st6" d="M370.5,50.8c-0.3-0.2-0.6-0.3-0.9-0.5C369.9,50.5,370.2,50.6,370.5,50.8z"/>
				<path class="st6" d="M373.2,52.1c-0.4-0.1-0.7-0.3-1.1-0.5C372.4,51.8,372.8,52,373.2,52.1z"/>
				<path class="st6" d="M392.4,26.3C392.4,26.3,392.4,26.3,392.4,26.3C392.4,26.3,392.4,26.3,392.4,26.3z"/>
				<path class="st6" d="M387.1,23.6c-0.2-0.2-0.4-0.3-0.6-0.5c-0.1-0.1-0.2-0.1-0.3-0.2c0.1,0.1,0.2,0.1,0.3,0.2
					C386.7,23.3,386.9,23.5,387.1,23.6z"/>
				<path class="st6" d="M389.9,25.2c0.4,0.2,0.7,0.4,1.1,0.6C390.6,25.5,390.3,25.4,389.9,25.2c-0.1-0.1-0.3-0.1-0.4-0.2
					C389.6,25,389.8,25.1,389.9,25.2z"/>
				<path class="st6" d="M391,25.3c-0.3-0.2-0.6-0.4-1-0.6C390.3,24.9,390.7,25.1,391,25.3z"/>
				<path class="st6" d="M386.3,22.7c0,0-0.1,0-0.1,0C386.2,22.6,386.3,22.7,386.3,22.7z"/>
				<path class="st6" d="M390,24.7c-0.3-0.2-0.6-0.4-1-0.6C389.4,24.3,389.7,24.5,390,24.7z"/>
				<path class="st6" d="M368.8,49.9c-0.8-0.5-1.5-1-2.3-1.5C367.3,48.9,368.1,49.4,368.8,49.9z"/>
				<path class="st6" d="M385.8,22.5c0,0,0.1,0,0.1,0.1C385.9,22.5,385.8,22.5,385.8,22.5L385.8,22.5z"/>
				<path class="st6" d="M387.1,23.6c0.1,0.1,0.1,0.1,0.2,0.2C387.3,23.7,387.2,23.7,387.1,23.6z"/>
				<path class="st6" d="M417,55.3c0.1,0,0.1-0.1,0.2-0.1c0.1-0.1,0.3-0.2,0.4-0.2c-0.1,0.1-0.3,0.2-0.4,0.2
					C417.1,55.3,417,55.3,417,55.3z"/>
				<path class="st6" d="M420.1,53c0.3,0.7,0.5,1.5,0.7,2.2C420.7,54.5,420.4,53.7,420.1,53L420.1,53z"/>
				<path class="st6" d="M421.1,58.3l-4.1,2l2.2,3.7c1.5,2.5,5.1-0.1,4.1-2v0L421.1,58.3z M419.5,62.4L419.5,62.4L419.5,62.4z
					 M421.2,62c0.5,0,0.9,0.4,0.9,0.9c0,0.5-0.4,0.9-0.9,0.9c-0.5,0-0.9-0.4-0.9-0.9C420.3,62.4,420.7,62,421.2,62z"/>
				<path class="st6" d="M414.2,55.4c0.1,0,0.1,0,0.2,0C414.3,55.4,414.2,55.4,414.2,55.4z"/>
				<path class="st6" d="M363,45.3c0.5,0.5,1,1,1.5,1.4C364.1,46.3,363.6,45.8,363,45.3L363,45.3z"/>
				<path class="st6" d="M414,56.2L414,56.2c0.2,0,0.3,0,0.4,0C414.3,56.3,414.2,56.3,414,56.2z"/>
				<path class="st6" d="M416.8,55.5c-0.1,0.1-0.2,0.1-0.4,0.2C416.5,55.6,416.7,55.5,416.8,55.5z"/>
				<path class="st6" d="M414.7,57.2c-0.2-0.3-0.5-0.6-0.7-0.9c0,0,0,0,0,0c0,0,0,0,0,0C414.2,56.6,414.5,56.9,414.7,57.2z"/>
				<path class="st6" d="M419.8,52.1c-0.2-0.3-0.3-0.6-0.5-0.8C419.5,51.6,419.7,51.8,419.8,52.1c-0.2,0.2-0.2,0.3-0.3,0.4
					C419.6,52.4,419.7,52.3,419.8,52.1z"/>
				<path class="st6" d="M417.7,48.7L417.7,48.7c-0.2,0.1-0.4,0.2-0.6,0.4C417.3,48.9,417.5,48.8,417.7,48.7z"/>
				<path class="st6" d="M365.6,50.2c-0.4-0.2-0.7-0.4-1.1-0.6c-0.3-0.2-0.6-0.4-0.9-0.5c0.3,0.2,0.6,0.4,0.9,0.5
					C364.8,49.8,365.2,50,365.6,50.2z"/>
				<path class="st6" d="M371.5,51.3C371.5,51.4,371.5,51.4,371.5,51.3c0.1,0.1,0.2,0.1,0.3,0.2C371.7,51.5,371.6,51.4,371.5,51.3
					C371.5,51.4,371.5,51.4,371.5,51.3z"/>
				<path class="st6" d="M362.7,47.7c0,0.3-0.1,0.5-0.1,0.8l0,0C362.6,48.2,362.7,48,362.7,47.7z"/>
				<path class="st6" d="M419,50.8c-0.2-0.3-0.4-0.6-0.5-0.8C418.7,50.3,418.9,50.6,419,50.8z"/>
				<path class="st6" d="M412.1,43.6c-0.2,0.4-0.6,0.6-1,0.8l0,0c-0.7,0.5-1.3,1-2,1.5c-0.2-0.2-0.4-0.3-0.6-0.6
					c-0.4-0.7-0.8-1.4-1.2-2.1c-0.5-0.9-1.1-1.9-1.6-2.9c-1.1,0-2.2-0.2-3.1-0.8c-0.9-0.6-1.6-1.5-2-2.6c-0.4-1.1-0.3-2.1-0.1-3.2
					c0,0,0.1,0,0.1,0c0.6,1,1.2,2,1.8,3.1c1.3,0.1,2.6,0.2,3.9,0.2c0.6-1.2,1.2-2.3,1.8-3.5c-0.6-1-1.2-2.1-1.8-3.1
					c2.3,0,4.6,2.8,3.5,6.9c-0.1,0.3-0.3,0.5-0.4,0.8c1,1.7,2,3.4,3,5.2C412.3,43.5,412.2,43.5,412.1,43.6L412.1,43.6z"/>
				<path class="st6" d="M410.4,46.6c1.4-1.3,3-2.4,4.7-3.4c1.3,1,2.7,3,2.7,4c-1,0.8-2.1,1.4-3.2,2.1
					C413.2,48.4,411.8,47.5,410.4,46.6z"/>
				<path class="st6" d="M375,51c1.1,0.2,2.2,0.4,3.3,0.6c1.5,0.2,3.1,0.3,4.7,0.4c0.7,0,1.4-0.1,2.2-0.1c0.4-0.6,0.8-1.2,1.3-1.7
					c0.3-0.4,0.4-0.9,0.4-1.4c-0.1-3.9-0.1-7.8-0.1-11.7c0-0.6,0.2-1.2,0.3-1.7c0.3-1,0.6-2,0.9-3l0.2-1.2c0,0-2.6-1.4-3.7-0.9
					c-0.6,0.2-0.8,0.5-1,0.6c0,0.1-0.1,0.1-0.1,0.2c0,0,0,0,0,0c0,0,0,0.1,0,0.1l0,0l0,0c0,0.2,0,0.4-0.1,0.7
					c1.2-0.4,2.2-0.3,3.1,0.7c0.4,0.4,0.5,0.9,0.4,1.5c-0.3-0.4-0.6-0.8-1-1.1c-0.4-0.4-0.9-0.4-1.5-0.3c0.2,0.2,0.4,0.4,0.6,0.5
					c-0.2,0.2-0.3,0.3-0.4,0.4v0.6c0.2,0.1,0.3,0.2,0.6,0.4c-0.1,0.2-0.2,0.4-0.3,0.6c0.5,0.3,1,0.7,1.5,1c0,0,0,0,0,0l0,0
					c0,0,0,0,0,0c-0.3-0.1-0.7-0.2-1-0.3c-0.7-0.2-1.3-0.3-2.2-0.3c0.7,1.4,1.3,2.8,1.9,4.2c-1,0.8-2.2,1.1-3.3,1.1
					c-1,0-2-0.5-2.9-1.1c0.9,0.2,1.8,0.4,2.6,0.4c0.8,0,1.6-0.4,2.4-0.7c-0.1-0.4-0.2-0.7-0.4-1c-0.4-1-0.7-1.9-1.1-2.9
					c0-0.1-0.1-0.3,0-0.4c0.2-1.3,0.5-2.5,0.7-3.8h0c0,0,0-0.1,0.1-0.3c0.1-0.3,0.1-0.6,0.2-0.9c0,0,0-0.1,0-0.1
					c0.1-0.7,0.3-1.3,0.3-1.4c0-0.2,0.8-0.6,2.1-0.6c0.3,0,0.6,0,0.9,0c1.5,0.3,2.1,0.8,2.3,2c0.2-1.1,0.4-2.3,0.6-3.5
					c-0.4-0.2-0.8-0.3-1.1-0.5c-2.1-0.8-4.3-1-6.5-0.9l0,0c-1.6,0.1-3.4,0.4-5.3,1.1c1.6,0.2,3.1,0.6,4.4,1.6
					c-0.2,1-0.5,1.9-0.7,2.9c-3-3-6.1-3-9.4-0.7c0,0,0-0.1-0.1-0.1c0.1-0.2,0.1-0.3,0.2-0.5c0.1-0.2,0.2-0.3,0.3-0.6
					c-1.6,0.2-2.8-0.7-3.9-1.6c-0.5,1-0.9,1.9-1.4,3c0,1.5-0.1,3.2-0.1,5.1c-0.5,0.2-1,0.3-1.7,0.5c0-1.1-0.1-2.1-0.1-3.1
					c-0.4-0.5-0.9-0.8-1.4-1.1c-1-0.6-2.1-1-3.2-1.3c-0.9-0.2-1.2,0-1.2,0.9c0,1.1,0.2,2.2,0.7,3.3c0.2,0.4,0.3,0.8,0.5,1.1
					c0.4,0.9,1.1,1.3,1.9,1.6c0.6,0.2,1.3,0.4,2,0.6c0.1,0,0.2,0.1,0.3,0.2c0,0,0,0.1,0,0.1c-0.4,0.1-0.7,0.1-1.2,0.2
					c0.2,1.2,0.4,2.4,0.7,3.6c0.2,1,0.5,1.9,1.3,2.7c0.8,0.8,1.6,1.5,2.5,2.2c1.7,1.3,3.7,2.4,5.6,3.4C373.1,50.5,374,50.8,375,51z
					 M362.5,35.4c-0.3-0.1-0.6-0.1-0.8-0.2c-0.6,0.6-0.1,1.1-0.1,1.7c-0.6-0.4-1-1.5-0.7-2.1c0.1-0.2,0.3-0.2,0.5-0.3
					c0.1,0,0.2,0,0.4,0c-0.3-0.9-0.8-1.6-1.5-2.3c-0.2,0.2-0.5,0.3-0.6,0.5c-0.1,0.2-0.2,0.5-0.3,0.7c-0.4-0.6-0.1-1.6,0.5-1.8
					c0.3-0.1,0.5-0.1,0.8,0.1c0.7,0.6,1.2,1.3,1.5,2.2C362.5,34.4,362.6,34.8,362.5,35.4z M386.1,36C386.1,36,386.1,36,386.1,36
					C386.1,36.1,386.1,36.1,386.1,36C386.1,36.1,386.1,36.1,386.1,36z M378.5,32L378.5,32L378.5,32c-0.7-1-1.7-1.5-2.8-1.7
					c-0.2,0-0.3,0-0.5-0.1c-1.4-0.1-2.5,0.5-3.3,1.7c0,0-0.1-0.1-0.1-0.1c0.1-0.2,0.2-0.5,0.3-0.7c0.5-1,1.3-1.7,2.4-1.8
					c1.3-0.2,2.5,0.2,3.5,1c0.1,0.1,0.2,0.2,0.3,0.3C378.5,31,378.6,31.6,378.5,32z M370.7,34c1.1-0.7,2.3-0.6,3.5-0.7
					c-0.9-1-1-1.7-0.3-2.4c0.6-0.5,1.8-0.5,2.2,0.1c-0.7,0.7-0.7,1,0.3,1.6c-0.3,0.2-0.5,0.5-0.8,0.7c1.1,0.2,2.3,0.5,3.3,1.1
					C376.2,33.8,373.4,33.8,370.7,34z M377.3,43.7c-1.4-0.5-2.6-1.3-3.8-2.2c-0.5-0.4-1-0.8-1.5-1.2c-0.1,0.2-0.2,0.4-0.2,0.6
					c-0.4,0-0.6-0.1-0.7-0.5c-0.1-0.7,0.2-1.3,0.8-1.6c0.8-0.5,1.6-0.3,2.4-0.2c-0.7,0.3-1.5,0.3-2,1.1c2.3,1.6,4.6,2.9,7.4,3.5
					c1.3,0.2,2.5,0.3,3.8,0c0.4-0.1,0.9-0.2,1.3-0.4c-0.3,0.4-1.6,1.1-2.2,1.3C380.7,44.6,379,44.3,377.3,43.7z M375.8,44L375.8,44
					C375.8,44,375.8,44,375.8,44L375.8,44z"/>
				<path class="st6" d="M324.9,78.3c-0.3,0-0.6-0.1-0.8-0.2C324.4,78.2,324.6,78.3,324.9,78.3L324.9,78.3z"/>
				<path class="st6" d="M325.1,77.9c0.1-0.3,0.2-0.5,0.3-0.8C325.3,77.4,325.2,77.7,325.1,77.9z"/>
				<path class="st6" d="M392.5,26.3C392.5,26.3,392.4,26.3,392.5,26.3C392.4,26.3,392.5,26.3,392.5,26.3z"/>
				<path class="st6" d="M323.9,78c0.1,0,0.2,0.1,0.3,0.1C324,78.1,323.9,78.1,323.9,78z"/>
				<path class="st6" d="M351,55c-0.3,0-0.7,0.1-1,0.1c-3,0.1-5.7,1.2-8.1,3.1c-2,1.6-3.5,3.6-4.8,5.9c-0.2,0.4-0.2,1-0.3,0.8H336
					v3.5c-0.1,0-0.2,0-0.3-0.1c-0.6-0.3-1.3-0.1-1.6,0.5c-0.3,0.6-0.5,1.3-0.6,2c0.6,0.3,1.2,0.6,1.8,0.9c-0.1,0.2-0.2,0.4-0.3,0.7
					c-0.9,0.3-1.8,0.7-2.8,1c-0.1,0-0.2,0-0.3,0c-0.6-0.2-1.2-0.5-1.8-0.7c-0.3-0.1-0.5-0.4-0.6-0.7c-0.2-0.6-0.4-1.1-0.6-1.7
					c0-0.1-0.1-0.2-0.2-0.3c-0.1,0.3-0.2,0.5-0.3,0.8c-1.3-0.7-2.5-1.3-3.8-2c-0.2-1.1-0.3-2.2-0.5-3.2c0.7-0.8,1.4-1.6,2.2-2.4
					c0.9-0.9,1.8-1.8,2.7-2.7c0.4-0.4,0.6-0.9,0.9-1.4c1.5-2.4,3.3-4.7,5.5-6.5c1.4-1.1,2.8-1.9,4.5-2.5c0.7-0.3,1.5-0.5,2.2-0.8
					c2-0.5,4.1-0.8,6.1-0.9h1C350.6,50.4,351.3,52.6,351,55z"/>
				<path class="st6" d="M324.5,74.9c0.3,0.1,0.6,0.3,1,0.4c0.1,0,0.2,0.1,0.2,0.1c-0.1,0-0.1-0.1-0.2-0.1
					C325.2,75.2,324.9,75.1,324.5,74.9z"/>
				<path class="st6" d="M325.8,75.6c0.1,0.1,0.1,0.3,0,0.5c0,0.1-0.1,0.2-0.1,0.3c0-0.1,0.1-0.2,0.1-0.3
					C325.9,75.8,325.9,75.7,325.8,75.6z"/>
				<path class="st6" d="M393,26.7C393,26.7,393,26.7,393,26.7C393,26.7,393,26.7,393,26.7L393,26.7C393,26.8,393,26.8,393,26.7
					L393,26.7z"/>
				<path class="st6" d="M393,26.7C393,26.8,393,26.8,393,26.7L393,26.7C393,26.7,393,26.7,393,26.7C393,26.7,393,26.7,393,26.7
					L393,26.7z"/>
				<path class="st6" d="M324.3,80c0.2-0.4,0.3-0.9,0.5-1.2C324.6,79.1,324.5,79.6,324.3,80z"/>
				<path class="st6" d="M393.1,26.8L393.1,26.8C393.1,26.8,393.1,26.8,393.1,26.8C393.1,26.8,393.1,26.8,393.1,26.8z"/>
				<path class="st6" d="M384.6,12.5c-0.1,0-0.2-0.1-0.3-0.1C384.4,12.5,384.5,12.5,384.6,12.5z"/>
				<path class="st6" d="M323.8,80.9L323.8,80.9c0.1-0.2,0.2-0.3,0.3-0.5C324,80.6,323.9,80.8,323.8,80.9z"/>
				<path class="st6" d="M322.7,77.8c-0.2,0.6-0.5,1.2-0.7,1.8C322.3,79,322.5,78.4,322.7,77.8z"/>
				<polygon class="st6" points="393.1,26.8 393.1,26.8 393.1,26.8 393.1,26.8 393.1,26.8 				"/>
				<path class="st6" d="M323.9,74.8c0.1,0,0.2,0.1,0.3,0.1C324.2,74.8,324.1,74.8,323.9,74.8L323.9,74.8z"/>
				<path class="st6" d="M392.7,26.5L392.7,26.5c0,0-0.1,0-0.1,0C392.6,26.5,392.7,26.5,392.7,26.5z"/>
				<path class="st6" d="M392.7,26.5C392.7,26.5,392.7,26.5,392.7,26.5L392.7,26.5C392.7,26.5,392.7,26.5,392.7,26.5z"/>
				<path class="st6" d="M388.9,21.2c-0.1-1.6-0.3-3.3-0.4-4.9c0-0.1,0-0.3,0-0.4c0,0.1,0,0.3,0,0.4
					C388.7,17.9,388.8,19.5,388.9,21.2c0,0.2,0,0.4,0,0.6C388.9,21.5,388.9,21.4,388.9,21.2z"/>
				<path class="st6" d="M392.5,26.6c-0.1-0.1-0.2-0.1-0.3-0.2C392.3,26.4,392.4,26.5,392.5,26.6L392.5,26.6z"/>
				<path class="st6" d="M391.2,25.9c0,0,0.1,0,0.1,0.1C391.3,25.9,391.3,25.9,391.2,25.9z"/>
				<path class="st6" d="M392.5,26.5c0-0.1,0-0.2-0.1-0.2C392.5,26.4,392.5,26.5,392.5,26.5z"/>
				<path class="st6" d="M388.1,14.5c0.1,0.1,0.1,0.2,0.2,0.4c0,0.2,0.1,0.4,0.1,0.5c0-0.2-0.1-0.4-0.1-0.5
					C388.2,14.7,388.1,14.6,388.1,14.5z"/>
				<path class="st6" d="M389,22.7c-0.3-0.1-0.6-0.2-0.9-0.3C388.4,22.5,388.7,22.6,389,22.7L389,22.7z"/>
				<path class="st6" d="M380.8,12.3c0.1,0,0.2,0,0.3,0.1C380.9,12.4,380.8,12.3,380.8,12.3z"/>
				<path class="st6" d="M381.3,12.5c0.2,0.1,0.4,0.1,0.6,0.2C381.7,12.6,381.5,12.5,381.3,12.5z"/>
				<path class="st6" d="M378.1,11.8c0.1,0,0.1,0,0.2,0C378.3,11.8,378.2,11.8,378.1,11.8z"/>
				<path class="st6" d="M382.3,11.9c0.4,0.1,0.7,0.2,1.1,0.3c0.2,0.1,0.5,0.1,0.7,0.2c-0.2-0.1-0.5-0.1-0.7-0.2
					C383,12.1,382.7,12,382.3,11.9z"/>
				<path class="st6" d="M372.6,11.5c0.2,0,0.4,0,0.7,0C373,11.5,372.8,11.5,372.6,11.5l0-0.1c0.5-0.1,1-0.2,1.4-0.2
					c-0.5,0-1,0.1-1.4,0.2C372.6,11.4,372.6,11.5,372.6,11.5z"/>
				<path class="st6" d="M385.6,15.4c0,0.7,0,1.3,0,2C385.6,16.7,385.6,16.1,385.6,15.4c0-0.8-0.3-1.3-1-1.7c-0.8-0.4-1.6-0.7-2.4-1
					c0.8,0.3,1.6,0.6,2.4,1C385.3,14.1,385.6,14.6,385.6,15.4z"/>
				<path class="st6" d="M375.8,11.1c-0.3,0-0.6,0-0.9,0C375.2,11.1,375.5,11.1,375.8,11.1z"/>
				<polygon class="st6" points="368.6,99.5 368.6,99.5 368.6,99.5 				"/>
				<path class="st6" d="M356.6,49.3c-0.2-0.1-0.4-0.1-0.6-0.2C356.2,49.2,356.4,49.3,356.6,49.3z"/>
				<path class="st6" d="M359.3,49.5c0.1,0.2,0.3,0.5,0.4,0.7C359.6,50,359.5,49.8,359.3,49.5z"/>
				<path class="st6" d="M361.6,50.8c-0.7-0.5-1.5-0.9-2.3-1.3C360.1,49.9,360.9,50.3,361.6,50.8z"/>
				<path class="st6" d="M356,49.1c-0.2-0.1-0.4-0.1-0.6-0.2C355.6,49,355.8,49.1,356,49.1z"/>
				<path class="st6" d="M351.5,50.8c0.1,0.2,0.1,0.4,0.2,0.6C351.6,51.2,351.6,51,351.5,50.8z"/>
				<path class="st6" d="M350.5,48.3c0.6,0,1.2,0.1,1.8,0.1C351.6,48.3,351.1,48.3,350.5,48.3L350.5,48.3z"/>
				<path class="st6" d="M351.4,50.3c0,0.1,0.1,0.3,0.1,0.4C351.5,50.6,351.4,50.5,351.4,50.3z"/>
				<polygon class="st6" points="373.2,67.9 373.2,67.9 373.2,67.9 				"/>
				<path class="st6" d="M380.8,60.5c0-0.1-0.1-0.3-0.2-0.4C380.7,60.2,380.8,60.4,380.8,60.5z"/>
				<path class="st6" d="M380.5,59.7c-0.6-1.4-1.3-2.7-2.1-3.8C379.1,57,379.9,58.3,380.5,59.7z"/>
				<path class="st6" d="M381.6,64.5c-0.5-0.1-0.9-0.1-1.4-0.2C380.7,64.4,381.1,64.4,381.6,64.5L381.6,64.5z"/>
				<path class="st6" d="M351.8,51.9c0.1,0.3,0.1,0.7,0.1,1C351.9,52.5,351.8,52.2,351.8,51.9z"/>
				<path class="st6" d="M370.8,54.6C370.7,54.6,370.7,54.6,370.8,54.6C370.7,54.6,370.7,54.6,370.8,54.6z"/>
				<path class="st6" d="M376.9,54.4L376.9,54.4c0,0.1,0,0.3,0,0.4C376.9,54.7,376.9,54.6,376.9,54.4z"/>
				<path class="st6" d="M375.7,56c0.2,0,0.4,0,0.5-0.1C376.1,55.9,375.9,56,375.7,56z"/>
				<path class="st6" d="M373,55.4c-0.7-0.3-1.4-0.5-2.1-0.8C371.6,54.8,372.3,55.1,373,55.4z"/>
				<path class="st6" d="M378.4,55.9c-0.1-0.1-0.2-0.3-0.3-0.4C378.2,55.7,378.3,55.8,378.4,55.9z"/>
				<path class="st6" d="M361.6,50.8c1.6,1,3,2.3,4.2,3.7c0.6,0.6,1.1,1.3,1.5,2c-0.5-0.7-1-1.3-1.5-2
					C364.6,53.1,363.2,51.8,361.6,50.8z"/>
				<path class="st6" d="M369.3,63.3L369.3,63.3c0.7,4.2,0.4,8.3,0,12.5c-2.7,0.2-5.4,0.4-8.2,0.6c2.7-0.2,5.4-0.4,8.2-0.6
					C369.8,71.6,370,67.5,369.3,63.3z"/>
				<path class="st6" d="M359.9,51c0.1,0.1,0.1,0.1,0.2,0.2c0,0,0,0,0,0c0,0,0,0,0,0C360,51.1,360,51,359.9,51z"/>
				<path class="st6" d="M360.3,51.3C360.3,51.3,360.3,51.3,360.3,51.3C360.3,51.3,360.3,51.3,360.3,51.3L360.3,51.3z"/>
				<path class="st6" d="M359.5,76.5L359.5,76.5c0.2-0.8,0.3-1.7,0.4-2.5C359.8,74.9,359.6,75.7,359.5,76.5z"/>
				<path class="st6" d="M351.9,52.9c0,0.1,0,0.3,0,0.4C351.9,53.2,351.9,53.1,351.9,52.9z"/>
				<polygon class="st6" points="351.2,111.3 351.2,111.3 351.2,111.3 351.2,111.3 351.2,111.3 				"/>
				<polygon class="st6" points="351.2,111.3 351.2,111.3 351.2,111.3 				"/>
				<path class="st6" d="M356.6,49.3c0.3,0.1,0.6,0.2,1,0.3c0.1,0,0.2,0.1,0.3,0.1c-0.1,0-0.2-0.1-0.3-0.1
					C357.3,49.5,357,49.4,356.6,49.3z"/>
				<path class="st6" d="M352,53.8c0,0.1,0,0.3,0,0.4C351.9,54.1,352,53.9,352,53.8z"/>
				<path class="st6" d="M358.7,56.3c0.2,0,0.4,0,0.6-0.1C359.1,56.3,358.9,56.3,358.7,56.3z"/>
				<path class="st6" d="M355.8,55.6c0.4,0.1,0.8,0.2,1.2,0.3C356.6,55.8,356.2,55.7,355.8,55.6z"/>
				<path class="st6" d="M353.4,55.3c0.2,0,0.4,0,0.6,0.1C353.8,55.3,353.6,55.3,353.4,55.3c-0.5-0.1-1-0.1-1.6-0.1
					c0-0.3,0.1-0.6,0.1-0.9c0,0.3,0,0.6-0.1,0.9C352.4,55.2,352.9,55.2,353.4,55.3z"/>
				<path class="st6" d="M356.7,57.3c0.4,0.2,0.7,0.2,1,0.2C357.4,57.5,357.1,57.5,356.7,57.3L356.7,57.3z"/>
				<path class="st6" d="M358.6,57.4c0.5-0.2,0.9-0.7,1.3-1.4l0,0C359.4,56.7,359,57.2,358.6,57.4z"/>
				<path class="st6" d="M385.9,59.6c0.2,0.1,0.4,0.1,0.6,0.2c-0.1,0.2-0.2,0.5-0.3,0.7c0.1-0.2,0.2-0.5,0.3-0.7
					C386.3,59.8,386.1,59.7,385.9,59.6z"/>
				<path class="st6" d="M373.2,67.9L373.2,67.9C373.2,67.9,373.2,67.9,373.2,67.9C373.2,67.9,373.2,67.9,373.2,67.9
					C373.2,67.9,373.2,67.9,373.2,67.9C373.2,67.9,373.2,67.9,373.2,67.9z"/>
				<path class="st6" d="M381.5,58.1L381.5,58.1c0.1,0.1,0.1,0.3,0.2,0.4C381.6,58.3,381.5,58.2,381.5,58.1z"/>
				<path class="st6" d="M383.5,65.3c0-0.2,0-0.4-0.1-0.5c-0.1,0-0.2-0.1-0.3-0.1c0.1,0,0.2,0.1,0.3,0.1
					C383.5,64.9,383.5,65.1,383.5,65.3z"/>
				<path class="st6" d="M381.6,58.5c0.1,0.3,0.2,0.5,0.3,0.8C381.8,59,381.7,58.7,381.6,58.5z"/>
				<path class="st6" d="M385.9,61.3c-0.5,1.5-0.7,3-0.7,4.7l0,0C385.2,64.3,385.4,62.8,385.9,61.3z"/>
				<path class="st6" d="M380.3,69.3c0,0.4,0.1,0.8,0.1,1.2c0.4,0.1,0.8,0.1,1.3,0.2l0,0c-0.5-0.1-0.9-0.1-1.3-0.2
					C380.3,70,380.3,69.7,380.3,69.3z"/>
				<path class="st6" d="M380.3,71.7c0.2,0,0.4,0,0.6,0.1C380.7,71.7,380.5,71.7,380.3,71.7L380.3,71.7z"/>
				<path class="st6" d="M379,81.6c0.2-0.8,0.4-1.6,0.5-2.4C379.4,80,379.2,80.8,379,81.6L379,81.6z"/>
				<path class="st6" d="M380,65.8L380,65.8c0.1,1.2,0.2,2.3,0.3,3.5C380.2,68.1,380.1,67,380,65.8z"/>
				<path class="st6" d="M381.5,65.9c-0.2,0-0.3,0-0.5,0C381.1,65.9,381.3,65.9,381.5,65.9z"/>
				<path class="st6" d="M416.1,58.3c0.3,0.1,0.6,0.1,0.8,0.2C416.7,58.5,416.4,58.4,416.1,58.3c-0.1,0-0.2-0.1-0.3-0.1
					C415.9,58.3,416,58.3,416.1,58.3z"/>
				<path class="st6" d="M381.9,66c-0.2,0-0.3,0-0.5,0C381.6,65.9,381.8,65.9,381.9,66c0,0.9,0,1.8-0.1,2.6
					C381.9,67.7,381.9,66.9,381.9,66z"/>
				<path class="st6" d="M396.5,59.7c3-0.8,5.7-2.2,8.1-4.1c0.2,0.2,0.4,0.4,0.6,0.6c0,0,0.1,0,0.1,0c-1.1-3.6,0-6.7,2.1-9.7
					c2.2,1.4,4.3,2.7,6.4,4.1c-0.2,0.6-0.5,0.9-0.9,1.3c-0.5,0.4-1.1,0.8-1.7,0.8c-0.3,0-0.6,0-0.8-0.1c-1.1-0.6-2.1-1.3-2.8-2.3
					c0-0.1-0.1-0.1-0.2-0.1c0,0,0,0,0,0v0l0,0l0,0l0,0l0,0l0,0v0c0,0,0,0,0,0c-0.1,0.4,0.2,0.7,0.3,0.9c0.4,0.5,0.8,1,1.2,1.5
					c0.2,0.2,0.4,0.5,0.5,0.7c0.5,1.5,0.4,2.9-0.7,4.2c0,0,0,0.1-0.1,0.2c0.7-0.4,1.2-0.9,1.6-1.6c0.4-0.7,0.3-1.4,0.3-2.2
					c0.2,0.3,0.4,0.7,0.7,1c0.9,1.2,1.7,2.5,2.6,3.7c0.3,0.4,0.7,0.7,1.1,1.1c0.1,0.1,0.2,0.3,0.3,0.6c-0.8,0.4-1.6,0.7-2.5,1
					c-0.7,0.2-1.5,0.3-2.3,0.5c-0.2,0-0.4,0.2-0.6,0.3c-2.1,1.8-4.5,3.2-7.1,4.2c-0.9,0.4-1.9,0.6-2.9,0.9c-2.1,0.4-4.3,0.6-6.4,0.6
					c-2.5-0.1-5-0.5-7.5-1.3c-0.3-2.2,0-4.3,1.2-6.3C390.4,60.5,393.5,60.5,396.5,59.7z"/>
				<path class="st6" d="M382.5,61.3c0.1,0.3,0.1,0.5,0.2,0.8C382.7,61.8,382.6,61.5,382.5,61.3z"/>
				<path class="st6" d="M385.9,61.3c0.1-0.2,0.2-0.5,0.3-0.7C386.1,60.8,386,61,385.9,61.3z"/>
				<path class="st6" d="M383.9,65.5c0.2,0.1,0.4,0.2,0.6,0.3C384.3,65.6,384.1,65.5,383.9,65.5z"/>
				<path class="st6" d="M382.7,62.1c0.1,0.4,0.2,0.8,0.2,1.3C382.9,62.9,382.8,62.5,382.7,62.1z"/>
				<line class="st7" x1="419.5" y1="62.4" x2="419.5" y2="62.5"/>
				<path class="st8" d="M378.5,32L378.5,32c-0.7-1-1.7-1.5-2.8-1.7C376.8,30.4,377.8,31,378.5,32z"/>
				<path class="st8" d="M359.9,72.8c0.3-5.4-1-10.5-3.3-15.5c0.4,0.2,0.7,0.2,1,0.2c0.3,0,0.6,0,0.8-0.2c0.5-0.2,0.9-0.7,1.3-1.4
					l0,0l0,0c-0.1,0-0.1,0-0.2,0c-0.1,0.1-0.2,0.1-0.3,0.2c0,0-0.1,0-0.1,0c-0.2,0.1-0.4,0.1-0.6,0.1c-0.2,0-0.4,0-0.6-0.1
					c-0.4-0.1-0.8-0.2-1.2-0.3c-0.4-0.1-0.8-0.2-1.2-0.3c-0.2,0-0.4-0.1-0.6-0.1c-0.4-0.1-0.8-0.1-1.2-0.2c-0.2,0-0.4-0.1-0.6-0.1
					c-0.5-0.1-1-0.1-1.6-0.1c0-0.3,0.1-0.6,0.1-0.9c0-0.1,0-0.3,0-0.4c0-0.1,0-0.3,0-0.4c0-0.1,0-0.3,0-0.4c0,0,0,0,0,0
					c0-0.3-0.1-0.7-0.1-1c0-0.1,0-0.2-0.1-0.3c0-0.1,0-0.1,0-0.2c-0.1-0.2-0.1-0.4-0.2-0.6c0-0.1-0.1-0.3-0.1-0.4
					c-0.2-0.7-0.5-1.4-0.9-2.1c0.6,0,1.2,0.1,1.8,0.1c1,0.1,1.9,0.3,2.8,0.5c0.1,0,0.2,0.1,0.3,0.1c0.2,0.1,0.4,0.1,0.6,0.2
					c0.2,0.1,0.4,0.1,0.6,0.2c0.3,0.1,0.6,0.2,1,0.3c0.1,0,0.2,0.1,0.3,0.1c0.8,0.3,1.5,0.6,2,1.2c0.1,0.1,0.1,0.1,0.2,0.2
					c0,0,0,0,0,0c0,0,0.1,0.1,0.2,0.1l0,0l0,0c0,0,0,0,0,0c0,0,0,0,0,0c-0.2-0.3-0.4-0.7-0.6-1.1c-0.1-0.2-0.3-0.5-0.4-0.7
					c0.8,0.4,1.6,0.8,2.3,1.3c1.6,1,3,2.3,4.2,3.7c0.6,0.6,1.1,1.3,1.5,2c0.2,0.3,0.5,0.7,0.7,1c1.1,1.8,1.8,3.7,2.3,5.8
					c-0.2,0-0.4,0-0.5,0c-0.2,0-0.3,0-0.5,0l0,0c0.7,4.2,0.4,8.3,0,12.5c-2.7,0.2-5.4,0.4-8.2,0.6c-0.5,0-1.1,0.1-1.6,0.1
					c0.2-0.8,0.3-1.7,0.4-2.5C359.9,73.6,359.9,73.2,359.9,72.8z"/>
				<path class="st8" d="M370.8,54.6C370.8,54.6,370.9,54.6,370.8,54.6c0.8,0.3,1.5,0.6,2.2,0.8c0.1,0,0.2,0.1,0.4,0.1
					c0.1,0,0.2,0.1,0.4,0.1c0.2,0.1,0.5,0.1,0.7,0.2c0.2,0.1,0.5,0.1,0.7,0.1c0.2,0,0.3,0,0.5,0c0.1,0,0.1,0,0.2,0
					c0.2,0,0.4,0,0.5-0.1c0,0,0.1,0,0.1,0c0.3-0.1,0.5-0.4,0.5-0.9c0-0.1,0-0.1,0-0.2c0-0.1,0-0.2,0-0.4c0.2,0.1,0.5,0.3,0.7,0.6
					c0.1,0.1,0.3,0.3,0.4,0.5c0.1,0.1,0.2,0.3,0.3,0.4c0.8,1,1.5,2.4,2.1,3.8c0.1,0.1,0.1,0.3,0.2,0.4c0.1,0.1,0.1,0.3,0.2,0.4
					c0.1,0.4,0.3,0.8,0.4,1.1c0.4,1.2,0.5,2.2,0.4,2.8c-0.5-0.1-0.9-0.1-1.4-0.2c-0.9-0.1-1.8-0.2-2.8-0.3c-0.5-0.1-0.9-0.1-1.4-0.2
					c-0.9-3.2-2.5-6-4.6-8.5c-0.2-0.3-0.4-0.5-0.7-0.8C370.7,54.6,370.7,54.6,370.8,54.6C370.8,54.6,370.8,54.6,370.8,54.6z"/>
				<path class="st8" d="M388.9,21.2c0,0.2,0,0.4,0,0.6c0,0.3,0,0.6,0.1,1c-0.3-0.1-0.6-0.2-0.9-0.3c-0.9-0.3-1.8-0.6-2.6-0.9
					c0-0.3,0.1-0.5,0.1-0.8c0-1.1,0-2.2,0-3.3c0-0.7,0-1.3,0-2c0-0.8-0.3-1.3-1-1.7c-0.8-0.4-1.6-0.7-2.4-1c-0.1,0-0.1,0-0.2-0.1
					c-0.2-0.1-0.4-0.1-0.6-0.2c-0.1,0-0.2,0-0.3-0.1c-0.1,0-0.2,0-0.3-0.1c-0.3-0.1-0.5-0.1-0.8-0.2c-0.6-0.1-1.1-0.2-1.7-0.3
					c-0.1,0-0.1,0-0.2,0c-1-0.1-1.9-0.2-2.9-0.3c-0.2,0-0.4,0-0.6,0c-0.4,0-0.9,0-1.3,0c-0.2,0-0.4,0-0.7,0c0,0,0-0.1,0-0.1
					c0.5-0.1,1-0.2,1.4-0.2c0.3,0,0.5,0,0.8-0.1c0.3,0,0.6,0,0.9,0c1.4,0,2.7,0.2,4.1,0.3c0.8,0.1,1.6,0.3,2.4,0.5
					c0.4,0.1,0.7,0.2,1.1,0.3c0.2,0.1,0.5,0.1,0.7,0.2c0.1,0,0.1,0,0.2,0.1c0.1,0,0.2,0.1,0.3,0.1c1,0.3,1.9,0.7,2.7,1.3
					c0.3,0.2,0.6,0.4,0.8,0.7c0.1,0.1,0.1,0.2,0.2,0.4c0,0.2,0.1,0.4,0.1,0.5c0,0.1,0,0.1,0,0.2c0,0.1,0,0.2,0.1,0.3
					c0,0.1,0,0.3,0,0.4C388.7,17.9,388.8,19.5,388.9,21.2z"/>
				<path class="st8" d="M362.9,46.1c0-0.3,0.1-0.5,0.1-0.8c0.5,0.5,1,1,1.5,1.4c0.2,0.1,0.3,0.3,0.5,0.4c0.4,0.3,0.7,0.6,1.1,0.9
					c0.1,0.1,0.3,0.2,0.4,0.3c0.7,0.5,1.5,1,2.3,1.5c0.2,0.2,0.5,0.3,0.8,0.4c0.3,0.2,0.6,0.3,0.9,0.5c0.3,0.2,0.7,0.4,1,0.5
					c0,0,0,0,0,0c0.1,0,0.2,0.1,0.3,0.1c0.1,0,0.2,0.1,0.3,0.1c0.4,0.2,0.7,0.3,1.1,0.5c0.2,0.1,0.4,0.1,0.6,0.2
					c0.2,0.1,0.5,0.2,0.7,0.2c0.1,0,0.2,0,0.2,0.1c0.1,0,0.3,0.1,0.4,0.1c0,0,0.1,0,0.1,0c0.1,0,0.3,0.1,0.4,0.1
					c-0.1,0.2-0.1,0.3-0.2,0.5c-0.2,0.5-0.4,1-0.6,1.4c-0.3-0.1-0.5-0.1-0.8-0.2c-0.9-0.3-1.8-0.7-2.7-1.1c-0.4-0.2-0.9-0.4-1.3-0.7
					c-0.4-0.2-0.9-0.5-1.3-0.7c-0.1-0.1-0.2-0.1-0.3-0.2c-1-0.6-2-1.1-3-1.7c-0.4-0.2-0.7-0.4-1.1-0.6c-0.3-0.2-0.6-0.4-0.9-0.5
					c-0.3-0.2-0.6-0.4-0.9-0.5c0-0.3,0.1-0.5,0.1-0.8C362.8,47.2,362.9,46.7,362.9,46.1z"/>
				<path class="st8" d="M381.6,58.5c-0.1-0.1-0.1-0.3-0.2-0.4c1.5,0.5,3,1,4.4,1.5c0.2,0.1,0.4,0.1,0.6,0.2
					c-0.1,0.2-0.2,0.5-0.3,0.7c-0.1,0.2-0.2,0.5-0.3,0.7c-0.5,1.5-0.7,3-0.7,4.7c-0.1,0-0.2-0.1-0.2-0.1c-0.2-0.1-0.3-0.1-0.4-0.2
					c-0.2-0.1-0.4-0.2-0.6-0.3c-0.1-0.1-0.3-0.1-0.4-0.2c0-0.2,0-0.4-0.1-0.5c-0.1,0-0.2-0.1-0.3-0.1c0,0-0.1,0-0.1,0
					c0-0.4-0.1-0.9-0.2-1.3c-0.1-0.4-0.1-0.8-0.2-1.3c-0.1-0.3-0.1-0.6-0.2-0.8c-0.2-0.7-0.4-1.4-0.6-2
					C381.8,59,381.7,58.7,381.6,58.5z"/>
				<path class="st1" d="M359.9,72.8c0.3-5.4-1-10.5-3.3-15.5c0.4,0.2,0.7,0.2,1,0.2c0.3,0,0.6,0,0.8-0.2c0.5-0.2,0.9-0.7,1.3-1.4
					l0,0l0,0c-0.1,0-0.1,0-0.2,0c-0.1,0.1-0.2,0.1-0.3,0.2c0,0-0.1,0-0.1,0c-0.2,0.1-0.4,0.1-0.6,0.1c-0.2,0-0.4,0-0.6-0.1
					c-0.4-0.1-0.8-0.2-1.2-0.3c-0.4-0.1-0.8-0.2-1.2-0.3c-0.2,0-0.4-0.1-0.6-0.1c-0.4-0.1-0.8-0.1-1.2-0.2c-0.2,0-0.4-0.1-0.6-0.1
					c-0.5-0.1-1-0.1-1.6-0.1c0-0.3,0.1-0.6,0.1-0.9c0-0.1,0-0.3,0-0.4c0-0.1,0-0.3,0-0.4c0-0.1,0-0.3,0-0.4c0,0,0,0,0,0
					c0-0.3-0.1-0.7-0.1-1c0-0.1,0-0.2-0.1-0.3c0-0.1,0-0.1,0-0.2c-0.1-0.2-0.1-0.4-0.2-0.6c0-0.1-0.1-0.3-0.1-0.4
					c-0.2-0.7-0.5-1.4-0.9-2.1c0.6,0,1.2,0.1,1.8,0.1c1,0.1,1.9,0.3,2.8,0.5c0.1,0,0.2,0.1,0.3,0.1c0.2,0.1,0.4,0.1,0.6,0.2
					c0.2,0.1,0.4,0.1,0.6,0.2c0.3,0.1,0.6,0.2,1,0.3c0.1,0,0.2,0.1,0.3,0.1c0.8,0.3,1.5,0.6,2,1.2c0.1,0.1,0.1,0.1,0.2,0.2
					c0,0,0,0,0,0c0,0,0.1,0.1,0.2,0.1l0,0l0,0c0,0,0,0,0,0c0,0,0,0,0,0c-0.2-0.3-0.4-0.7-0.6-1.1c-0.1-0.2-0.3-0.5-0.4-0.7
					c0.8,0.4,1.6,0.8,2.3,1.3c1.6,1,3,2.3,4.2,3.7c0.6,0.6,1.1,1.3,1.5,2c0.2,0.3,0.5,0.7,0.7,1c1.1,1.8,1.8,3.7,2.3,5.8
					c-0.2,0-0.4,0-0.5,0c-0.2,0-0.3,0-0.5,0l0,0c0.7,4.2,0.4,8.3,0,12.5c-2.7,0.2-5.4,0.4-8.2,0.6c-0.5,0-1.1,0.1-1.6,0.1
					c0.2-0.8,0.3-1.7,0.4-2.5C359.9,73.6,359.9,73.2,359.9,72.8z"/>
				<path class="st1" d="M370.8,54.6C370.8,54.6,370.9,54.6,370.8,54.6c0.8,0.3,1.5,0.6,2.2,0.8c0.1,0,0.2,0.1,0.4,0.1
					c0.1,0,0.2,0.1,0.4,0.1c0.2,0.1,0.5,0.1,0.7,0.2c0.2,0.1,0.5,0.1,0.7,0.1c0.2,0,0.3,0,0.5,0c0.1,0,0.1,0,0.2,0
					c0.2,0,0.4,0,0.5-0.1c0,0,0.1,0,0.1,0c0.3-0.1,0.5-0.4,0.5-0.9c0-0.1,0-0.1,0-0.2c0-0.1,0-0.2,0-0.4c0.2,0.1,0.5,0.3,0.7,0.6
					c0.1,0.1,0.3,0.3,0.4,0.5c0.1,0.1,0.2,0.3,0.3,0.4c0.8,1,1.5,2.4,2.1,3.8c0.1,0.1,0.1,0.3,0.2,0.4c0.1,0.1,0.1,0.3,0.2,0.4
					c0.1,0.4,0.3,0.8,0.4,1.1c0.4,1.2,0.5,2.2,0.4,2.8c-0.5-0.1-0.9-0.1-1.4-0.2c-0.9-0.1-1.8-0.2-2.8-0.3c-0.5-0.1-0.9-0.1-1.4-0.2
					c-0.9-3.2-2.5-6-4.6-8.5c-0.2-0.3-0.4-0.5-0.7-0.8C370.7,54.6,370.7,54.6,370.8,54.6C370.8,54.6,370.8,54.6,370.8,54.6z"/>
				<path class="st1" d="M381.6,58.5c-0.1-0.1-0.1-0.3-0.2-0.4c1.5,0.5,3,1,4.4,1.5c0.2,0.1,0.4,0.1,0.6,0.2
					c-0.1,0.2-0.2,0.5-0.3,0.7c-0.1,0.2-0.2,0.5-0.3,0.7c-0.5,1.5-0.7,3-0.7,4.7c-0.1,0-0.2-0.1-0.2-0.1c-0.2-0.1-0.3-0.1-0.4-0.2
					c-0.2-0.1-0.4-0.2-0.6-0.3c-0.1-0.1-0.3-0.1-0.4-0.2c0-0.2,0-0.4-0.1-0.5c-0.1,0-0.2-0.1-0.3-0.1c0,0-0.1,0-0.1,0
					c0-0.4-0.1-0.9-0.2-1.3c-0.1-0.4-0.1-0.8-0.2-1.3c-0.1-0.3-0.1-0.6-0.2-0.8c-0.2-0.7-0.4-1.4-0.6-2
					C381.8,59,381.7,58.7,381.6,58.5z"/>
				<path class="st8" d="M380.3,69.3c-0.1-1.2-0.2-2.3-0.3-3.5c0.3,0,0.7,0.1,1,0.1c0.2,0,0.3,0,0.5,0c0.2,0,0.3,0,0.5,0
					c0,0.9,0,1.8-0.1,2.6c0,0.1,0,0.2,0,0.3c0,0.6-0.1,1.2-0.2,1.7c-0.5-0.1-0.9-0.1-1.3-0.2C380.3,70,380.3,69.7,380.3,69.3z"/>
				<path class="st8" d="M324.5,74.9c0.3,0.1,0.6,0.3,1,0.4c0.1,0,0.2,0.1,0.2,0.1c0,0,0.1,0.1,0.1,0.1c0.1,0.1,0.1,0.3,0,0.5
					c0,0.1-0.1,0.2-0.1,0.3c-0.1,0.1-0.1,0.3-0.2,0.4c-0.1,0.1-0.1,0.3-0.2,0.4c-0.1,0.3-0.2,0.5-0.3,0.8c-0.1,0.1-0.1,0.3-0.2,0.4
					c-0.3,0-0.6-0.1-0.8-0.2c-0.1,0-0.2-0.1-0.3-0.1c0,0-0.1,0-0.1-0.1c-0.3-0.1-0.6-0.3-0.8-0.6c0.3-0.9,0.7-1.7,1-2.6
					c0.1,0,0.2,0.1,0.3,0.1c0,0,0,0,0.1,0C324.4,74.9,324.5,74.9,324.5,74.9z"/>
				<path class="st8" d="M380.3,71.7c0.2,0,0.4,0,0.6,0.1c0.2,0,0.3,0,0.5,0.1c0,1.3-1.9,8.8-2.4,9.8c0.2-0.8,0.4-1.6,0.5-2.4
					c0-0.2,0.1-0.4,0.1-0.6c0.3-1.6,0.5-3.3,0.6-5c0-0.2,0-0.4,0-0.6C380.3,72.5,380.3,72.1,380.3,71.7z"/>
				<path class="st8" d="M324.3,80c-0.1,0.1-0.1,0.3-0.2,0.4c-0.1,0.2-0.2,0.4-0.3,0.5c-0.5-0.2-0.9-0.4-1.3-0.5
					c-0.4-0.2-0.5-0.4-0.4-0.7c0.2-0.6,0.5-1.3,0.7-1.8c0.7,0.3,1.4,0.6,2.1,0.9C324.6,79.1,324.5,79.6,324.3,80z"/>
				<path class="st8" d="M389.5,25c-0.3-0.1-0.6-0.3-0.9-0.4c-0.1-0.1-0.3-0.1-0.4-0.2c-0.3-0.2-0.5-0.3-0.8-0.5
					c-0.1-0.1-0.2-0.1-0.2-0.2c-0.2-0.2-0.4-0.3-0.6-0.5c-0.1-0.1-0.2-0.1-0.3-0.2c-0.2-0.1-0.3-0.3-0.5-0.4c0,0,0-0.1,0-0.1
					c0,0,0.1,0,0.1,0.1c0.1,0,0.2,0.1,0.2,0.1c0,0,0.1,0,0.1,0c0.5,0.1,0.9,0.3,1.3,0.5c0.5,0.3,1,0.6,1.4,0.9
					c0.3,0.2,0.6,0.4,1,0.6c0.3,0.2,0.6,0.4,1,0.6c0.5,0.3,1,0.6,1.4,0.9c0,0,0,0,0,0c0,0,0,0,0,0c0,0,0,0,0,0c0,0,0,0,0,0
					c0,0,0,0,0,0c0,0.1,0.1,0.1,0.1,0.2c0,0,0,0,0,0c-0.1-0.1-0.2-0.1-0.3-0.2c-0.3-0.2-0.6-0.3-0.9-0.5c0,0-0.1,0-0.1-0.1
					c-0.1,0-0.2-0.1-0.2-0.1c-0.4-0.2-0.7-0.4-1.1-0.6C389.8,25.1,389.6,25,389.5,25z"/>
				<path class="st8" d="M373.2,67.9C373.2,67.9,373.2,67.9,373.2,67.9C373.2,67.9,373.2,67.9,373.2,67.9
					C373.2,67.9,373.2,67.9,373.2,67.9C373.2,67.9,373.2,67.9,373.2,67.9C373.2,67.9,373.2,67.9,373.2,67.9L373.2,67.9z"/>
				<polygon class="st8" points="351.2,111.3 351.2,111.3 351.2,111.3 351.2,111.3 351.2,111.3 				"/>
				<path class="st8" d="M392.5,26.6C392.5,26.6,392.5,26.6,392.5,26.6C392.6,26.6,392.6,26.5,392.5,26.6c0.1,0,0.1,0,0.1,0
					c0,0,0,0,0,0c0,0,0,0,0,0H392.5z"/>
				<path class="st8" d="M393,26.7L393,26.7L393,26.7z"/>
				<polygon class="st8" points="393.1,26.8 393.1,26.8 393.1,26.8 393.1,26.8 				"/>
				<polygon class="st8" points="393,26.7 393.1,26.8 393.1,26.8 393.1,26.8 				"/>
				<path class="st8" d="M393,26.7C393,26.7,393,26.7,393,26.7C393,26.7,393,26.7,393,26.7C393,26.7,393,26.7,393,26.7z"/>
				<path class="st8" d="M393.1,26.8C393.1,26.8,393.1,26.8,393.1,26.8C393.1,26.8,393.1,26.8,393.1,26.8
					C393.1,26.8,393.1,26.8,393.1,26.8C393.1,26.8,393.1,26.8,393.1,26.8z"/>
				<polygon class="st8" points="368.6,99.6 368.6,99.6 368.6,99.5 368.6,99.5 				"/>
				<path class="st9" d="M372,40.3c-0.1,0.2-0.2,0.4-0.2,0.6c-0.4,0-0.6-0.1-0.7-0.5c-0.1-0.7,0.2-1.3,0.8-1.6
					c0.8-0.5,1.6-0.3,2.4-0.2c-0.7,0.3-1.5,0.3-2,1.1c2.3,1.6,4.6,2.9,7.4,3.5c1.3,0.2,2.5,0.3,3.8,0c0.4-0.1,0.9-0.2,1.3-0.4
					c-0.3,0.4-1.6,1.1-2.2,1.3c-1.8,0.6-3.5,0.3-5.2-0.3c-1.4-0.5-2.6-1.3-3.8-2.2C373,41.1,372.5,40.7,372,40.3z"/>
				<path class="st9" d="M370.7,34c1.1-0.7,2.3-0.6,3.5-0.7c-0.9-1-1-1.7-0.3-2.4c0.6-0.5,1.8-0.5,2.2,0.1c-0.7,0.7-0.7,1,0.3,1.6
					c-0.3,0.2-0.5,0.5-0.8,0.7c1.1,0.2,2.3,0.5,3.3,1.1C376.2,33.8,373.4,33.8,370.7,34z"/>
				<path class="st9" d="M378.5,32c-0.7-1-1.7-1.5-2.8-1.7c-0.2,0-0.3,0-0.5-0.1c-1.4-0.1-2.5,0.5-3.3,1.7c0,0-0.1-0.1-0.1-0.1
					c0.1-0.2,0.2-0.5,0.3-0.7c0.5-1,1.3-1.7,2.4-1.8c1.3-0.2,2.5,0.2,3.5,1c0.1,0.1,0.2,0.2,0.3,0.3C378.5,31,378.6,31.6,378.5,32
					L378.5,32z"/>
				<path class="st9" d="M361.8,35.2c-0.6,0.6-0.1,1.1-0.1,1.7c-0.6-0.4-1-1.5-0.7-2.1c0.1-0.2,0.3-0.2,0.5-0.3c0.1,0,0.2,0,0.4,0
					c-0.3-0.9-0.8-1.6-1.5-2.3c-0.2,0.2-0.5,0.3-0.6,0.5c-0.1,0.2-0.2,0.5-0.3,0.7c-0.4-0.6-0.1-1.6,0.5-1.8
					c0.3-0.1,0.5-0.1,0.8,0.1c0.7,0.6,1.2,1.3,1.5,2.2c0.2,0.5,0.3,1,0.3,1.5C362.2,35.3,362,35.2,361.8,35.2z"/>
				<path class="st9" d="M386.1,36.1C386.1,36.1,386.1,36.1,386.1,36.1C386.1,36,386.1,36,386.1,36.1
					C386.1,36.1,386.1,36.1,386.1,36.1z"/>
				<polygon class="st9" points="375.8,44 375.8,44 375.8,44 				"/>
				<line class="st7" x1="375.8" y1="44" x2="375.8" y2="44"/>
				<path class="st0" d="M326.5,110.7c-0.3,2.4-0.4,4.9-0.4,7.3c0,1,0,2,0.3,3c0,0.2,0.1,0.3,0.1,0.5c0.8,0.2,1.6,0.2,2.4,0.1
					c3.3-0.4,5.6-2.2,7.5-4.7c0.6-0.8,1.1-1.8,1.7-2.7c0.1-0.1,0.1-0.2,0.2-0.3c1,0.1,1.9,0.1,2.8,0.2c1.8,0.1,3.5,0,5.3-0.3
					c1.8-0.2,3.5-0.6,5.2-1.2c1.5-0.5,3-1.1,4.4-1.7c1.9-0.8,3.7-1.9,5.5-3c1.9-1.2,3.6-2.6,5.3-4.2c1.8-1.7,3.5-3.6,5-5.6
					c0-0.1,0.1-0.1,0.2-0.2c0.9,0.3,1.9,0.7,2.8,1c1.6,0.6,3.1,1.3,4.6,2.2c7.5,4.4,13.6,11.7,18.8,21.9c0.8-0.3,1.6-0.6,2.4-1
					c0.1,0,0.3-0.1,0.4-0.2c0.3-0.1,0.6-0.3,1-0.4c0,0,0,0,0,0.1c0.1,0,0.1,0,0.2,0c0,0,0-0.1,0-0.1c0,0-0.1,0-0.1,0
					c0.2-0.1,0.3-0.1,0.5-0.2c0,0,0.1,0.1,0.1,0.1c0.7-0.4,1.5-0.7,2.2-1.1c1.6-0.9,3.2-1.9,4.7-3c0.1-0.1,0.3-0.2,0.4-0.3
					c0.1-0.1,0.2-0.1,0.3-0.2c0,0,0.1,0,0.1-0.1l0,0c1.6-1.2,3.2-2.4,4.7-3.7c2-1.7,3.9-3.4,5.6-5.4c0.9-1,1.7-2.1,2.2-3.4
					c0-0.1,0.1-0.2,0.1-0.4c-0.6-0.3-1.2-0.7-1.8-0.9c-1.2-0.5-2.5-0.8-3.8-1.1c-1.6-0.3-3.2-0.4-4.8-0.3c-1.1,0.1-2.3,0.2-3.4,0.3
					c-0.1,0-0.1,0-0.2,0c-0.5-0.5-1-1.1-1.5-1.6c0,0,0,0-0.1,0.1c-0.1-0.1-0.2-0.2-0.3-0.3c0,0,0,0,0,0c-0.2-0.6-0.8-0.8-1.2-1.4
					c0,0-0.1,0.1-0.1,0.1c-0.1-0.1-0.2-0.2-0.3-0.3c0,0,0.1-0.1,0.1-0.1c-0.3-0.3-0.5-0.5-0.8-0.7c0,0-0.1,0.1-0.1,0.1
					c-0.1-0.1-0.2-0.2-0.3-0.3c0,0,0.1-0.1,0.1-0.1c-0.2-0.1-0.3-0.2-0.4-0.3c0,0-0.1,0-0.1,0.1c-0.1-0.1-0.2-0.2-0.3-0.3
					c0,0,0.1-0.1,0.1-0.1c-0.3-0.3-0.5-0.5-0.8-0.7c0,0-0.1,0.1-0.1,0.1c-0.1-0.1-0.2-0.2-0.3-0.2c0,0,0-0.1,0.1-0.1
					c-0.2-0.2-0.3-0.3-0.6-0.5c0,0,0,0.1-0.1,0.1c-0.1-0.1-0.2-0.2-0.3-0.3c0,0,0,0,0-0.1c-0.3-0.2-0.5-0.4-0.8-0.6c0,0,0,0,0,0
					c-0.1-0.1-0.2-0.2-0.3-0.3c-0.2-0.2-0.5-0.4-0.7-0.7c0,0,0,0,0,0.1c-0.4-0.3-0.8-0.7-1.3-1c0,0,0,0,0,0
					c-0.2-0.1-0.4-0.2-0.5-0.4c0,0,0,0,0,0c-0.3-0.2-0.6-0.5-0.9-0.7c0,0-0.1-0.1-0.1-0.1c0,0,0,0,0,0c-0.6-0.4-1.2-0.8-1.8-1.2
					c-0.1,0-0.1-0.1-0.2-0.1c0,0,0,0,0,0c-0.4-0.2-0.8-0.5-1.1-0.7c0,0,0,0,0,0c0,0,0,0,0,0c-2.5-1.5-5.1-3-8-4.3
					c-1.8-0.8-3.5-1.5-5.4-2.2c1.7-5.2,3.1-10.5,3.3-16.1c4.5,1.8,9,2.5,13.7,2c1.2-0.1,2.4-0.3,3.4-0.6l0,0
					c2.2-0.5,4.4-1.4,6.4-2.5c1.5-0.8,2.9-1.8,4.1-3c0.1-0.1,0.3-0.2,0.5-0.3c1.5-0.2,3-0.6,4.5-1.3c0.6,1.1,1.3,2.2,1.9,3.3
					c0.9,1.6,2.9,2.3,4.6,1.3c0.4-0.2,0.7-0.4,1-0.7l0,0c0.1,0,0.1-0.1,0.2-0.1c0,0,0,0,0,0c0.1-0.1,0.2-0.2,0.3-0.3c0,0,0,0,0,0
					c0,0,0.1-0.1,0.1-0.1c0,0,0-0.1,0.1-0.1c0,0,0,0,0,0c0.3-0.5,0.4-1,0.5-1.5c0,0,0-0.2,0-0.4c0,0,0-0.1,0-0.1c0,0,0-0.1,0-0.1
					c0,0,0,0,0,0c0-0.1,0-0.2,0-0.2c-0.2-0.8-0.7-1.5-1.1-2.2c-0.5-0.8-1-1.7-1.5-2.6c0.8-0.6,0.4-1.3,0.3-2c-0.4-2.7-1.6-5-3.1-7.2
					c-0.1-0.1-0.2-0.2-0.3-0.4c0.2-0.2,0.4-0.4,0.5-0.6c0-2.2-2.4-4.9-4.1-5.4c-0.5,0.3-1.1,0.6-1.7,0.9c-0.3-0.5-0.6-1-0.9-1.6
					c-0.5-0.9-1-1.8-1.5-2.6c-0.2-0.3-0.2-0.5-0.1-0.7c1.2-2.7,0.3-5.7-1.9-7.4c-1.5-1.2-3.2-1.5-5.2-1.3c0.9,1.5,1.7,3,2.6,4.5
					c-0.3,0.7-0.7,1.4-1.1,2.1c-0.8-0.1-1.6-0.1-2.4-0.1c-0.9-1.5-1.7-3-2.6-4.5c-1.5,1.8-2,3.8-1.4,5.9c0.7,2.4,2.5,4.3,5.7,4.7
					c0.6,1.1,1.2,2.1,1.8,3.2c-2.4,2.7-3.3,5.8-2.7,9.4c-1,0.7-2,1.3-3,2c-1.2,0.7-2.5,1.3-3.9,1.7c-1.3,0.4-2.6,0.7-3.9,0.8
					c-2,0.2-4,0-6-0.4c-2.5-0.5-4.8-1.5-7-2.8c-0.3-0.1-0.4-0.4-0.6-0.6c-0.6-0.6-1.2-1.1-1.8-1.7c0,0-0.1-0.1-0.1-0.2
					c1.1,0.1,2.2,0.2,3.3,0.2c1.5,0.1,2.9,0.1,4.4-0.2c0.2,0,0.5-0.2,0.7-0.3c0.9-0.8,1.6-1.8,2.2-2.8c0.1-0.2,0.1-0.4,0.1-0.6
					c-0.1-3.7-0.2-7.4-0.4-11.1c-0.1-1.1,0.1-2.1,0.5-3.1c0.5-1.3,1-2.7,1.5-4.1c0.2,0,0.5-0.1,0.7-0.1c1.2-0.1,2.3-0.3,3.4-0.7
					c0.7-0.2,1.4-0.6,2.1-0.9c0.3-0.1,0.5-0.4,0.8-0.7c-0.3-0.3-0.5-0.6-0.7-0.8c-1-1-2.2-1.9-3.3-2.7c-0.7-0.5-1.5-1-2.3-1.5
					c0-0.4-0.1-0.8-0.1-1.3c-0.1-1.5-0.2-3-0.3-4.5c-0.1-1.3-0.2-2.6-0.6-3.8c-0.1-0.2-0.2-0.4-0.3-0.6c-1.1-1.2-2.3-2.1-3.7-2.9
					c-1.1-0.6-2.3-1.1-3.5-1.5c-1.4-0.4-2.9-0.7-4.4-0.9c-1.6-0.2-3.3-0.2-4.9-0.1c-1.8,0.1-3.5,0.4-5.2,0.9
					c-2.2,0.6-4.3,1.4-6.3,2.7c-1.7,1.1-3.1,2.4-4,4.3c-0.2,0.3-0.3,0.7-0.3,1c0.1,2.4,0.3,4.8,0.4,7.2c0,0.6,0,1.2-0.1,1.8
					c-0.1,1-0.1,2-0.2,3c-0.5,0.2-0.6,0.7-0.6,1.2c0,0.8,0.1,1.7,0.2,2.5c0.2,1.1,0.6,2.2,1.2,3.2c0.5,0.9,1.2,1.5,2.1,1.8
					c0.2,0.1,0.3,0.1,0.5,0.2c0.1,0.4,0.2,0.9,0.3,1.4c0.2,1.1,0.5,2.2,0.7,3.4c0,0.2,0.1,0.4,0,0.6c-0.2,1.4-0.3,2.8-0.5,4.2
					c0,0.1,0,0.1-0.1,0.2c-0.1,0-0.2,0-0.3,0c-1.3,0-2.7,0-4,0c-0.8,0-1.5-0.2-2.3-0.4c-1.6-0.3-3.3-0.5-5-0.6l0,0
					c-1.4-0.1-2.9,0-4.3,0.2c-0.2,0-0.3,0-0.5,0.1c-0.1,0-0.3,0.1-0.4,0.1c-0.9,0.2-1.8,0.3-2.7,0.6l0,0c-0.1,0-0.1,0-0.2,0.1
					c-1.3,0.3-2.6,0.8-3.9,1.5c-2.9,1.5-5.2,3.6-7,6.3c-0.9,1.2-1.6,2.5-2.5,3.7c-0.3,0.5-0.8,0.9-1.3,1.3c-0.9,1-1.8,1.9-2.7,2.9
					c-0.1,0.1-0.2,0.2-0.3,0.3c-0.3-0.1-0.7-0.2-1-0.3c-0.6-0.1-1.1,0.1-1.4,0.7c-0.2,0.5-0.4,1.1-0.5,1.6c-0.1,0.2-0.1,0.4-0.2,0.7
					c-0.4-0.2-0.8-0.4-1.2-0.5c-0.5-0.2-0.9-0.3-1.4-0.4c-1.8-0.3-3.1,0.4-4.2,1.7c-0.1,0.1-0.3,0.3-0.3,0.5
					c-0.1,0.2-0.2,0.5-0.3,0.7c0,0,0.1,0,0.1,0c-0.1,0.1-0.2,0.3-0.3,0.4c0,0.2,0,0.3,0,0.5c-0.2,0-0.3,0-0.5,0.1
					c-0.3,0.6-0.6,1.3-0.8,2c-0.4,1.1-0.8,2.2-1.2,3.4c-0.5,1.5-1,2.9-1.5,4.4c-0.1,0.3-0.2,0.7-0.4,1.1c8.1,4.2,16.1,8.4,24.2,12.6
					c0.7-0.2,1.3-0.4,2-0.5c0,0,0,0,0,0l5.3-1.4c0.3-0.7,0.5-1.4,0.8-2.1c0.3-0.9,0.6-1.9,0.9-2.8c0.5-1.5,1-2.9,1.4-4.4
					c0.3-1.2,0.4-2.4-0.1-3.6c-0.4-1.1-1.3-1.8-2.3-2.3c-0.8-0.4-1.6-0.7-2.4-1.1c-0.1,0-0.1-0.1-0.2-0.1c0.3-1.4,0.5-2.8,0.8-4.2
					c-0.2-0.1-0.3-0.2-0.5-0.3c-0.1-0.9-0.1-1.8-0.2-2.6c-0.1-0.7-0.1-1.4-0.2-2.2c0-0.2,0-0.4,0.1-0.5c1.4-2.3,3-4.3,5.3-5.8
					c1.5-1,3.2-1.7,5.1-2c1.9-0.3,3.7-0.2,5.6,0.1c0.1,0.1,0.2,0.2,0.2,0.4c1.7,3.7,3,7.5,3.4,11.5c0.3,2.7,0.2,5.3-0.4,7.9
					c-0.1,0-0.1,0-0.2,0.1c-0.1,0-0.1,0-0.2,0c-0.5,1.6-0.9,3.2-1.4,4.7c0,0-2.5,7.8-1,11.3c-0.5,0.3-0.9,0.6-1.4,0.9
					c-1.5,0.9-3,1.6-4.7,2.1c-1.6,0.5-3.2,0.8-4.8,1l-1.4,0.2c-2.5,0.2-5,0.2-7.4,0c-0.2,0.4-0.5,0.8-0.7,1.2
					c-1.7-0.1-3.4-0.5-5.1-0.4c-0.6,0.9-0.9,1.9-1.1,2.9c-0.3,1-0.5,2-0.7,3c-0.2,1.2-0.4,2.5-0.6,3.7
					C326.8,108.5,326.6,109.6,326.5,110.7z M393.1,26.8C393.1,26.8,393.1,26.8,393.1,26.8C393.1,26.8,393.1,26.8,393.1,26.8
					C393.1,26.8,393.1,26.8,393.1,26.8C393.1,26.8,393.1,26.8,393.1,26.8L393.1,26.8z M393.1,26.8L393.1,26.8L393.1,26.8
					C393,26.7,393,26.7,393.1,26.8C393,26.7,393,26.7,393.1,26.8C393,26.7,393,26.7,393.1,26.8L393.1,26.8L393.1,26.8L393.1,26.8z
					 M322.7,77.8c0.7,0.3,1.4,0.6,2.1,0.9c-0.2,0.4-0.4,0.8-0.5,1.2c-0.1,0.1-0.1,0.3-0.2,0.4c-0.1,0.2-0.2,0.4-0.3,0.5v0
					c-0.5-0.2-0.9-0.4-1.3-0.5c-0.4-0.2-0.5-0.4-0.4-0.7C322.3,79,322.5,78.4,322.7,77.8z M324.3,74.9
					C324.3,74.9,324.3,74.9,324.3,74.9c0.1,0,0.2,0.1,0.3,0.1c0.3,0.1,0.6,0.3,1,0.4c0.1,0,0.2,0.1,0.2,0.1c0,0,0.1,0.1,0.1,0.1
					c0.1,0.1,0.1,0.3,0,0.5c0,0.1-0.1,0.2-0.1,0.3c-0.1,0.1-0.1,0.3-0.2,0.4c-0.1,0.1-0.1,0.3-0.2,0.4c-0.1,0.3-0.2,0.5-0.3,0.8
					c-0.1,0.1-0.1,0.3-0.2,0.4l0,0c-0.3,0-0.6-0.1-0.8-0.2c-0.1,0-0.2-0.1-0.3-0.1c0,0-0.1,0-0.1-0.1c-0.3-0.1-0.6-0.3-0.8-0.6
					c0.3-0.9,0.7-1.7,1-2.6l0,0C324.1,74.8,324.2,74.8,324.3,74.9z M349.5,48.2c1.1,2.1,1.8,4.3,1.5,6.8c-0.3,0-0.7,0.1-1,0.1
					c-3,0.1-5.7,1.2-8.1,3.1c-2,1.6-3.5,3.6-4.8,5.9c-0.2,0.4-0.2,1-0.3,0.8H336v3.5c-0.1,0-0.2,0-0.3-0.1c-0.6-0.3-1.3-0.1-1.6,0.5
					c-0.3,0.6-0.5,1.3-0.6,2c0.6,0.3,1.2,0.6,1.8,0.9c-0.1,0.2-0.2,0.4-0.3,0.7c-0.9,0.3-1.8,0.7-2.8,1c-0.1,0-0.2,0-0.3,0
					c-0.6-0.2-1.2-0.5-1.8-0.7c-0.3-0.1-0.5-0.4-0.6-0.7c-0.2-0.6-0.4-1.1-0.6-1.7c0-0.1-0.1-0.2-0.2-0.3c-0.1,0.3-0.2,0.5-0.3,0.8
					c-1.3-0.7-2.5-1.3-3.8-2c-0.2-1.1-0.3-2.2-0.5-3.2c0.7-0.8,1.4-1.6,2.2-2.4c0.9-0.9,1.8-1.8,2.7-2.7c0.4-0.4,0.6-0.9,0.9-1.4
					c1.5-2.4,3.3-4.7,5.5-6.5c1.4-1.1,2.8-1.9,4.5-2.5c0.7-0.3,1.5-0.5,2.2-0.8c2-0.5,4.1-0.8,6.1-0.9H349.5z M388.9,21.2
					c0,0.2,0,0.4,0,0.6c0,0.3,0,0.6,0.1,1v0c-0.3-0.1-0.6-0.2-0.9-0.3c-0.9-0.3-1.8-0.6-2.6-0.9c0-0.3,0.1-0.5,0.1-0.8
					c0-1.1,0-2.2,0-3.3c0-0.7,0-1.3,0-2c0-0.8-0.3-1.3-1-1.7c-0.8-0.4-1.6-0.7-2.4-1c-0.1,0-0.1,0-0.2-0.1c-0.2-0.1-0.4-0.1-0.6-0.2
					c-0.1,0-0.2,0-0.3-0.1c-0.1,0-0.2,0-0.3-0.1c-0.3-0.1-0.5-0.1-0.8-0.2c-0.6-0.1-1.1-0.2-1.7-0.3c-0.1,0-0.1,0-0.2,0
					c-1-0.1-1.9-0.2-2.9-0.3c-0.2,0-0.4,0-0.6,0c-0.4,0-0.9,0-1.3,0c-0.2,0-0.4,0-0.7,0l0-0.1c0.5-0.1,1-0.2,1.4-0.2
					c0.3,0,0.5,0,0.8-0.1c0.3,0,0.6,0,0.9,0c1.4,0,2.7,0.2,4.1,0.3c0.8,0.1,1.6,0.3,2.4,0.5c0.4,0.1,0.7,0.2,1.1,0.3
					c0.2,0.1,0.5,0.1,0.7,0.2c0.1,0,0.1,0,0.2,0.1c0.1,0,0.2,0.1,0.3,0.1c1,0.3,1.9,0.7,2.7,1.3c0.3,0.2,0.6,0.4,0.8,0.7
					c0.1,0.1,0.1,0.2,0.2,0.4c0,0.2,0.1,0.4,0.1,0.5c0,0.1,0,0.1,0,0.2c0,0.1,0,0.2,0.1,0.3c0,0.1,0,0.3,0,0.4
					C388.7,17.9,388.8,19.5,388.9,21.2z M392.7,26.6L392.7,26.6h-0.2c0,0,0,0,0,0c0,0,0,0,0,0C392.6,26.5,392.7,26.5,392.7,26.6
					L392.7,26.6C392.7,26.5,392.7,26.5,392.7,26.6C392.7,26.5,392.7,26.5,392.7,26.6z M389.9,25.2c-0.1-0.1-0.3-0.1-0.4-0.2
					c-0.3-0.1-0.6-0.3-0.9-0.4c-0.1-0.1-0.3-0.1-0.4-0.2c-0.3-0.2-0.5-0.3-0.8-0.5c-0.1-0.1-0.2-0.1-0.2-0.2
					c-0.2-0.2-0.4-0.3-0.6-0.5c-0.1-0.1-0.2-0.1-0.3-0.2c-0.2-0.1-0.3-0.3-0.5-0.4c0,0,0-0.1,0-0.1v0c0,0,0.1,0,0.1,0.1
					c0.1,0,0.2,0.1,0.2,0.1c0,0,0.1,0,0.1,0c0.5,0.1,0.9,0.3,1.3,0.5c0.5,0.3,1,0.6,1.4,0.9c0.3,0.2,0.6,0.4,1,0.6
					c0.3,0.2,0.6,0.4,1,0.6c0.5,0.3,1,0.6,1.4,0.9c0,0,0,0,0,0c0,0,0,0,0,0c0,0,0,0,0,0c0,0,0,0,0,0c0,0,0,0,0,0
					c0,0.1,0.1,0.1,0.1,0.2c0,0,0,0,0,0v0c-0.1-0.1-0.2-0.1-0.3-0.2c-0.3-0.2-0.6-0.3-0.9-0.5c0,0-0.1,0-0.1-0.1
					c-0.1,0-0.2-0.1-0.2-0.1C390.6,25.5,390.3,25.4,389.9,25.2z M375,51c-0.9-0.2-1.8-0.5-2.7-0.9c-1.9-1-3.8-2.1-5.6-3.4
					c-0.9-0.7-1.7-1.4-2.5-2.2c-0.8-0.7-1.1-1.7-1.3-2.7c-0.3-1.2-0.5-2.4-0.7-3.6c0.4-0.1,0.8-0.1,1.2-0.2c0,0,0-0.1,0-0.1
					c-0.1-0.1-0.2-0.1-0.3-0.2c-0.7-0.2-1.3-0.4-2-0.6c-0.8-0.3-1.5-0.8-1.9-1.6c-0.2-0.4-0.3-0.7-0.5-1.1c-0.4-1-0.7-2.1-0.7-3.3
					c0-0.9,0.3-1.1,1.2-0.9c1.2,0.2,2.2,0.7,3.2,1.3c0.5,0.3,1.1,0.6,1.4,1.1c0,1,0.1,2,0.1,3.1c0.6-0.2,1.1-0.3,1.7-0.5
					c0.1-1.8,0.1-3.6,0.1-5.1c0.5-1.1,1-2.1,1.4-3c1.1,0.9,2.3,1.8,3.9,1.6c-0.1,0.2-0.2,0.4-0.3,0.6c-0.1,0.2-0.2,0.3-0.2,0.5
					c0,0,0,0.1,0.1,0.1c3.3-2.4,6.5-2.4,9.4,0.7c0.2-1,0.5-1.9,0.7-2.9c-1.3-1-2.8-1.4-4.4-1.6c1.9-0.7,3.7-1,5.3-1.1l0,0
					c2.2-0.1,4.4,0.2,6.5,0.9c0.4,0.1,0.8,0.3,1.1,0.5c-0.2,1.2-0.4,2.3-0.6,3.5c-0.2-1.2-0.8-1.7-2.3-2c-0.3-0.1-0.6-0.1-0.9,0
					c-1.4,0-2.1,0.5-2.1,0.6c0,0.1-0.2,0.8-0.3,1.4c0,0,0,0.1,0,0.1c-0.1,0.3-0.1,0.6-0.2,0.9c0,0.2-0.1,0.3-0.1,0.3h0
					c-0.2,1.3-0.5,2.5-0.7,3.8c0,0.1,0,0.3,0,0.4c0.4,1,0.7,1.9,1.1,2.9c0.1,0.3,0.2,0.7,0.4,1c-0.8,0.4-1.6,0.7-2.4,0.7
					c-0.8,0-1.6-0.3-2.6-0.4c1,0.6,1.9,1.1,2.9,1.1c1.2,0,2.3-0.3,3.3-1.1c-0.7-1.4-1.3-2.8-1.9-4.2c0.8,0,1.5,0.1,2.2,0.3
					c0.3,0.1,0.7,0.2,1,0.3c-0.5-0.3-1-0.7-1.5-1c0.1-0.2,0.2-0.4,0.3-0.6c-0.2-0.2-0.4-0.3-0.6-0.4v-0.6c0.2-0.1,0.3-0.3,0.4-0.4
					c-0.2-0.2-0.4-0.3-0.6-0.5c0.6-0.1,1.1-0.1,1.5,0.3c0.4,0.3,0.7,0.7,1,1.1c0.1-0.6-0.1-1.1-0.4-1.5c-0.8-0.9-1.9-1-3.1-0.7
					c0-0.3,0-0.5,0.1-0.7l0,0l0,0c0,0,0-0.1,0-0.1c0,0,0,0,0,0c0,0,0.1-0.1,0.1-0.2c0.1-0.2,0.4-0.4,1-0.6c1.2-0.5,3.7,0.9,3.7,0.9
					l-0.2,1.2c-0.3,1-0.6,2-0.9,3c-0.2,0.6-0.3,1.1-0.3,1.7c0,3.9,0.1,7.8,0.1,11.7c0,0.5,0,0.9-0.4,1.4c-0.5,0.6-0.9,1.2-1.3,1.7
					c-0.8,0.1-1.5,0.2-2.2,0.1c-1.6-0.1-3.1-0.2-4.7-0.4C377.1,51.4,376,51.2,375,51z M362.6,48.5c0-0.3,0.1-0.5,0.1-0.8
					c0.1-0.5,0.1-1.1,0.2-1.6c0-0.3,0.1-0.5,0.1-0.8v0c0.5,0.5,1,1,1.5,1.4c0.2,0.1,0.3,0.3,0.5,0.4c0.4,0.3,0.7,0.6,1.1,0.9
					c0.1,0.1,0.3,0.2,0.4,0.3c0.7,0.5,1.5,1,2.3,1.5c0.2,0.2,0.5,0.3,0.8,0.4c0.3,0.2,0.6,0.3,0.9,0.5c0.3,0.2,0.7,0.4,1,0.5
					c0,0,0,0,0,0c0.1,0,0.2,0.1,0.3,0.1c0.1,0,0.2,0.1,0.3,0.1c0.4,0.2,0.7,0.3,1.1,0.5c0.2,0.1,0.4,0.1,0.6,0.2
					c0.2,0.1,0.5,0.2,0.7,0.2c0.1,0,0.2,0,0.2,0.1c0.1,0,0.3,0.1,0.4,0.1c0,0,0.1,0,0.1,0c0.1,0,0.3,0.1,0.4,0.1l0,0
					c-0.1,0.2-0.1,0.3-0.2,0.5c-0.2,0.5-0.4,1-0.6,1.4v0c-0.3-0.1-0.5-0.1-0.8-0.2c-0.9-0.3-1.8-0.7-2.7-1.1
					c-0.4-0.2-0.9-0.4-1.3-0.7c-0.4-0.2-0.9-0.5-1.3-0.7c-0.1-0.1-0.2-0.1-0.3-0.2c-1-0.6-2-1.1-3-1.7c-0.4-0.2-0.7-0.4-1.1-0.6
					c-0.3-0.2-0.6-0.4-0.9-0.5C363.2,48.9,362.9,48.7,362.6,48.5L362.6,48.5z M412.4,43.4c-0.1,0.1-0.2,0.1-0.3,0.2l0,0
					c-0.2,0.4-0.6,0.6-1,0.8l0,0c-0.7,0.5-1.3,1-2,1.5c-0.2-0.2-0.4-0.3-0.6-0.6c-0.4-0.7-0.8-1.4-1.2-2.1c-0.5-0.9-1.1-1.9-1.6-2.9
					c-1.1,0-2.2-0.2-3.1-0.8c-0.9-0.6-1.6-1.5-2-2.6c-0.4-1.1-0.3-2.1-0.1-3.2c0,0,0.1,0,0.1,0c0.6,1,1.2,2,1.8,3.1
					c1.3,0.1,2.6,0.2,3.9,0.2c0.6-1.2,1.2-2.3,1.8-3.5c-0.6-1-1.2-2.1-1.8-3.1c2.3,0,4.6,2.8,3.5,6.9c-0.1,0.3-0.3,0.5-0.4,0.8
					C410.5,39.9,411.4,41.6,412.4,43.4z M417.9,47.3c-1,0.8-2.1,1.4-3.2,2.1c-1.4-0.9-2.8-1.8-4.3-2.8c1.4-1.3,3-2.4,4.7-3.4
					C416.4,44.2,417.8,46.2,417.9,47.3z M416,54.9c-0.6,0.3-1.1,0.5-1.7,0.5c-0.1,0-0.1,0-0.2,0c-0.1,0-0.1,0-0.2,0
					c-0.2,0-0.5-0.1-0.7-0.2c-0.1-0.2-0.3-0.4-0.4-0.6c0-0.1-0.1-0.1-0.1-0.2c-0.2-0.3-0.3-0.5-0.5-0.8c1.4-0.1,2.9-1.8,3.1-3.2
					c0-0.1,0-0.3,0-0.4c0.5-0.3,0.9-0.6,1.4-0.8c0.1-0.1,0.2-0.1,0.3-0.2c0.2-0.1,0.4-0.2,0.6-0.4v0c0.3,0.4,0.5,0.9,0.8,1.3
					c0.2,0.3,0.4,0.6,0.5,0.8c0.1,0.1,0.2,0.3,0.3,0.4c0.2,0.3,0.3,0.6,0.5,0.8c-0.2,0.2-0.2,0.3-0.3,0.4c0,0,0,0,0,0 M417,60.3
					l4.1-2l2.2,3.7v0c1,2-2.6,4.5-4.1,2L417,60.3z M415.8,58.3c-0.1,0-0.3-0.1-0.3-0.2c-0.1-0.1-0.3-0.3-0.4-0.4
					c-0.1-0.1-0.2-0.3-0.4-0.4c-0.2-0.3-0.5-0.6-0.7-0.9c0,0,0,0,0,0c0,0,0,0,0-0.1l0,0c0.2,0,0.3,0,0.4,0c0.7,0,1.3-0.3,1.9-0.6
					c0.1-0.1,0.2-0.1,0.4-0.2c0.1,0,0.1-0.1,0.2-0.1c0.1,0,0.1-0.1,0.2-0.1c0.1-0.1,0.3-0.2,0.4-0.2c0.9-0.6,1.8-1.2,2.6-2v0
					c0.3,0.7,0.5,1.5,0.7,2.2c0,0.1,0,0.1,0,0.2c0.1,0.4,0.1,0.7,0.1,1.1c-0.7,0.8-1.5,1.4-2.4,1.8c-0.3,0.1-0.6,0.3-1,0.3
					c0,0-0.1,0-0.1,0c-0.1,0-0.3,0-0.4-0.1c-0.1,0-0.1,0-0.2-0.1c-0.3-0.1-0.6-0.1-0.8-0.2C416,58.3,415.9,58.3,415.8,58.3z
					 M387.3,60c3.1,0.6,6.1,0.5,9.1-0.3c3-0.8,5.7-2.2,8.1-4.1c0.2,0.2,0.4,0.4,0.6,0.6c0,0,0.1,0,0.1,0c-1.1-3.6,0-6.7,2.1-9.7
					c2.2,1.4,4.3,2.7,6.4,4.1c-0.2,0.6-0.5,0.9-0.9,1.3c-0.5,0.4-1.1,0.8-1.7,0.8c-0.3,0-0.6,0-0.8-0.1c-1.1-0.6-2.1-1.3-2.8-2.3
					c0-0.1-0.1-0.1-0.2-0.1c-0.1,0.4,0.2,0.7,0.3,0.9c0.4,0.5,0.8,1,1.2,1.5c0.2,0.2,0.4,0.5,0.5,0.7c0.5,1.5,0.4,2.9-0.7,4.2
					c0,0,0,0.1-0.1,0.2c0.7-0.4,1.2-0.9,1.6-1.6c0.4-0.7,0.3-1.4,0.3-2.2c0.2,0.3,0.4,0.7,0.7,1c0.9,1.2,1.7,2.5,2.6,3.7
					c0.3,0.4,0.7,0.7,1.1,1.1c0.1,0.1,0.2,0.3,0.3,0.6c-0.8,0.4-1.6,0.7-2.5,1c-0.7,0.2-1.5,0.3-2.3,0.5c-0.2,0-0.4,0.2-0.6,0.3
					c-2.1,1.8-4.5,3.2-7.1,4.2c-0.9,0.4-1.9,0.6-2.9,0.9c-2.1,0.4-4.3,0.6-6.4,0.6c-2.5-0.1-5-0.5-7.5-1.3
					C385.9,64,386.1,61.9,387.3,60z M382.5,61.3c-0.2-0.7-0.4-1.4-0.6-2c-0.1-0.3-0.2-0.5-0.3-0.8c-0.1-0.1-0.1-0.3-0.2-0.4l0,0
					c1.5,0.5,3,1,4.4,1.5c0.2,0.1,0.4,0.1,0.6,0.2c-0.1,0.2-0.2,0.5-0.3,0.7c-0.1,0.2-0.2,0.5-0.3,0.7c-0.5,1.5-0.7,3-0.7,4.7l0,0
					c-0.1,0-0.2-0.1-0.2-0.1c-0.2-0.1-0.3-0.1-0.4-0.2c-0.2-0.1-0.4-0.2-0.6-0.3c-0.1-0.1-0.3-0.1-0.4-0.2c0-0.2,0-0.4-0.1-0.5
					c-0.1,0-0.2-0.1-0.3-0.1c0,0-0.1,0-0.1,0c0-0.4-0.1-0.9-0.2-1.3c-0.1-0.4-0.1-0.8-0.2-1.3C382.7,61.8,382.6,61.5,382.5,61.3z
					 M381.6,70.6c-0.5-0.1-0.9-0.1-1.3-0.2c0-0.4-0.1-0.8-0.1-1.2c-0.1-1.2-0.2-2.3-0.3-3.5l0,0c0.3,0,0.7,0.1,1,0.1
					c0.2,0,0.3,0,0.5,0c0.2,0,0.3,0,0.5,0c0,0.9,0,1.8-0.1,2.6c0,0.1,0,0.2,0,0.3C381.8,69.5,381.7,70,381.6,70.6L381.6,70.6z
					 M380.2,73.5c0-0.2,0-0.4,0-0.6c0-0.4,0.1-0.8,0.1-1.3l0,0c0.2,0,0.4,0,0.6,0.1c0.2,0,0.3,0,0.5,0.1c0,1.3-1.9,8.8-2.4,9.8l0,0
					c0.2-0.8,0.4-1.6,0.5-2.4c0-0.2,0.1-0.4,0.1-0.6C379.9,76.9,380.1,75.2,380.2,73.5z M373.2,67.9L373.2,67.9L373.2,67.9
					L373.2,67.9C373.2,67.9,373.2,67.9,373.2,67.9L373.2,67.9C373.2,67.9,373.2,67.9,373.2,67.9C373.2,67.9,373.2,67.9,373.2,67.9
					C373.2,67.9,373.2,67.9,373.2,67.9z M370.7,54.6C370.7,54.6,370.7,54.6,370.7,54.6c0.1,0,0.1,0,0.1,0c0,0,0.1,0,0.1,0
					c0.7,0.3,1.4,0.5,2.1,0.8c0.1,0,0.2,0.1,0.4,0.1c0.1,0,0.2,0.1,0.4,0.1c0.2,0.1,0.5,0.1,0.7,0.2c0.2,0.1,0.5,0.1,0.7,0.1
					c0.2,0,0.3,0,0.5,0c0.1,0,0.1,0,0.2,0c0.2,0,0.4,0,0.5-0.1c0,0,0.1,0,0.1,0c0.3-0.1,0.5-0.4,0.5-0.9c0-0.1,0-0.1,0-0.2
					c0-0.1,0-0.2,0-0.4v0c0.2,0.1,0.5,0.3,0.7,0.6c0.1,0.1,0.3,0.3,0.4,0.5c0.1,0.1,0.2,0.3,0.3,0.4c0.8,1,1.5,2.4,2.1,3.8
					c0.1,0.1,0.1,0.3,0.2,0.4c0.1,0.1,0.1,0.3,0.2,0.4c0.1,0.4,0.3,0.8,0.4,1.1c0.4,1.2,0.5,2.2,0.4,2.8l0,0
					c-0.5-0.1-0.9-0.1-1.4-0.2c-0.9-0.1-1.8-0.2-2.8-0.3c-0.5-0.1-0.9-0.1-1.4-0.2c-0.9-3.2-2.5-6-4.6-8.5
					C371.2,55.1,370.9,54.8,370.7,54.6z M368.6,99.5L368.6,99.5L368.6,99.5L368.6,99.5L368.6,99.5L368.6,99.5z M359.5,76.5
					c0.2-0.8,0.3-1.7,0.4-2.5c0-0.4,0.1-0.8,0.1-1.2c0.3-5.4-1-10.5-3.3-15.5v0c0.4,0.2,0.7,0.2,1,0.2c0.3,0,0.6,0,0.8-0.2
					c0.5-0.2,0.9-0.7,1.3-1.4l0,0c-0.1,0-0.1,0-0.2,0c-0.1,0.1-0.2,0.1-0.3,0.2c0,0-0.1,0-0.1,0c-0.2,0.1-0.4,0.1-0.6,0.1
					c-0.2,0-0.4,0-0.6-0.1c-0.4-0.1-0.8-0.2-1.2-0.3c-0.4-0.1-0.8-0.2-1.2-0.3c-0.2,0-0.4-0.1-0.6-0.1c-0.4-0.1-0.8-0.1-1.2-0.2
					c-0.2,0-0.4-0.1-0.6-0.1c-0.5-0.1-1-0.1-1.6-0.1c0-0.3,0.1-0.6,0.1-0.9c0-0.1,0-0.3,0-0.4c0-0.1,0-0.3,0-0.4c0-0.1,0-0.3,0-0.4
					c0,0,0,0,0,0c0-0.3-0.1-0.7-0.1-1c0-0.1,0-0.2-0.1-0.3c0-0.1,0-0.1,0-0.2c-0.1-0.2-0.1-0.4-0.2-0.6c0-0.1-0.1-0.3-0.1-0.4
					c-0.2-0.7-0.5-1.4-0.9-2.1l0,0c0.6,0,1.2,0.1,1.8,0.1c1,0.1,1.9,0.3,2.8,0.5c0.1,0,0.2,0.1,0.3,0.1c0.2,0.1,0.4,0.1,0.6,0.2
					c0.2,0.1,0.4,0.1,0.6,0.2c0.3,0.1,0.6,0.2,1,0.3c0.1,0,0.2,0.1,0.3,0.1c0.8,0.3,1.5,0.6,2,1.2c0.1,0.1,0.1,0.1,0.2,0.2
					c0,0,0,0,0,0c0,0,0.1,0.1,0.2,0.1l0,0c0,0,0,0,0,0c0,0,0,0,0,0c-0.2-0.3-0.4-0.7-0.6-1.1c-0.1-0.2-0.3-0.5-0.4-0.7
					c0.8,0.4,1.6,0.8,2.3,1.3c1.6,1,3,2.3,4.2,3.7c0.6,0.6,1.1,1.3,1.5,2c0.2,0.3,0.5,0.7,0.7,1c1.1,1.8,1.8,3.7,2.3,5.8
					c-0.2,0-0.4,0-0.5,0c-0.2,0-0.3,0-0.5,0c0.7,4.2,0.4,8.3,0,12.5c-2.7,0.2-5.4,0.4-8.2,0.6C360.6,76.5,360,76.5,359.5,76.5
					L359.5,76.5z M351.2,111.3L351.2,111.3L351.2,111.3L351.2,111.3L351.2,111.3L351.2,111.3L351.2,111.3L351.2,111.3z"/>
				<path class="st9" d="M386.1,36C386.1,36,386,36,386.1,36C386.1,36,386.1,36,386.1,36L386.1,36z"/>
				<path class="st9" d="M407.4,50L407.4,50L407.4,50L407.4,50L407.4,50L407.4,50L407.4,50C407.4,50,407.4,50,407.4,50
					C407.4,50,407.4,50,407.4,50L407.4,50z"/>
				<circle class="st9" cx="421.2" cy="62.9" r="0.9"/>
			</g>
			<path class="st10" d="M412.4,43.4c-0.1,0.1-0.2,0.1-0.3,0.2l0,0c-0.2,0.4-0.6,0.6-1,0.8l0,0c-0.7,0.5-1.3,1-2,1.5
				c-0.2-0.2-0.4-0.3-0.6-0.6c-0.4-0.7-0.8-1.4-1.2-2.1c-0.5-0.9-1.1-1.9-1.6-2.9c-1.1,0-2.2-0.2-3.1-0.8c-0.9-0.6-1.6-1.5-2-2.6
				c-0.4-1.1-0.3-2.1-0.1-3.2c0,0,0.1,0,0.1,0c0.6,1,1.2,2,1.8,3.1c1.3,0.1,2.6,0.2,3.9,0.2c0.6-1.2,1.2-2.3,1.8-3.5
				c-0.6-1-1.2-2.1-1.8-3.1c2.3,0,4.6,2.8,3.5,6.9c-0.1,0.3-0.3,0.5-0.4,0.8C410.5,39.9,411.4,41.6,412.4,43.4z"/>
			<path class="st10" d="M417,60.3l4.1-2l2.2,3.7v0c1,2-2.6,4.5-4.1,2L417,60.3z"/>
			<path class="st1" d="M362.6,48.5c0-0.3,0.1-0.5,0.1-0.8c0.1-0.5,0.1-1.1,0.2-1.6c0-0.3,0.1-0.5,0.1-0.8v0c0.5,0.5,1,1,1.5,1.4
				c0.2,0.1,0.3,0.3,0.5,0.4c0.4,0.3,0.7,0.6,1.1,0.9c0.1,0.1,0.3,0.2,0.4,0.3c0.7,0.5,1.5,1,2.3,1.5c0.2,0.2,0.5,0.3,0.8,0.4
				c0.3,0.2,0.6,0.3,0.9,0.5c0.3,0.2,0.7,0.4,1,0.5c0,0,0,0,0,0c0.1,0,0.2,0.1,0.3,0.1c0.1,0,0.2,0.1,0.3,0.1
				c0.4,0.2,0.7,0.3,1.1,0.5c0.2,0.1,0.4,0.1,0.6,0.2c0.2,0.1,0.5,0.2,0.7,0.2c0.1,0,0.2,0,0.2,0.1c0.1,0,0.3,0.1,0.4,0.1
				c0,0,0.1,0,0.1,0c0.1,0,0.3,0.1,0.4,0.1l0,0c-0.1,0.2-0.1,0.3-0.2,0.5c-0.2,0.5-0.4,1-0.6,1.4v0c-0.3-0.1-0.5-0.1-0.8-0.2
				c-0.9-0.3-1.8-0.7-2.7-1.1c-0.4-0.2-0.9-0.4-1.3-0.7c-0.4-0.2-0.9-0.5-1.3-0.7c-0.1-0.1-0.2-0.1-0.3-0.2c-1-0.6-2-1.1-3-1.7
				c-0.4-0.2-0.7-0.4-1.1-0.6c-0.3-0.2-0.6-0.4-0.9-0.5C363.2,48.9,362.9,48.7,362.6,48.5L362.6,48.5z"/>
		</g>
	</g>
	<rect class="st6" width="452.7" height="192.6"/>
</g>
<g>
	<path class="st0" d="M61.4,81.6l1.7-6.2l14.2-15.6c0.2-0.3,0.7-0.8,1.4-1.5c0.7-0.7,1.2-1.3,1.5-1.7c0.3-0.4,0.8-0.9,1.3-1.6
		c0.6-0.7,1-1.3,1.3-1.8c0.3-0.5,0.6-1.1,1-1.7c0.3-0.6,0.6-1.3,0.7-1.8c0.4-1.3,0.3-2.3-0.1-3c-0.3-0.5-0.9-0.8-1.6-0.7
		c-0.2,0-0.4,0-0.6,0.1c-1,0.1-1.9,0.7-2.6,1.6c-0.7,0.9-1.3,2.3-1.8,4.2l-0.5,2h-8.5l0.6-2.2c0.5-1.9,1.2-3.7,2.1-5.2
		c0.9-1.6,1.9-2.9,3.1-4.1c1.2-1.2,2.7-2.1,4.4-2.8c1.7-0.7,3.6-1,5.6-1c3.8,0,6.3,1,7.8,2.9c1.4,2,1.7,4.7,0.7,8.3
		c-0.1,0.5-0.3,1.1-0.5,1.6c-0.2,0.5-0.4,1-0.6,1.5c-0.2,0.4-0.5,0.9-0.8,1.5c-0.3,0.5-0.6,1-0.8,1.3c-0.2,0.3-0.5,0.8-1,1.3
		c-0.5,0.6-0.8,1-1,1.2c-0.2,0.2-0.6,0.7-1.1,1.3c-0.6,0.6-0.9,1-1.1,1.2c-0.2,0.2-0.6,0.6-1.2,1.3c-0.6,0.7-1,1.1-1.1,1.2
		L73.1,74.8h12.3l-1.8,6.9H61.4z"/>
	<path class="st0" d="M100.8,81.6l2.6-9.7H90.6l1.8-6.5l17.9-26h9.7l-7,26.2h4l-1.7,6.3h-4l-2.6,9.7H100.8z M98.9,65.6h6.3l4.7-17.6
		L98.9,65.6z"/>
	<path class="st0" d="M130.2,81.6l11.3-42.2h8.5l-4,14.8c2.7-2.1,5.5-3.2,8.2-3.2c1.8,0,3,0.7,3.6,2s0.6,3,0.1,5l-6.3,23.7h-8.5
		l6-22.4c0.2-0.8,0.2-1.3,0.1-1.7c-0.1-0.4-0.5-0.5-1.2-0.5c-0.7,0-1.7,0.4-3,1.1l-6.3,23.5H130.2z"/>
	<path class="st0" d="M174.9,79.6c-2.3,1.7-5.1,2.5-8.4,2.5s-5.6-0.8-7-2.5s-1.7-4.2-0.8-7.4l3.1-11.4c0.9-3.2,2.4-5.7,4.8-7.4
		c2.3-1.7,5.1-2.5,8.4-2.5s5.7,0.8,7.1,2.5c1.4,1.7,1.7,4.2,0.8,7.4l-3.1,11.4C178.9,75.4,177.3,77.9,174.9,79.6z M168,76.4
		c0.8,0,1.5-0.3,1.9-0.9c0.5-0.6,0.9-1.5,1.2-2.7l3.4-12.6c0.3-1.2,0.4-2.1,0.3-2.7c-0.2-0.6-0.6-0.9-1.5-0.9
		c-0.8,0-1.4,0.3-1.9,0.9c-0.5,0.6-0.9,1.5-1.2,2.7l-3.4,12.6c-0.3,1.2-0.4,2.1-0.3,2.7C166.8,76.1,167.2,76.4,168,76.4z"/>
	<path class="st0" d="M187,82.1c-1.8,0-3-0.7-3.6-2c-0.6-1.3-0.6-3-0.1-5l6.3-23.7h8.5l-6.1,22.6c-0.2,0.7-0.2,1.3-0.1,1.7
		c0.2,0.4,0.6,0.6,1.2,0.5c0.7,0,1.6-0.3,2.7-0.9l6.4-24h8.5l-8.1,30.2h-8.5l0.7-2.8C192.1,81,189.5,82.1,187,82.1z"/>
	<path class="st0" d="M208.2,81.6l8.1-30.2h8.5l-1.3,5c2.8-3.6,5.3-5.4,7.5-5.4c0.3,0,0.7,0.1,1.1,0.2l-2,7.5
		c-0.4-0.1-0.9-0.2-1.4-0.2c-2.4,0.1-4.6,1.3-6.8,3.6l-5.2,19.3H208.2z"/>
	<path class="st0" d="M236.2,82.1c-2.6,0-4.5-0.6-5.9-1.8c-1.4-1.2-2.2-3.1-2.6-5.8l6.6-2.6c0.2,1.4,0.6,2.5,1.2,3.3
		c0.5,0.7,1.1,1.1,1.9,1.1c0.1,0,0.2,0,0.3,0c0.5,0,1-0.2,1.5-0.6c0.5-0.4,0.8-0.9,0.9-1.4c0.1-0.3,0-0.6-0.1-0.9
		c-0.1-0.3-0.4-0.8-0.8-1.3c-0.4-0.5-0.7-0.9-0.9-1.1c-0.2-0.2-0.5-0.6-1.1-1.2l-1.8-2c-2.6-2.9-3.6-5.7-2.9-8.5
		c0.4-1.6,1.2-3.1,2.5-4.4c1.2-1.3,2.6-2.3,4.2-3c1.6-0.7,3.2-1,4.9-1c2.5,0,4.3,0.7,5.6,2c1.3,1.3,2,3.3,2,5.7l-6.2,2.6
		c0-1.1-0.3-2.1-0.7-3s-1-1.3-1.8-1.4c0,0-0.1,0-0.1,0c-0.6,0-1.1,0.1-1.6,0.5c-0.5,0.3-0.8,0.8-0.9,1.3c-0.3,0.8,0.5,2.3,2.5,4.3
		c0.2,0.2,0.3,0.3,0.3,0.4l1.7,2c0.7,0.8,1.2,1.4,1.5,1.8c0.3,0.4,0.7,1,1.1,1.8c0.4,0.8,0.7,1.5,0.7,2.3s0,1.7-0.3,2.6
		c-0.5,1.7-1.3,3.2-2.6,4.5c-1.3,1.3-2.7,2.2-4.3,2.8C239.6,81.8,237.9,82.1,236.2,82.1z"/>
</g>
<g>
	<path class="st0" d="M15.1,174.8L33,135.7h9.8l-3.1,39.1h-8l0.9-8.3h-5.7l-3.5,8.3H15.1z M29,161.3h4.2l2-15.1L29,161.3z"/>
	<path class="st0" d="M40.7,184l9.9-37.1h7.9l-0.5,2.1c2.4-1.7,4.5-2.5,6.5-2.5c0.1,0,0.2,0,0.3,0c2,0.1,3.3,0.9,3.8,2.4
		c0.6,1.5,0.5,3.5-0.1,5.8l-3.2,11.9c-0.7,2.7-1.8,4.8-3.3,6.4c-1.5,1.6-3.2,2.4-5.2,2.4c-1.9,0-3.7-0.9-5.2-2.6l-3,11.3H40.7z
		 M54.4,170.2C54.4,170.2,54.4,170.2,54.4,170.2c0.7,0,1.3-0.3,1.7-0.9c0.5-0.6,0.8-1.4,1.1-2.3l3.5-12.9c0.2-0.8,0.2-1.6,0-2.1
		c-0.2-0.5-0.6-0.8-1.1-0.8c-0.1,0-0.1,0-0.2,0c-0.6,0-1.4,0.4-2.3,0.9l-4.7,17.4C53.1,169.9,53.7,170.2,54.4,170.2z"/>
	<path class="st0" d="M65.1,184l9.9-37.1h7.9l-0.6,2.1c2.4-1.7,4.5-2.5,6.5-2.5c0.1,0,0.2,0,0.3,0c2,0.1,3.3,0.9,3.8,2.4
		c0.6,1.5,0.5,3.5-0.1,5.8l-3.2,11.9c-0.7,2.7-1.8,4.8-3.3,6.4c-1.5,1.6-3.2,2.4-5.2,2.4c-1.9,0-3.7-0.9-5.2-2.6l-3,11.3H65.1z
		 M78.8,170.2C78.8,170.2,78.8,170.2,78.8,170.2c0.7,0,1.3-0.3,1.7-0.9c0.5-0.6,0.8-1.4,1.1-2.3l3.5-12.9c0.2-0.8,0.2-1.6,0-2.1
		c-0.2-0.5-0.6-0.8-1.1-0.8c-0.1,0-0.1,0-0.2,0c-0.6,0-1.4,0.4-2.3,0.9l-4.7,17.4C77.5,169.9,78.1,170.2,78.8,170.2z"/>
	<path class="st0" d="M92.2,174.8l10.5-39.1h7.9l-10.5,39.1H92.2z"/>
	<path class="st0" d="M105.2,174.8l7.5-27.9h7.9l-7.5,27.9H105.2z M113.9,142.2l1.5-5.5h7.9l-1.5,5.5H113.9z"/>
	<path class="st0" d="M123.6,175.3c-2,0-3.4-0.7-4.2-2.1c-0.8-1.4-1-2.9-0.5-4.7c0.2-0.9,0.6-1.8,1-2.6c0.4-0.8,0.9-1.5,1.4-2.1
		c0.5-0.6,1.1-1.1,1.8-1.7c0.7-0.5,1.4-1,1.9-1.3c0.6-0.3,1.3-0.7,2.2-1.1c0.9-0.4,1.6-0.7,2.1-0.9s1.2-0.4,2.1-0.7
		c0.9-0.3,1.5-0.5,1.9-0.7l0.7-2.8c0.2-0.8,0.3-1.4,0.1-1.8c-0.1-0.4-0.5-0.6-1.1-0.6c-1.1,0-1.8,0.7-2.3,2.2l-0.7,2.1l-7.3-0.3
		c0,0,0.1-0.2,0.1-0.5c0.1-0.3,0.1-0.4,0.1-0.4c1.1-3,2.6-5.3,4.6-6.7c2-1.4,4.6-2.2,7.7-2.2c2.8,0,4.6,0.8,5.7,2.3
		c1,1.5,1.2,3.6,0.5,6.1l-3.5,13c-0.5,1.8-0.9,4.1-1.4,7h-7c0.2-2.3,0.3-3.6,0.4-4c-0.7,1.3-1.6,2.3-2.8,3.2
		C126.3,174.9,125,175.3,123.6,175.3z M127.9,169.9c0.4,0,0.8-0.1,1.3-0.4c0.5-0.3,0.9-0.6,1.2-0.9l2-7.6c-1.4,0.6-2.7,1.5-3.8,2.7
		c-1.1,1.1-1.8,2.3-2.1,3.3c-0.2,0.9-0.2,1.6,0,2.2C126.8,169.6,127.3,169.9,127.9,169.9z"/>
	<path class="st0" d="M141,174.8l7.5-27.9h7.9l-0.7,2.8c2.8-2.2,5.3-3.3,7.6-3.3c1.7,0,2.8,0.6,3.3,1.8c0.6,1.2,0.6,2.8,0.1,4.7
		l-5.9,21.9h-7.9l5.6-20.7c0.2-0.7,0.2-1.2,0.1-1.6s-0.5-0.5-1.1-0.5c-0.7,0-1.6,0.3-2.7,1l-5.8,21.8H141z"/>
	<path class="st0" d="M174.5,175.3c-3.1,0-5.2-0.8-6.5-2.5c-1.2-1.7-1.5-4-0.7-6.9l2.7-10.1c0.8-3,2.2-5.3,4.4-6.9
		c2.1-1.6,4.7-2.5,7.8-2.5c3,0,5.2,0.7,6.4,2.1c1.3,1.4,1.5,3.5,0.8,6.3l-0.8,2.9H181l0.8-3.2c0.3-1.1,0.3-1.8,0.2-2.2
		c-0.2-0.4-0.6-0.6-1.2-0.6s-1.1,0.2-1.5,0.7c-0.4,0.5-0.8,1.3-1.1,2.5l-3.1,11.6c-0.3,1.2-0.4,2-0.2,2.5s0.6,0.7,1.2,0.7
		c0.6,0,1.1-0.2,1.5-0.6c0.4-0.4,0.7-1.1,1-2.1l1-3.7h7.6l-0.9,3.4c-0.7,2.8-2.1,4.9-4.2,6.3C180,174.6,177.5,175.3,174.5,175.3z"/>
	<path class="st0" d="M197.1,175.3c-3.1,0-5.2-0.8-6.5-2.5c-1.2-1.7-1.5-4-0.7-7l2.7-10c0.8-3,2.3-5.3,4.4-7
		c2.1-1.6,4.7-2.5,7.8-2.5c3.1,0,5.2,0.8,6.3,2.4c1.1,1.6,1.3,3.9,0.4,7l-1.5,5.5H199l-1.3,4.9c-0.3,1.1-0.4,2-0.3,2.6
		c0.1,0.6,0.5,0.9,1.2,0.9c1.3,0,2.2-0.9,2.7-2.7l0.5-1.9h7.3l-0.4,1.6c-0.7,2.8-2.1,4.9-4.2,6.4
		C202.5,174.6,200.1,175.3,197.1,175.3z M200,157.7h3.8l0.7-2.8c0.3-1,0.3-1.8,0.1-2.2c-0.2-0.4-0.7-0.6-1.3-0.6
		c-0.6,0-1.1,0.3-1.6,0.8c-0.4,0.5-0.8,1.4-1.1,2.6L200,157.7z"/>
	<path class="st0" d="M223.6,174.8l10.5-39.1h10.7c1.7,0,3.1,0.1,4.3,0.3c1.2,0.2,2.3,0.5,3.3,1s1.7,1.1,2.3,1.9
		c0.5,0.8,0.8,1.8,0.9,3c0.1,1.2-0.1,2.6-0.5,4.2c-0.7,2.6-1.6,4.6-2.7,6.2c-1.1,1.6-2.7,2.8-4.7,3.6l0.3,18.9H239l0.4-17.5H237
		l-4.7,17.5H223.6z M238.3,152.3h2.2c1.8,0,3.1-0.5,4.1-1.4c1-0.9,1.7-2.3,2.2-4.1c0.5-1.8,0.5-3.1,0.1-4c-0.4-0.9-1.4-1.3-3-1.3
		h-2.7L238.3,152.3z"/>
	<path class="st0" d="M261.1,175.3c-3.1,0-5.2-0.8-6.5-2.5c-1.2-1.7-1.5-4-0.7-7l2.7-10c0.8-3,2.3-5.3,4.4-7
		c2.1-1.6,4.7-2.5,7.8-2.5c3.1,0,5.2,0.8,6.3,2.4c1.1,1.6,1.3,3.9,0.4,7l-1.5,5.5H263l-1.3,4.9c-0.3,1.1-0.4,2-0.3,2.6
		c0.1,0.6,0.5,0.9,1.2,0.9c1.3,0,2.2-0.9,2.7-2.7l0.5-1.9h7.3l-0.4,1.6c-0.7,2.8-2.1,4.9-4.2,6.4C266.5,174.6,264,175.3,261.1,175.3
		z M263.9,157.7h3.8l0.7-2.8c0.3-1,0.3-1.8,0.1-2.2c-0.2-0.4-0.7-0.6-1.3-0.6c-0.6,0-1.1,0.3-1.6,0.8c-0.4,0.5-0.8,1.4-1.1,2.6
		L263.9,157.7z"/>
	<path class="st0" d="M272.3,184l9.9-37.1h7.9l-0.5,2.1c2.4-1.7,4.5-2.5,6.5-2.5c0.1,0,0.2,0,0.3,0c2,0.1,3.3,0.9,3.8,2.4
		c0.6,1.5,0.5,3.5-0.1,5.8l-3.2,11.9c-0.7,2.7-1.8,4.8-3.3,6.4c-1.5,1.6-3.2,2.4-5.2,2.4c-1.9,0-3.7-0.9-5.2-2.6l-3,11.3H272.3z
		 M286,170.2C286,170.2,286,170.2,286,170.2c0.7,0,1.3-0.3,1.7-0.9c0.5-0.6,0.8-1.4,1.1-2.3l3.5-12.9c0.2-0.8,0.2-1.6,0-2.1
		c-0.2-0.5-0.6-0.8-1.1-0.8c-0.1,0-0.1,0-0.2,0c-0.6,0-1.4,0.4-2.3,0.9l-4.7,17.4C284.7,169.9,285.4,170.2,286,170.2z"/>
	<path class="st0" d="M304.8,175.3c-2,0-3.4-0.7-4.2-2.1c-0.8-1.4-1-2.9-0.5-4.7c0.2-0.9,0.6-1.8,1-2.6c0.4-0.8,0.9-1.5,1.4-2.1
		c0.5-0.6,1.1-1.1,1.8-1.7c0.7-0.5,1.4-1,1.9-1.3c0.6-0.3,1.3-0.7,2.2-1.1c0.9-0.4,1.6-0.7,2.1-0.9s1.2-0.4,2.1-0.7
		c0.9-0.3,1.5-0.5,1.9-0.7l0.7-2.8c0.2-0.8,0.3-1.4,0.1-1.8c-0.1-0.4-0.5-0.6-1.1-0.6c-1.1,0-1.8,0.7-2.3,2.2l-0.7,2.1l-7.3-0.3
		c0,0,0.1-0.2,0.1-0.5c0.1-0.3,0.1-0.4,0.1-0.4c1.1-3,2.6-5.3,4.6-6.7c2-1.4,4.6-2.2,7.7-2.2c2.8,0,4.6,0.8,5.7,2.3
		c1,1.5,1.2,3.6,0.5,6.1l-3.5,13c-0.5,1.8-0.9,4.1-1.4,7h-7c0.2-2.3,0.3-3.6,0.4-4c-0.7,1.3-1.6,2.3-2.8,3.2
		C307.4,174.9,306.2,175.3,304.8,175.3z M309.1,169.9c0.4,0,0.8-0.1,1.3-0.4c0.5-0.3,0.9-0.6,1.2-0.9l2-7.6
		c-1.4,0.6-2.7,1.5-3.8,2.7c-1.1,1.1-1.8,2.3-2.1,3.3c-0.2,0.9-0.2,1.6,0,2.2C308,169.6,308.5,169.9,309.1,169.9z"/>
	<path class="st0" d="M322.2,174.8l7.5-27.9h7.9l-7.5,27.9H322.2z M330.9,142.2l1.5-5.5h7.9l-1.5,5.5H330.9z"/>
	<path class="st0" d="M335.1,174.8l7.5-27.9h7.9l-1.2,4.6c2.6-3.3,4.9-5,6.9-5c0.3,0,0.6,0.1,1.1,0.2l-1.9,7
		c-0.4-0.1-0.8-0.2-1.3-0.2c-2.2,0.1-4.3,1.2-6.3,3.4l-4.8,17.9H335.1z"/>
	<path class="st0" d="M352.9,174.8l7.5-27.9h7.7l-0.6,2.3c2.4-1.9,4.8-2.8,7.4-2.8c1.1,0,2,0.3,2.7,0.8c0.7,0.6,1.1,1.4,1.2,2.5
		c2.6-2.2,5.2-3.3,8-3.3c1.6,0,2.8,0.6,3.4,1.8c0.7,1.2,0.7,2.8,0.1,5l-5.8,21.7h-7.7l5.6-20.9c0.2-0.8,0.2-1.3,0-1.7
		c-0.2-0.3-0.5-0.5-1.1-0.5c-0.9,0-1.8,0.4-2.8,1l-0.1,0.3l-5.8,21.7H365l5.6-20.9c0.2-0.8,0.2-1.3,0-1.7c-0.2-0.4-0.6-0.5-1.1-0.5
		c-0.8,0-1.8,0.4-2.9,1.1l-5.9,22H352.9z"/>
	<path class="st0" d="M398.3,175.3c-3.1,0-5.2-0.8-6.5-2.5c-1.2-1.7-1.5-4-0.7-7l2.7-10c0.8-3,2.3-5.3,4.4-7
		c2.1-1.6,4.7-2.5,7.8-2.5c3.1,0,5.2,0.8,6.3,2.4c1.1,1.6,1.3,3.9,0.4,7l-1.5,5.5h-11.2l-1.3,4.9c-0.3,1.1-0.4,2-0.3,2.6
		c0.1,0.6,0.5,0.9,1.2,0.9c1.3,0,2.2-0.9,2.7-2.7l0.5-1.9h7.3l-0.4,1.6c-0.7,2.8-2.1,4.9-4.2,6.4
		C403.7,174.6,401.2,175.3,398.3,175.3z M401.2,157.7h3.8l0.7-2.8c0.3-1,0.3-1.8,0.1-2.2c-0.2-0.4-0.7-0.6-1.3-0.6
		c-0.6,0-1.1,0.3-1.6,0.8c-0.4,0.5-0.8,1.4-1.1,2.6L401.2,157.7z"/>
	<path class="st0" d="M412,174.8l7.5-27.9h7.9l-0.7,2.8c2.8-2.2,5.3-3.3,7.6-3.3c1.7,0,2.8,0.6,3.3,1.8c0.6,1.2,0.6,2.8,0.1,4.7
		l-5.9,21.9h-7.9l5.6-20.7c0.2-0.7,0.2-1.2,0.1-1.6s-0.5-0.5-1.1-0.5c-0.7,0-1.6,0.3-2.7,1l-5.8,21.8H412z"/>
</g>
</svg>
