<svg xmlns="http://www.w3.org/2000/svg" viewBox="0 0 150 150">
  <title>eight</title>
  <g id="Слой_1" data-name="Слой 1">
    <rect width="150" height="150" style="fill: none"/>
  </g>
  <g id="Слой_2" data-name="Слой 2">
    <g id="Слой_3" data-name="Слой 3">
      <g>
        <path d="M37.24,49.1l.06.52,1.47-3.54c-1.43,1.65-2.53,3-2.48,5.28A5.12,5.12,0,0,0,40,56.18c5,1.39,10.63-1.49,15.72-1.64,5.55-.17,11.17.33,16.73.33l18.49,0h16.56q2,.1-.18-.27l-2.3-3,.14.86.5-3.86-.56.75,3-2.3c-1.82.62-4.4.16-6.33.16H76.44c-10.85,0-22,.73-32.78-.42-6.4-.68-6.35,9.32,0,10,14,1.49,28.48.42,42.5.42,6.8,0,13.63.2,20.43,0,4.43-.12,9.51-2.38,8.1-7.84s-7.72-4.51-12.1-4.51l-21.44,0c-7,0-14,.1-21-.17a48.12,48.12,0,0,0-7.78.12c-2.61.32-7.34,2.42-9.8,1.74l3.67,4.82V50.8l-1.47,3.53c1.35-1.54,2.71-3,2.43-5.23-.81-6.29-10.82-6.37-10,0Z" transform="translate(0)" style="fill: #d8e5ff"/>
        <path d="M38.39,68a33.7,33.7,0,0,1,0,5.41h3a30.28,30.28,0,0,0-.49-4.56c-.32-1.73-2.88-1.23-3,.39a81.54,81.54,0,0,0,.63,14.23,1.5,1.5,0,0,0,3,0q.16-3.69.19-7.4h-3c.06,6.87-1.17,13.52-.85,20.46.15,3.41.28,6.82.47,10.23.11,2,0,3.38,1.48,4.8a1.58,1.58,0,0,0,1.82.23,2.67,2.67,0,0,0,2-2.83,6.53,6.53,0,0,0-.61-1.84c-.82-2.54-1.77-4.64-1.58-7.41.47-7.26,1-14-1.08-21a1.5,1.5,0,0,0-2.94.4c-.42,8.66-1.81,19.43,1.16,27.8,2,5.67,11.82,4.07,16.46,3.92v-3l-12.48.86c-1.9.13-2,3,0,3l48.56-.89,11.65-.22c2.59,0,6.09.56,8.52-.5,4.45-2,2.4-9.29,1.93-12.89-.24-1.85-3-2-3,0-.11,4.24-.4,8.44-.9,12.65-.19,1.69,2.55,2,2.95.4a3.86,3.86,0,0,0-.41-3.59,1.52,1.52,0,0,0-2.74.36c-1.1,3.73-15,2-17.87,1.88-4.78-.29-9.5-1-14.27-1.48-9.93-.9-19.91-.11-29.86-.39-1.93-.06-1.93,2.94,0,3,12.9.37,25.52-.06,38.38,1.36A138.77,138.77,0,0,0,104,112c3.6-.08,6.92-.4,8.06-4.24l-2.75.36.11,1.27,2.94.4c.5-4.21.79-8.41.9-12.65h-3c.26,2,1.42,6.25.68,8.09-1.35,3.35-7.22,2.29-10.07,2.34l-19.42.36-38.85.71v3l12.48-.86c1.91-.14,1.95-3.07,0-3a69.08,69.08,0,0,1-8.87-.06c-5.63-.54-5.44-4.58-5.85-9.38a144.24,144.24,0,0,1,.1-19.28l-2.95.4c1.77,5.88,1.76,11.68,1.21,17.73-.06.6.11,12.54,1.41,12l1.82.24c-1.52-1.47-.82-7.22-.91-9.19-.13-2.69-.29-5.39-.36-8.09-.13-5.42,1.08-10.69,1-16.09a1.5,1.5,0,0,0-3,0q0,3.7-.19,7.4h3a81.54,81.54,0,0,1-.63-14.23l-2.95.4a16.54,16.54,0,0,1,.39,3.77,1.5,1.5,0,0,0,3,0,33.7,33.7,0,0,0,0-5.41c-.13-1.91-3.13-1.93-3,0Z" transform="translate(0)" style="fill: #d8e5ff"/>
        <path d="M93.78,73.36c1.58.3,3.91,1.22,5.33.1s.63-2.83.78-4.39S97.22,67,97,68.67c-.13.79-.73,1.27-1.1,1.94a4.94,4.94,0,0,0-.55,2.33A5.67,5.67,0,0,1,95,75.56a4.69,4.69,0,0,0-.66,1.89,1.51,1.51,0,0,0,1.9,1.45,5.35,5.35,0,0,0,2.14-1.43c.55-.6,1-1.79,1.64-2.24H98.52l.25.15-.69-.89a6,6,0,0,0,2.34,3.64c1.18.87,2.39-.56,2.21-1.69a23,23,0,0,1-.58-3.27V70.28c-.88.19-2,.61-2.93.27l.9.69c-.45-.59-.25-2.27-.28-3l-2.26,1.3.53.81c.19,1.9,3.2,1.92,3,0a4.28,4.28,0,0,0-2-3.4,1.5,1.5,0,0,0-2.25,1.29c.06,1.42-.28,3.77.93,4.84s3.67.44,5.17.11a1.51,1.51,0,0,0,0-2.89A3,3,0,0,0,99.3,72c-.8,1.75.15,3.49.43,5.23l2.21-1.7c-1.08-.79-.72-2.18-1.91-2.9a1.49,1.49,0,0,0-1.51,0c-1.23.83-1.7,2.83-3.07,3.37l1.9,1.44c0-.38.6-.94.75-1.35a6.2,6.2,0,0,0,.24-2.31,3.44,3.44,0,0,1,.51-2.28,5.1,5.1,0,0,0,1-2l-3-.4c0,.26.24,2.17.2,2.21.26-.22-2.36-.78-2.51-.81-1.89-.36-2.7,2.54-.8,2.89Z" transform="translate(0)" style="fill: #d8e5ff"/>
        <path d="M45.84,40.33l.69,8.54a1.51,1.51,0,0,0,2.79.76c1-1.54.38-3.85.77-5.61s.78-3.48-.71-4.89-3.54.8-2.12,2.12c.71.67-.24,2.69-.35,3.57s.28,2.62-.18,3.29l2.8.76-.69-8.54c-.16-1.91-3.16-1.92-3,0Z" transform="translate(0)" style="fill: #d8e5ff"/>
        <path d="M59.46,40a22.22,22.22,0,0,0,.26,5.76c.21,1.51.1,3.41,1.25,4.53a1.51,1.51,0,0,0,2.5-.66,13.2,13.2,0,0,0,.37-4.48V39.67a1.5,1.5,0,0,0-3,0v4.74a13.55,13.55,0,0,1-.26,4.41l2.51-.66c-.51-.5-.45-3-.54-3.67a17.85,17.85,0,0,1-.09-4.5c.23-1.91-2.77-1.89-3,0Z" transform="translate(0)" style="fill: #d8e5ff"/>
        <path d="M40.3,68.08c0-.77.75-7.67-.31-8l-1.11-1.45a63.24,63.24,0,0,1-.53,8.81h3c-.47-4.24,1.57-7.28,6.14-7.38,2.82-.06,5.65,0,8.47-.05q8.58,0,17.15,0l-.76-2.8c-2.73,1.31-6.71.7-9.69.7s-6.09,0-9.13,0c-4.74,0-9.52-.41-14.05,1.23l1.9,1.45c0-1.38,25.37-.54,27.52-.51,9.21.1,19.27-.86,28.38.47l-.35-2.74c-2.1,1.16-5.79.48-8.16.5l-9.6.06-18.25.13a1.5,1.5,0,0,0,0,3l21.13-.15c4.76,0,12.12,1.42,16.39-1,1-.57,1-2.55-.36-2.74-5.44-.8-11.17-.38-16.66-.44L62.15,57c-6.1-.06-12.2-.22-18.3-.2-2.89,0-5.49.42-5.47,3.79A1.52,1.52,0,0,0,40.28,62C46,60,53,60.92,59,60.92c4.73,0,10.47,1,14.86-1.11,1.38-.66.65-2.79-.76-2.79-9.07,0-18.28-.42-27.33.12-6.86.41-8.17,3.76-7.43,10.33a1.5,1.5,0,0,0,3,0,63.43,63.43,0,0,0,.53-8.81,1.53,1.53,0,0,0-1.1-1.45c-5-1.4-3.42,8.52-3.48,10.87,0,1.93,3,1.93,3,0Z" transform="translate(0)" style="fill: #d8e5ff"/>
        <path d="M97.33,60c1.46,0,13.08-.73,13.76.19L112,58c-4.9,1.55-11.45.45-16.56.44v3h7.66c.61,0,7-.36,7-.31l.24-1.82-1.24.42a1.51,1.51,0,0,0-.66,2.5c2.66,2.56,1.5,8.54,1.48,11.93,0,3.59,0,7.18-.06,10.77,0,3.43-2.06,10.56,1,13.09.92.77,2.64.35,2.56-1.06-.31-6-.86-12.14-.8-18.19s1.56-12,1.51-18.18a1.5,1.5,0,0,0-3,0,290.91,290.91,0,0,0-.07,39.17c.12,1.91,3.12,1.93,3,0a290.91,290.91,0,0,1,.07-39.17h-3c0,6.14-1.45,12.05-1.51,18.18s.49,12.15.8,18.19L113,95.88c-1.69-1.4-.14-8.8-.11-11,0-3.59,0-7.18.06-10.77,0-4.5,1.24-10.59-2.36-14l-.66,2.51a5.68,5.68,0,0,0,2.56-1.19,1.49,1.49,0,0,0,.23-1.81c-.91-1.48-2.28-1.16-3.89-1.18-4.47-.06-8.94,0-13.41,0a1.5,1.5,0,0,0,0,3c5.39,0,12.17,1.1,17.35-.54a1.52,1.52,0,0,0,.9-2.21c-1-1.3-1.75-1.28-3.36-1.39-4.3-.31-8.69-.19-13-.28-1.93,0-1.93,3,0,3Z" transform="translate(0)" style="fill: #d8e5ff"/>
        <path d="M73.19,39.66a56.88,56.88,0,0,0,.1,6.91c.1,1.42.31,3.42,2.18,3.5,1.53.07,2.2-1.44,2.3-2.72.2-2.38.14-4.8.21-7.18.06-1.94-2.94-1.93-3,0l-.11,3.91-.06,2,0,.66c-.19.69-.1.83.28.43l1.15.15a23.83,23.83,0,0,1-.08-3.67c0-1.32,0-2.63,0-4,.08-1.93-2.92-1.92-3,0Z" transform="translate(0)" style="fill: #d8e5ff"/>
        <path d="M87.3,39.7c.06,2.51,0,5,0,7.52,0,1.61.6,3.37,2.48,3.49s2.35-1.72,2.3-3.24c-.08-2.55-.22-5.09-.34-7.63-.08-1.92-3.08-1.94-3,0l.2,4.51c0,1.17.47,3.09.09,4.21l.69-.9c1-.78.63-2.59.63-3.86s0-2.73,0-4.1c0-1.93-3-1.93-3,0Z" transform="translate(0)" style="fill: #d8e5ff"/>
        <path d="M101.05,39.83c0,2.53.08,5.05.15,7.58,0,1.5.44,3.32,2.37,3.18s2.4-1.81,2.47-3.38a45.44,45.44,0,0,0-.3-7.38c-.23-1.9-3.23-1.92-3,0,.16,1.33.25,2.67.28,4,0,.67,0,1.34,0,2,0,.9-.19,1.17.62,1.71l.69.9c-.47-1.12-.19-3-.21-4.16l-.09-4.48c0-1.93-3-1.93-3,0Z" transform="translate(0)" style="fill: #d8e5ff"/>
        <path d="M107.78,108.07a2.72,2.72,0,0,0,2.72-2.71V63.3a2.72,2.72,0,0,0-2.72-2.72H43.59a2.71,2.71,0,0,0-2.71,2.72v42.06a2.71,2.71,0,0,0,2.71,2.71ZM86.22,85.48v20.28H65.16V85.48ZM65.16,83.17V62.9H86.22V83.17Zm42.62,22.59H88.53V85.48h19.65v19.88a.4.4,0,0,1-.4.4Zm.4-42.46V83.17H88.53V62.9h19.25a.4.4,0,0,1,.4.4Zm-64.59-.4H62.85V83.17H43.19V63.3a.4.4,0,0,1,.4-.4Zm-.4,42.46V85.48H62.85v20.28H43.59a.4.4,0,0,1-.4-.4Zm0,0" transform="translate(0)" style="fill: #2478ff"/>
        <path d="M110.9,43.12h-3.67V39.61a2.72,2.72,0,0,0-2.72-2.72h-2.18a2.71,2.71,0,0,0-2.71,2.72v3.51H93.36V39.61a2.72,2.72,0,0,0-2.72-2.72H88.46a2.72,2.72,0,0,0-2.71,2.72v3.51H79.49V39.61a2.72,2.72,0,0,0-2.71-2.72H74.6a2.72,2.72,0,0,0-2.72,2.72v3.51H65.63V39.61a2.72,2.72,0,0,0-2.72-2.72H60.73A2.72,2.72,0,0,0,58,39.61v3.51H51.76V39.61A2.72,2.72,0,0,0,49,36.89H46.86a2.72,2.72,0,0,0-2.71,2.72v3.51H40.47A4.28,4.28,0,0,0,36.2,47.4V61.62a1.16,1.16,0,0,0,2.32,0V57.91h74.34v33a1.16,1.16,0,0,0,2.31,0V47.4a4.28,4.28,0,0,0-4.27-4.28Zm-9-3.51a.41.41,0,0,1,.4-.41h2.18a.41.41,0,0,1,.4.41V49a.4.4,0,0,1-.4.41h-2.18a.4.4,0,0,1-.4-.41Zm-13.87,0a.41.41,0,0,1,.4-.41h2.18a.41.41,0,0,1,.41.41V49a.41.41,0,0,1-.41.41H88.46a.4.4,0,0,1-.4-.41Zm-13.86,0a.41.41,0,0,1,.4-.41h2.18a.41.41,0,0,1,.4.41V49a.4.4,0,0,1-.4.41H74.6a.4.4,0,0,1-.4-.41Zm-13.87,0a.41.41,0,0,1,.4-.41h2.18a.41.41,0,0,1,.4.41V49a.4.4,0,0,1-.4.41H60.73a.4.4,0,0,1-.4-.41Zm-13.87,0a.41.41,0,0,1,.4-.41H49a.41.41,0,0,1,.41.41V49a.41.41,0,0,1-.41.41H46.86a.4.4,0,0,1-.4-.41Zm-7.94,16V47.4a2,2,0,0,1,1.95-2h3.68V49a2.72,2.72,0,0,0,2.71,2.71H49A2.72,2.72,0,0,0,51.76,49V45.44H58V49a2.72,2.72,0,0,0,2.72,2.71h2.18A2.72,2.72,0,0,0,65.63,49V45.44h6.25V49a2.72,2.72,0,0,0,2.72,2.71h2.18A2.72,2.72,0,0,0,79.49,49V45.44h6.26V49a2.72,2.72,0,0,0,2.71,2.71h2.18A2.72,2.72,0,0,0,93.36,49V45.44h6.26V49a2.71,2.71,0,0,0,2.71,2.71h2.18A2.72,2.72,0,0,0,107.23,49V45.44h3.67a2,2,0,0,1,2,2v8.2Zm0,0" transform="translate(0)" style="fill: #2478ff"/>
        <path d="M114,95.18a1.16,1.16,0,0,0-1.16,1.16v12.13a2,2,0,0,1-2,2H40.47a2,2,0,0,1-1.95-2V67a1.16,1.16,0,0,0-2.32,0v41.44a4.28,4.28,0,0,0,4.27,4.28H110.9a4.28,4.28,0,0,0,4.27-4.28V96.34A1.16,1.16,0,0,0,114,95.18Zm0,0" transform="translate(0)" style="fill: #2478ff"/>
        <path d="M91.05,72.72l2.24,2.19L92.76,78a2,2,0,0,0,2,2.34,2,2,0,0,0,.93-.23l2.78-1.46,2.77,1.46a2,2,0,0,0,.93.23,2,2,0,0,0,2-2.34l-.53-3.09,2.24-2.19a2,2,0,0,0-1.1-3.41l-3.1-.45-1.39-2.81a2,2,0,0,0-3.59,0l-1.38,2.81-3.11.45a2,2,0,0,0-1.1,3.41Zm4.7-1.59A2,2,0,0,0,97.26,70l1.18-2.38L99.61,70a2,2,0,0,0,1.51,1.1l2.63.38-1.9,1.86a2,2,0,0,0-.58,1.77l.45,2.62-2.35-1.24a2,2,0,0,0-1.87,0l-2.35,1.24.45-2.62A2,2,0,0,0,95,73.37l-1.9-1.86Zm0,0" transform="translate(0)" style="fill: #2478ff"/>
      </g>
    </g>
  </g>
</svg>
