<svg xmlns="http://www.w3.org/2000/svg" xmlns:xlink="http://www.w3.org/1999/xlink" viewBox="0 0 150 150">
  <defs>
    <clipPath id="clip-path" transform="translate(0)">
      <rect x="35.85" y="34.73" width="79.32" height="79.32" style="fill: none"/>
    </clipPath>
  </defs>
  <title>five</title>
  <g id="Слой_1" data-name="Слой 1">
    <rect width="150" height="150" style="fill: none"/>
  </g>
  <g id="Слой_2" data-name="Слой 2">
    <g id="Слой_3" data-name="Слой 3">
      <g>
        <path d="M69.88,74.48c1.12-3.7,4.2-5.73,7.32-7.69a1.52,1.52,0,0,0-.36-2.74c-4.11-1.63-8.48,1.88-9.69,5.78-.36,1.16,1.14,2.51,2.2,1.7,3.92-3,8.79-5.88,11.77-9.89.4-.54,1.45-3.07,1.77-3.13s-1.77,3.15-2.26,3.65a10.76,10.76,0,0,1-5,2.71l1.46,2.5c3.3-2.83,7-4.72,7.92-9.31a1.52,1.52,0,0,0-1.45-1.89,8,8,0,0,0-2.68.12l1.29,2.26q1.59,1.7-.31,3.54l-1.49,2a26.91,26.91,0,0,1-5,4.26,83.59,83.59,0,0,0-7.61,5.77L70.15,76a34.35,34.35,0,0,1,6.44-8.39L74,66.54c.24,2.18-4,6.12-5.22,7.74-1.08,1.42,1.15,2.88,2.35,1.81A26.86,26.86,0,0,1,84.6,69.51c.8-.14,8.55-.7,3.39.41-2.37.51-5.48-.11-7.88-.31l.4,2.94a40.64,40.64,0,0,1,11.81-1.69l-.4-3c-2.15.74-5.06,1-5.43,3.65a1.53,1.53,0,0,0,.69,1.69l1.2.52c.87,2,.32,2.66-1.63,2.12-1.43.54-4,.07-5.47.06-4.25-.06-8.49-.34-12.72-.79l.4,3c6.92-2.06,14-2,21.13-1.81,1.75,0,2-2.42.4-2.94-5.94-2-12.12-.91-18.24-1.64l.39,3,10-2.1c1.8-.38,1.14-2.75-.4-2.95-3.17-.4-7.84-1-10.74.84-2.68,1.73-2.87,5.17-3.71,7.94a1.51,1.51,0,0,0,1.44,1.9c3.94.17,7.87.27,11.81.22,1.83,0,3.73.1,5.55,0,4-.29-.52-.36-2-.38L72.84,80c-2.13,0-4.48-.62-6.15.91a1.52,1.52,0,0,0-.23,1.82c1.22,2.51,4.79,1.93,7.15,2s4.85.17,7.28.18c1.19,0,2.4.14,3.58.13,2,0,3.31,1.34-.84-.86L82.88,87a24.37,24.37,0,0,1,4.52,0l-1.06-2.56c-1.65,1.4-6.21.65-8.33.71l-4.74.11c-.81,0-4.15-.42-3.52.48.83,1.19,5.65.65,7,.78,3,.28,5.51,1.86,8.46,2.31l.4-2.95a67.08,67.08,0,0,1-11.16,0c-1.93-.16-1.92,2.84,0,3a67.08,67.08,0,0,0,11.16,0c1.55-.13,2.2-2.67.4-2.94-2.6-.4-4.84-1.82-7.45-2.26a47.71,47.71,0,0,0-7.74-.51c-1.84,0-5.55.37-4.61,3.37s6.86,1.72,8.92,1.67c4-.09,10,1.13,13.29-1.65,1.08-.92.11-2.46-1.06-2.56a24.37,24.37,0,0,0-4.52,0c-1.37.12-2.19,2-.76,2.79,1.94,1,11,3.8,8.76-1.45-1-2.22-4.09-3.09-6.2-3.33-2.44-.28-5-.06-7.43-.13-1.15,0-7.7.34-8.2-.7L68.81,83c1.27-1.16,9.85,0,11.84.06,3.47,0,7.3.59,10.71,0a1.47,1.47,0,0,0,1-1c.61-2.83-2-3.89-4.48-4.33-6-1.07-12.68-.08-18.75-.35l1.45,1.9c.68-2.23.72-5.35,3.22-6.55,2.16-1,6.05-.31,8.34,0l-.4-2.94-9.94,2.1c-1.8.37-1.15,2.76.4,2.94,5.83.69,11.78-.39,17.44,1.53l.4-3c-7.43-.2-14.75-.22-21.93,1.92a1.5,1.5,0,0,0,.4,2.94A136,136,0,0,0,83.1,79c2.35,0,6.83.74,8.82-.55,4-2.58-.48-6.57-3.23-7.75l.69,1.7a9.23,9.23,0,0,1,3.33-1.55,1.51,1.51,0,0,0-.39-3,43.33,43.33,0,0,0-12.6,1.8,1.51,1.51,0,0,0,.39,3c3.4.28,11.5,1.89,14.22-.74,1.68-1.62.59-4-1.1-5-3.12-1.79-8.51-.63-11.76.22A30.4,30.4,0,0,0,69,74l2.36,1.82c1.91-2.52,6-5.87,5.63-9.25a1.52,1.52,0,0,0-2.56-1.06,36.71,36.71,0,0,0-6.91,9,1.51,1.51,0,0,0,2.36,1.81c5.37-4.87,15.22-8.78,16.15-17.09.57-5-3.85-5.78-6.49-2.16a1.51,1.51,0,0,0,1.3,2.25,8,8,0,0,1,2.68-.12l-1.45-1.9c-.78,3.89-4.36,5.6-7.14,8-1.18,1,.08,2.87,1.46,2.51,3.67-1,13.57-8.07,8.66-12.63-1.76-1.63-3.38-.69-4.46,1.07-1.63,2.68-2.48,4.61-4.91,6.66s-5.26,4.06-7.89,6.08L70,70.63c.69-2.22,3.45-4.7,6-3.69l-.36-2.74c-3.85,2.41-7.34,5-8.71,9.49-.56,1.85,2.34,2.64,2.9.79Z" transform="translate(0)" style="fill: #d8e5ff"/>
        <path d="M59.25,70c.79,0,4.22-.55,4.9,0,1.47,1.18,1.15,4.9,1.25,6.66.13,2,1.18,9.61-.93,10.77l2.25,1.3-.27-19.44c0-1.38-2.17-2.19-2.8-.76-2.95,6.76-3,13.8-2.69,21l2.26-1.29c-.84-.42-.09-8.2-.09-9.43l0-9.54a1.51,1.51,0,0,0-1.9-1.45A13.76,13.76,0,0,0,57.32,70l2.56,1.07a6.11,6.11,0,0,0-.17-2.88c-.36-1.68-3-1.27-3,.4V83.8c0,1.89-.91,6,2,6.46,1.72.25,2.74-1.22,3-2.72.37-2.37-.21-5.26-.32-7.64L61,71.51c-.1-1.92-3.1-1.93-3,0l.41,8.39c.07,1.42-.14,3.67.24,5s.36,2.5,1.14.46,0-5.83,0-8V68.63l-2.95.4.07,2.08c-.16,1.45,1.68,1.75,2.56,1.06L62,70.77l-1.9-1.45,0,14.32c0,2.27-.88,6,1.57,7.24A1.52,1.52,0,0,0,64,89.58C63.71,83,63.53,76.25,66.25,70l-2.8-.75.27,19.44A1.52,1.52,0,0,0,66,90c4.46-2.45,2.67-11.55,2.25-15.65-.19-1.87-.1-5.09-1.55-6.54C65,66.17,61.28,67,59.25,67a1.5,1.5,0,0,0,0,3Z" transform="translate(0)" style="fill: #d8e5ff"/>
        <path d="M57.2,47c1-1.62,2-3.23,4-3.41.2,0,2.16.36,2.12.35L62.91,41c-3.7,1.12-6.76,2.48-8.27,6.2-.53,1.3,1.16,2.25,2.2,1.7l7.72-4.09c1.71-.9.2-3.44-1.52-2.59a17,17,0,0,0-3.86,2.63c-1.19,1.06.09,2.81,1.46,2.51l18.38-4c1.39-.3,1.47-2.66,0-2.89-5.8-.91-11.36-1.49-16.76,1.21a1.51,1.51,0,0,0,.36,2.74c4.52.86,5.37-3.69,9.33-4.12,1.52-.16,2.22-2.66.4-2.94a8.43,8.43,0,0,0-7.64,2.23,1.51,1.51,0,0,0,1.46,2.51c1.2-.45,2.54-1.74,3.68-2,1.87-.42,3.16,1.08,4.92,1.49a7.8,7.8,0,0,0,3.72,0C81.14,41,82,40.4,84.37,42.69l1.46-2.51c-3.71-1.29-7.41-4.06-10.69-.5a1.52,1.52,0,0,0,1.06,2.56l9.3.93-.4-3-6.55,1c-1.43.21-1.43,2.69,0,2.9a36.88,36.88,0,0,1,14,4.92c1.23.73,2.93-.79,2-2-2-2.93-5.39-3.56-7.9-5.94l-1.06,2.56c3.7.14,6.13.11,8.38,3.53l2-2.06a18,18,0,0,0-5.24-2.76,1.51,1.51,0,0,0-1.69,2.2c3.78,5.66,11.24,8,13.94,14.4l2.35-1.82q-4.12-4.92-8-10.06l-1.7,2.21a5.6,5.6,0,0,1,4.89,3.31h3a16.64,16.64,0,0,0-1.58-5.4c-.62-1.3-3-.71-2.79.76a12.63,12.63,0,0,0,2.17,6.27,18.23,18.23,0,0,0,2.18,2.29,6.1,6.1,0,0,1,3.65,5.9,20.93,20.93,0,0,1-.33,3.87h2.9L106,56.63a1.51,1.51,0,0,0-2.89,0c-1.3,4.14,1.31,7.11,2.62,10.93a26.22,26.22,0,0,1-.18,16.92l2.89.8,2.78-19.17-2.51.66c3,3-.49,9.09-.24,12.84.09,1.34,2.13,2.23,2.79.76l.65-1.44h-2.59c2,2.78-7,7.44-3.39,11.7a1.51,1.51,0,0,0,2.51-.66l.79-1.89h-2.59c1.06,1.91-7,6.6-8.37,7.87l2.12,2.12a41.78,41.78,0,0,0,8.32-15.88,1.5,1.5,0,0,0-2.89-.79A38.3,38.3,0,0,1,98.31,96a1.5,1.5,0,0,0,2.12,2.12c3.29-3,12.14-5.58,8.84-11.51a1.52,1.52,0,0,0-2.59,0,5.15,5.15,0,0,0-1.1,2.62l2.51-.67c-1.53-1.81,6.83-7.05,3.86-11.09-.59-.8-2.08-1.13-2.59,0l-.65,1.44,2.8.75c-.34-5.2,3.8-10.57-.64-15-.72-.72-2.34-.5-2.5.66l-2.78,19.17a1.5,1.5,0,0,0,2.89.8,29.34,29.34,0,0,0,1.38-13.34c-.53-4-5-10.85-3.82-14.51h-2.89L106.94,67c.47,1.18,2.66,1.64,2.9,0,.38-2.7.8-5.53-.18-8.16-1.69-4.55-6.79-5.51-7.39-11l-2.8.76,1.17,3.88c.24,1.85,3.13,2,3,0-.29-4.17-3.27-5.58-7.09-6.21-1.12-.18-2.57,1-1.7,2.21Q98.95,54,103.3,59.19c1.2,1.43,3-.4,2.36-1.82C102.88,50.81,95.54,48.69,91.72,43L90,45.18a15,15,0,0,1,4.52,2.46c1.21.92,2.84-.85,2-2-1-1.46-1.95-3.74-3.62-4.56-1.83-.9-5.39-.38-7.35-.45a1.51,1.51,0,0,0-1.06,2.56c2.18,2.07,5.7,2.84,7.43,5.33l2-2a39.08,39.08,0,0,0-14.7-5.23v2.9l6.55-1c1.8-.26,1.15-2.79-.4-2.94l-9.3-.93,1.06,2.56c1.76-1.91,5.83.6,7.77,1.27a1.5,1.5,0,0,0,1.46-2.5c-1-.93-2.54-3.06-4-3.41a5.22,5.22,0,0,0-1.8.12c-1.82.2-1.28.75-4,.79-2.5,0-3.64-1.18-5.86-1.19s-3.51,1.7-5.39,2.38l1.46,2.51,4.72-1.46.4-3c-2.87.31-6.12,4.69-8.53,4.22l.35,2.75c4.66-2.33,9.51-1.69,14.45-.91V40.53l-18.38,4L61.3,47a9.75,9.75,0,0,1,3.26-2.17L63,42.25l-7.71,4.09L57.53,48c1.07-2.61,3.82-3.4,6.17-4.11a1.51,1.51,0,0,0-.4-3c-1.69-.17-3.34-1.2-5-.36s-2.8,3.49-3.67,4.9c-1,1.65,1.57,3.16,2.59,1.52Z" transform="translate(0)" style="fill: #d8e5ff"/>
        <path d="M53,100.27c1.67,3.12,6.67,3.84,9.7,5v-2.89c-2.65.45-5.25-1.31-7.76-1.84-1.31-.27-2.74,1.5-1.46,2.51,1.68,1.32,2.16,3.55,4,4.65,2.12,1.3,5.37,1,7.71,1a1.5,1.5,0,0,0,.39-2.94L59.1,104v2.89c5.22-1.69,10.9.9,15.94,2.39l.39-3-9.42.15a1.51,1.51,0,0,0-.76,2.79c2.26,1.5,3.9,3.12,6.64,2.54,3.92-.84,7.49-2.63,11.52-3.23,1.74-.26,1.21-2.87-.4-3q-4.52-.21-9-.14a1.5,1.5,0,0,0,0,3,46.09,46.09,0,0,0,13.61-1.84l-1.46-2.51c-2.31,2.22-4.52,5.66-8.54,3.92l-.36,2.74a67.2,67.2,0,0,0,17.85-6.21l-2.21-1.69c-.34,1.91-3.94,1.89-5.39,2.28a1.52,1.52,0,0,0,0,2.9c1.82.56,4.88,1.35,6.51-.15a4.41,4.41,0,0,0,.91-1.44c1.12-2.42,1.24-4.37,3.88-6l-2-2-1,1.67c-.64.78-.56,2.28.66,2.5,4.85.88,8.29-2.56,7.22-7.42a1.52,1.52,0,0,0-2.74-.36,10.76,10.76,0,0,1-4.13,4.71l2.2,1.69.92-3.79A1.51,1.51,0,0,0,97.38,96a35.14,35.14,0,0,1-14.62,8.2,1.51,1.51,0,0,0,0,2.89l2,.57a1.5,1.5,0,0,0,.79-2.9l-2-.56v2.89a38.55,38.55,0,0,0,16-9L97,96.7l-.91,3.79a1.52,1.52,0,0,0,2.2,1.7,13.48,13.48,0,0,0,5.21-5.78l-2.74-.36-3.53,3.73.66,2.51A7.28,7.28,0,0,0,99.32,100c.56-1.28-.65-2.89-2-2.05a10.61,10.61,0,0,0-3.83,3.58c-1.6,2.62-.92,5-5.16,3.65v2.9c3.21-.88,6.76-.37,7.49-4.38a1.53,1.53,0,0,0-2.21-1.7,64.3,64.3,0,0,1-17.13,5.91,1.51,1.51,0,0,0-.36,2.74c5.82,2.52,8-.35,12.18-4.39a1.51,1.51,0,0,0-1.46-2.51A43.06,43.06,0,0,1,74,105.5v3q4.51-.07,9,.14l-.4-2.94a46.64,46.64,0,0,0-8,2c-3.48,1.18-4.74,1.1-7.88-1l-.75,2.8,9.42-.15a1.5,1.5,0,0,0,.4-2.94c-5.66-1.68-11.62-4.3-17.52-2.39a1.51,1.51,0,0,0,0,2.89l6.45,1.72.4-3c-2.87,0-5.1,0-7.14-2.06a26.35,26.35,0,0,0-2.4-2.73l-1.46,2.51c3.37.71,5.83,2.43,9.36,1.83,1.6-.27,1.23-2.43,0-2.89-2-.73-6.85-1.61-7.91-3.58-.91-1.7-3.5-.19-2.59,1.52Z" transform="translate(0)" style="fill: #d8e5ff"/>
        <path d="M54.1,45.92c-4.58,1.58-7.23,2.22-8.1,7.5-.18,1.13,1,2.55,2.21,1.69a66.79,66.79,0,0,1,7.61-4.81L54,47.94A53.63,53.63,0,0,0,42.79,61.38l2.75,1.15c.1-.58.53-5.35,1-5.53l-1.15-2.74c-6.16,3.32-3.16,7-6.16,12.39-2,3.63-2,5.86-.05,9.76.74,1.48,2.64.56,2.8-.76A40.8,40.8,0,0,1,44.88,64.2c1.11-2.61,3.1-4,4.58-6.28l-2.74-1.15c-1.43,3.84-3.76,7.36-4.88,11.32s-.74,8.2.17,12.26c2,9.08,6.2,14.63,12.59,21.16L55.27,99l-5.76-4.12-2.79.76c1.31,3,3.94,2.09,2.65-1-.58-1.41-1.53-2.08-2.51-3.18-2.64-3-2.51-3.18-2.46-6.45l-2.8.76c2.19,5.08,2.31.38,1.81-2-.36-1.75-3.27-5.48-2.17-7.12H38.65a8.21,8.21,0,0,1,1,4.85c0,1.93,3,1.93,3,0a13.76,13.76,0,0,0-1.42-6.36,1.52,1.52,0,0,0-2.59,0c-1.57,2.33-1.51,3.67-.11,5.92,1.24,2,2,3,2.13,5.38a24.85,24.85,0,0,0,.06,3.23,4.3,4.3,0,0,0,1.12,2.59,2.46,2.46,0,0,0,3.62-.42c1.53-2.09-.43-5.59-1.28-7.56-.62-1.44-2.77-.61-2.79.76,0,3.36-.56,5.69,2.22,7.93a8,8,0,0,1,3.43,5,8.67,8.67,0,0,0,.4,1.69,3.94,3.94,0,0,0,1.47,1.66,2.58,2.58,0,0,0,3.65-.89c1.76-3.07-2.3-4.11-3.26-6.29-.58-1.33-3-.7-2.8.75.68,5.18,4.39,8,9.55,7a1.5,1.5,0,0,0,.66-2.5c-2.55-2.61-5.39-5.16-7.45-8.19-2.33-3.44-3.49-7.63-4.37-11.65-1.94-8.82,1.8-14.14,4.71-22,.61-1.66-1.86-2.53-2.74-1.16s-2.38,2.22-3.33,3.6a20.3,20.3,0,0,0-1.84,4A45.55,45.55,0,0,0,39,75.65l2.79-.75c-1.38-2.79-.57-4.71.67-7.26a13.78,13.78,0,0,0,1-1.87c1.14-3.56-1-6.5,3.49-8.92,1.46-.78.45-3.38-1.16-2.74-2.92,1.18-2.59,4.87-3.07,7.62a1.51,1.51,0,0,0,2.75,1.16A51.45,51.45,0,0,1,56.12,50.06c1.32-1.15-.37-3.15-1.82-2.36a70.18,70.18,0,0,0-7.61,4.82l2.21,1.69c.65-4,2.8-4.29,6-5.4,1.81-.62,1-3.52-.8-2.89Z" transform="translate(0)" style="fill: #d8e5ff"/>
        <path d="M96.63,69.75a4.55,4.55,0,0,0-4.55-4.55H83.71A13.82,13.82,0,0,0,87.33,58a5.07,5.07,0,0,0-1.21-3.88,4.41,4.41,0,0,0-3.26-1.5h0a4.54,4.54,0,0,0-4.55,4.52,5.87,5.87,0,0,1-1.66,2.26,12.9,12.9,0,0,1-4.93,2.89,5.94,5.94,0,0,0-2.53,1.66,17,17,0,0,1-1.72,1.58,2.5,2.5,0,0,0-1.19-.3H58.29a2.57,2.57,0,0,0-2.57,2.56V89a2.57,2.57,0,0,0,2.57,2.57h7.95a2.57,2.57,0,0,0,2.24-1.33H88.76a3.9,3.9,0,0,0,3.9-3.89,3.94,3.94,0,0,0-.54-2A3.88,3.88,0,0,0,93.44,79a3.91,3.91,0,0,0,1.87-3.33,3.86,3.86,0,0,0-.68-2.19,4.54,4.54,0,0,0,2-3.77Zm-4.55,2.07h-.67a1.25,1.25,0,0,0,0,2.49,1.41,1.41,0,1,1,0,2.81H90.09a1.25,1.25,0,0,0,0,2.49,1.41,1.41,0,1,1,0,2.81H88.76a1.25,1.25,0,0,0,0,2.49,1.41,1.41,0,1,1,0,2.81h-20v-12a1.24,1.24,0,0,0-2.48,0V89a.08.08,0,0,1-.08.08H58.29A.08.08,0,0,1,58.2,89V67.76a.09.09,0,0,1,.09-.08h7.95a.09.09,0,0,1,.08.08v2.65a1.24,1.24,0,1,0,2.48,0V67.76a.91.91,0,0,0,0-.17,19.22,19.22,0,0,0,2.17-2,3.57,3.57,0,0,1,1.49-1,15.49,15.49,0,0,0,6-3.59c1.42-1.4,2.27-2.86,2.27-3.9a2,2,0,0,1,.6-1.45,2.1,2.1,0,0,1,1.49-.6,1.91,1.91,0,0,1,1.42.66,2.57,2.57,0,0,1,.6,2c-.27,2.47-2.25,5.52-5,7.77a1.24,1.24,0,0,0,.78,2.21H92.08a2.07,2.07,0,1,1,0,4.14Zm0,0" transform="translate(0)" style="fill: #2478ff"/>
        <g style="clip-path: url(#clip-path)">
          <path d="M62.26,83.73A1.25,1.25,0,1,0,63.51,85a1.26,1.26,0,0,0-1.25-1.25Zm0,0" transform="translate(0)" style="fill: #2478ff"/>
          <path d="M113,74.39l2.13-5.65a1.23,1.23,0,0,0-.19-1.21l-3.77-4.71.28-6a1.24,1.24,0,0,0-.56-1.1l-5-3.31-1.6-5.83a1.23,1.23,0,0,0-.87-.87l-5.82-1.59-3.31-5a1.24,1.24,0,0,0-1.1-.56l-6,.28L82.37,35a1.21,1.21,0,0,0-1.21-.19l-5.65,2.13-5.65-2.13a1.21,1.21,0,0,0-1.21.19l-4.71,3.77-6-.28a1.24,1.24,0,0,0-1.1.56l-3.31,5-5.82,1.59a1.23,1.23,0,0,0-.87.88l-1.6,5.82-5,3.31a1.24,1.24,0,0,0-.56,1.1l.28,6-3.77,4.71a1.23,1.23,0,0,0-.19,1.21l2.13,5.65L35.93,80a1.24,1.24,0,0,0,.19,1.22L39.89,86l-.28,6a1.24,1.24,0,0,0,.56,1.1l5,3.31,1.6,5.82a1.2,1.2,0,0,0,.87.87l5.82,1.59,3.31,5a1.24,1.24,0,0,0,1.1.56l6-.29,4.71,3.78a1.23,1.23,0,0,0,1.21.19l5.65-2.13L81.16,114a1.32,1.32,0,0,0,.44.08,1.23,1.23,0,0,0,.77-.27L87.08,110l6,.29a1.24,1.24,0,0,0,1.1-.56l3.31-5,5.82-1.59a1.2,1.2,0,0,0,.87-.87l1.6-5.82,5-3.31a1.24,1.24,0,0,0,.56-1.1l-.28-6,3.77-4.71a1.24,1.24,0,0,0,.19-1.22Zm-2.49.44,2,5.42-3.63,4.52a1.28,1.28,0,0,0-.27.84l.28,5.79-4.85,3.18a1.28,1.28,0,0,0-.52.71L102,100.88l-5.59,1.53a1.28,1.28,0,0,0-.71.52l-3.18,4.84-5.79-.27a1.24,1.24,0,0,0-.83.27l-4.53,3.63L76,109.35a1.25,1.25,0,0,0-.88,0l-5.42,2.05-4.52-3.63a1.28,1.28,0,0,0-.84-.27l-5.79.27-3.18-4.84a1.28,1.28,0,0,0-.71-.52L49,100.88l-1.53-5.59a1.28,1.28,0,0,0-.52-.71L42.13,91.4l.27-5.79a1.28,1.28,0,0,0-.27-.84L38.5,80.25l2-5.42a1.21,1.21,0,0,0,0-.88l-2-5.42L42.13,64a1.24,1.24,0,0,0,.27-.83l-.27-5.79L47,54.2a1.28,1.28,0,0,0,.52-.71L49,47.89l5.59-1.53a1.26,1.26,0,0,0,.71-.51L58.5,41l5.79.28a1.34,1.34,0,0,0,.84-.27l4.52-3.63,5.42,2a1.21,1.21,0,0,0,.88,0l5.42-2L85.9,41a1.29,1.29,0,0,0,.83.27L92.52,41l3.18,4.85a1.26,1.26,0,0,0,.71.51L102,47.89l1.53,5.6a1.28,1.28,0,0,0,.52.71l4.85,3.18-.28,5.79a1.24,1.24,0,0,0,.27.83l3.63,4.53-2,5.42a1.21,1.21,0,0,0,0,.88Zm0,0" transform="translate(0)" style="fill: #2478ff"/>
        </g>
        <path d="M98.85,52.94c-.31-.33-.63-.67-1-1s-.65-.65-1-1a1.24,1.24,0,0,0-1.68,1.83l.92.88c.3.3.59.61.88.92a1.21,1.21,0,0,0,.91.4,1.23,1.23,0,0,0,.84-.32,1.25,1.25,0,0,0,.08-1.76Zm0,0" transform="translate(0)" style="fill: #2478ff"/>
        <path d="M92.49,47.6A31.72,31.72,0,0,0,51.18,94.76a1.23,1.23,0,0,0,1,.45,1.27,1.27,0,0,0,.8-.29,1.25,1.25,0,0,0,.15-1.75A29.23,29.23,0,0,1,91.15,49.7a1.25,1.25,0,1,0,1.34-2.1Zm0,0" transform="translate(0)" style="fill: #2478ff"/>
        <path d="M102.24,57.35a1.25,1.25,0,0,0-2.1,1.34A29.23,29.23,0,0,1,56.68,96.76a1.24,1.24,0,1,0-1.6,1.9,31.55,31.55,0,0,0,20.38,7.43c.43,0,.87,0,1.3,0a31.73,31.73,0,0,0,25.48-48.71Zm0,0" transform="translate(0)" style="fill: #2478ff"/>
      </g>
    </g>
  </g>
</svg>
