<svg xmlns="http://www.w3.org/2000/svg" xmlns:xlink="http://www.w3.org/1999/xlink" viewBox="0 0 150 150">
  <defs>
    <clipPath id="clip-path" transform="translate(0)">
      <rect x="35.85" y="34.91" width="79.32" height="79.48" style="fill: none"/>
    </clipPath>
  </defs>
  <title>four</title>
  <g id="Слой_1" data-name="Слой 1">
    <rect width="150" height="150" style="fill: none"/>
  </g>
  <g id="Слой_2" data-name="Слой 2">
    <g id="Слой_3" data-name="Слой 3">
      <g>
        <g style="clip-path: url(#clip-path)">
          <path d="M75.68,96c-.81.57-2,1.33-2.33,2.33-.36,1.27.85,2.15,1.62,2.94s1.74,2.14,3.09,1.57a2.7,2.7,0,0,0,1.25-3.08,4.32,4.32,0,0,0-5-3.14A2.84,2.84,0,0,0,72,98.35a2.4,2.4,0,0,0,1,2.87c1.64,1,3.15-1.57,1.51-2.59l.3.7-.19.26s.25-.09.29-.09a2.3,2.3,0,0,1,.86.12,1.19,1.19,0,0,1,.48.32c.09.11.09.27.17.37s-.09.15,0,0l1.06-.44h-.2l1.06.44a19,19,0,0,1-2.46-2.53l.39.67,0-.15v.8l0-.13-.39.66a7.1,7.1,0,0,1,1.31-1.14,1.55,1.55,0,0,0,.54-2.06,1.51,1.51,0,0,0-2-.53Z" transform="translate(0)" style="fill: #d8e5ff"/>
          <path d="M41.73,65.78a3.53,3.53,0,0,1-.84-.59c-.06-.06-.23-.34-.3-.36l-.08.37a.27.27,0,0,1,.16-.08c.1.07.26,0,.39.1.28.28-.15.43.3.13l.76-.21v0l.66.38c.85.82-.51,1.29.4,1a5,5,0,0,0,.72-.3A2.54,2.54,0,0,0,45,65.08a1.55,1.55,0,0,0-.54-2,1.5,1.5,0,0,0-2.05.54c0,.06,0,0-.31.15s-.48.17-.72.28a2.65,2.65,0,0,0-1.15,1,2.2,2.2,0,0,0,.4,2.62,2,2,0,0,0,3.11-.61,3.28,3.28,0,0,0,0-3.09,3.42,3.42,0,0,0-5.3-1c-2,1.88-.2,4.35,1.73,5.38,1.7.9,3.22-1.69,1.51-2.59Z" transform="translate(0)" style="fill: #d8e5ff"/>
          <path d="M43.47,71a13.12,13.12,0,0,1,4.31,4.67l2-2a2.28,2.28,0,0,1-1.78-2.55,14.68,14.68,0,0,0,1,1.46c1.06.89,2,2,3,2.9a74.49,74.49,0,0,1,7.05,6.83c4.37,4.85,8.45,9.81,13.89,13.51V93.21l-2.19,1.47c-.78.82-1,.62-.78-.61-.6-.48-1-1.56-1.57-2.14-1.86-1.82-4.53-2.28-6.45-4.07s-3.77-4.5-5.58-6.67c-2.26-2.71-4.77-5.31-6.41-8.45l-2.35,1.82c5.31,6.68,12.19,12,18.62,17.51l1.82-2.35a39.37,39.37,0,0,1-10.67-12c-2.34-4-5.48-6.5-9-9.46a1.52,1.52,0,0,0-2.56,1.06c-.57,4.94,5.34,10.27,8.45,13.45a136.85,136.85,0,0,0,15.39,13c1.54,1.17,3-1.44,1.52-2.59A152.47,152.47,0,0,1,59,83c-3.1-2.92-10.56-9.09-10-13.73l-2.56,1.06a52.06,52.06,0,0,1,6.41,5.72c1.86,2.19,3,4.89,4.73,7.22a42.13,42.13,0,0,0,9.14,9c1.36,1,3.1-1.25,1.82-2.36C62,84.4,55.16,79.11,49.85,72.43c-1.1-1.38-3.11.38-2.36,1.82,1.76,3.37,4.46,6.17,6.88,9.06,2.27,2.73,4.41,6.2,7.42,8.16,2.3,1.51,3.77,1.67,5.71,4.11.52.65.75,2,1.68,2.43,2,.85,3.92-1.22,5.4-2.21a1.52,1.52,0,0,0,0-2.59c-5.22-3.55-9.11-8.4-13.29-13a65.52,65.52,0,0,0-6-5.94c-2.12-1.82-3.58-4.16-5.53-6s-4.74-1.93-6,.84c-1.48,3.35,1.94,5.9,4.48,7.18a1.52,1.52,0,0,0,2-2.06A16.29,16.29,0,0,0,45,68.44C43.37,67.36,41.87,70,43.47,71Z" transform="translate(0)" style="fill: #d8e5ff"/>
          <path d="M103.51,48.67a38.16,38.16,0,0,0,0,13.77c.84,5.22.35,10.77.26,16s-.23,10.48-.43,15.73-1.33,11.1,0,16.21l4.83-6.33L64,103.62c-6.44-.08-6.44,9.92,0,10l44.21.48a5.05,5.05,0,0,0,4.82-6.33c-1.21-4.54.23-10.83.39-15.52s.28-9.18.36-13.76c.07-4.4.31-8.87.06-13.27-.27-4.8-1.58-9.06-.69-13.89,1.16-6.29-8.47-9-9.64-2.66Z" transform="translate(0)" style="fill: #d8e5ff"/>
          <path d="M110.67,43.29h-5.28V39.57a4.66,4.66,0,0,0-4.66-4.66H52.61A4.66,4.66,0,0,0,48,39.57V63.25l-2-2a5.9,5.9,0,0,0-8.35,8.34L48,79.93v21.42A4.66,4.66,0,0,0,52.61,106h5.28v3.72a4.66,4.66,0,0,0,4.65,4.66h48.13a4.66,4.66,0,0,0,4.65-4.66V48a4.66,4.66,0,0,0-4.65-4.66ZM52.61,38h48.12a1.54,1.54,0,0,1,1.55,1.55v61.78a1.54,1.54,0,0,1-1.55,1.55H81.85l-4-9.63a1.49,1.49,0,0,0-.34-.49L67.15,82.44,51.06,66.35V39.57A1.54,1.54,0,0,1,52.61,38ZM43,70.57l4-4L74.19,93.87l-4,4Zm32.87,26,2.07,5-5-2.08ZM39.77,63.4a2.81,2.81,0,0,1,3.95,0l1,1-3.95,4-1-1a2.79,2.79,0,0,1,0-3.95Zm11.29,37.95V83l18.08,18.08a1.56,1.56,0,0,0,.5.33l3.46,1.45H52.61a1.54,1.54,0,0,1-1.55-1.55Zm61.16,8.38a1.56,1.56,0,0,1-1.55,1.56H62.54A1.56,1.56,0,0,1,61,109.73V106h39.74a4.66,4.66,0,0,0,4.66-4.66V46.4h5.28A1.55,1.55,0,0,1,112.22,48Zm0,0" transform="translate(0)" style="fill: #2478ff"/>
        </g>
        <path d="M60.84,46.4H92.51a1.56,1.56,0,0,0,0-3.11H60.84a1.56,1.56,0,0,0,0,3.11Zm0,0" transform="translate(0)" style="fill: #2478ff"/>
        <path d="M92.51,50.9H81.64a1.56,1.56,0,0,0,0,3.11H92.51a1.56,1.56,0,0,0,0-3.11Zm0,0" transform="translate(0)" style="fill: #2478ff"/>
        <path d="M92.51,73.72H81.64a1.56,1.56,0,0,0,0,3.11H92.51a1.56,1.56,0,0,0,0-3.11Zm0,0" transform="translate(0)" style="fill: #2478ff"/>
        <path d="M71.7,73.72H67.15a1.56,1.56,0,0,0,0,3.11H71.7a1.56,1.56,0,1,0,0-3.11Zm0,0" transform="translate(0)" style="fill: #2478ff"/>
        <path d="M92.51,81.4H81.64a1.55,1.55,0,0,0,0,3.1H92.51a1.55,1.55,0,0,0,0-3.1Zm0,0" transform="translate(0)" style="fill: #2478ff"/>
        <path d="M60.84,54H71.7a1.56,1.56,0,1,0,0-3.11H60.84a1.56,1.56,0,0,0,0,3.11Zm0,0" transform="translate(0)" style="fill: #2478ff"/>
        <path d="M60.84,61.61H86.3a1.55,1.55,0,0,0,0-3.1H60.84a1.55,1.55,0,0,0,0,3.1Zm0,0" transform="translate(0)" style="fill: #2478ff"/>
        <path d="M92.51,58.51A1.55,1.55,0,1,0,93.6,59a1.56,1.56,0,0,0-1.09-.45Zm0,0" transform="translate(0)" style="fill: #2478ff"/>
        <path d="M60.84,69.22H92.51a1.55,1.55,0,0,0,0-3.1H60.84a1.55,1.55,0,0,0,0,3.1Zm0,0" transform="translate(0)" style="fill: #2478ff"/>
      </g>
    </g>
  </g>
</svg>
