<svg xmlns="http://www.w3.org/2000/svg" viewBox="0 0 150 150">
  <title>nine</title>
  <g id="Слой_1" data-name="Слой 1">
    <rect width="150" height="150" style="fill: none"/>
  </g>
  <g id="Слой_2" data-name="Слой 2">
    <g id="Слой_3" data-name="Слой 3">
      <g>
        <path d="M72.13,58.1C66.24,59.77,60.56,62.61,59,69.05s2.13,11.34,7.56,14.29c5,2.7,12.17,4,16.91.22,4.17-3.28,7.31-9.07,6.83-14.43-1.08-12.18-19.43-17-24.09-4.52-2,5.31-1.7,12.58,4.33,14.86s12.74-2.16,12.4-8.7c-.4-7.68-12.41-7.73-12,0,4.5,2.11,6.61,1.73,6.3-1.14.36-.74.22-.92-.4-.54-.1,0,1,.26,1.11.54a4.7,4.7,0,0,1-2.14,4.8c1.78-1.3,0-.51-1.15-.75a9,9,0,0,1-3.87-1.89c.64.53-1.18,1,.1-.35,1.06-1.09,3-1.37,4.42-1.76,7.42-2.1,4.26-13.68-3.19-11.58Z" transform="translate(0)" style="fill: #d8e5ff"/>
        <path d="M51.83,33.44l23.44.05,11.72,0c2,0,10.8-1.09,11.94.25l.3-2.35c-3.08,2.19-8.64,1.27-12.19,1.3l-12.55.1L50.35,33l1.5,1.5,0-1.68-1.1,1.44a15.7,15.7,0,0,0,3.16-.85l-1.85-1c.21,1.4-3.52,4.23-4.46,5A29.78,29.78,0,0,1,40,41.8a1.53,1.53,0,0,0-.36,2.75c4,2.21,6.8-.93,10.23-2.92,3.27-1.89,6-3.51,5.25-7.69a1.51,1.51,0,0,0-2.51-.67c-3,3.78-8,10.23-13.22,10.57a1.55,1.55,0,0,0-1.5,1.5A64.38,64.38,0,0,0,38,54.76a1.5,1.5,0,0,0,3,0L42.05,46l-2.8.76a17.68,17.68,0,0,1,2,6,1.51,1.51,0,0,0,2.9,0,37.84,37.84,0,0,0,.56-7.21,1.5,1.5,0,0,0-3,0l-.15,20.2,2.95-.4A143.14,143.14,0,0,1,42,50.84a1.5,1.5,0,0,0-3,0,109.46,109.46,0,0,0,.53,26c.23,1.68,3,1.27,2.94-.4L42,65.21l-2.8.76c2,4.25,1,9.16,2.88,13.5.69,1.54,2.63.5,2.8-.76A53.26,53.26,0,0,0,44.69,64c-.23-1.56-2.49-1.29-2.89,0a43.38,43.38,0,0,0-1,22.3c.38,1.79,2.76,1.15,3-.4a39.41,39.41,0,0,0,.12-8.55c-.17-1.89-3.1-2-3,0,.25,4.87.71,9.48,3.21,13.76a1.51,1.51,0,0,0,2.74-1.16,60.1,60.1,0,0,1-2.68-12.73l-3,.4a130.46,130.46,0,0,0,8.69,22.32L52,97.83c-5.43-3.09-7.11-8.73-8.55-14.43a1.52,1.52,0,0,0-2.9,0c-1.13,5.25,2,10.08,4.57,14.46s6,8.32,10.79,10.5c1.44.66,3.17-1.11,1.82-2.35a29,29,0,0,1-6.29-8.22l-2,2.06a57.25,57.25,0,0,1,9.44,8.7c1.27,1.45,3.38-.67,2.12-2.12a61,61,0,0,0-10-9.17c-1.31-1-2.68.84-2.06,2a31.11,31.11,0,0,0,6.76,8.82l1.82-2.36a20.63,20.63,0,0,1-8.93-8.15c-2.37-3.67-6-9-5.05-13.42h-2.9c1.66,6.53,3.79,12.72,9.93,16.23a1.52,1.52,0,0,0,2.06-2.06,125.6,125.6,0,0,1-8.39-21.6c-.45-1.56-3.12-1.34-2.94.4A65,65,0,0,0,44,90.7l2.75-1.16c-2.23-3.82-2.57-7.92-2.8-12.24h-3a39.41,39.41,0,0,1-.12,8.55l2.95-.4a40.22,40.22,0,0,1,1-20.71H41.8a49.91,49.91,0,0,1,.05,14L44.64,78c-1.9-4.31-.84-9.17-2.88-13.5-.64-1.35-2.85-.67-2.79.76l.47,11.19,3-.4A106.42,106.42,0,0,1,42,50.84H39a153.77,153.77,0,0,0,2.68,15.34c.38,1.67,2.93,1.27,2.94-.4l.15-20.2h-3A31.45,31.45,0,0,1,41.28,52h2.9a21.63,21.63,0,0,0-2.34-6.73c-.77-1.44-2.63-.59-2.79.76L38,54.76h3a64.39,64.39,0,0,1-.08-9.42l-1.5,1.5C45.67,46.43,51.06,40,54.73,35.4l-2.51-.67c.46,2.55-8.9,8.4-11.06,7.23L40.8,44.7c4.55-1.91,15-7.07,14.14-13.14a1.52,1.52,0,0,0-1.85-1,15.6,15.6,0,0,1-3.15.85,1.53,1.53,0,0,0-1.11,1.45l0,1.68a1.52,1.52,0,0,0,1.5,1.5l28-.22,13.52-.11c3.18,0,6.2.24,8.88-1.67a1.54,1.54,0,0,0,.3-2.36c-1.49-1.75-4.16-1.12-6.25-1.12l-14.64,0-28.33,0a1.5,1.5,0,0,0,0,3Z" transform="translate(0)" style="fill: #d8e5ff"/>
        <path d="M55.37,109.09l7.78,4.71c1.7,1,3-1.45,1.51-2.59a7,7,0,0,1-3.33-4.74l-2.56,1.06a64.74,64.74,0,0,0,15.66,9.84l.36-2.75c-6.09,1.24-12-3.74-16.57-7.15l-1.52,2.59c3.82,2.69,7.73,5.23,11.79,7.54,2.24,1.28,4.38,2.8,7.05,2.67,7-.35,14.43-7.35,19.95-11,1.35-.89.54-3.32-1.15-2.74-6.24,2.12-11,8.75-18,7.92l.75,2.8c7.11-3.23,15.23-4.32,20.41-10.69a1.51,1.51,0,0,0-1.81-2.36L81.55,112c-1.45.81-.47,3.35,1.16,2.74,12-4.45,19.74-17.62,26.57-27.74l-2.75-1.16c-1.61,8.76-9,14.39-13.17,21.88A1.5,1.5,0,0,0,96,109.24a86.74,86.74,0,0,0,16.31-40l-2.94-.4c.37,7.31-1.76,14-4.83,20.54l2.75.36c-.95-5.27,1.73-9.07,2.44-14.1s0-10.15,1.77-15.08l-3-.4a68.94,68.94,0,0,1-.37,13.24c-.24,1.91,2.77,1.9,3,0a68.94,68.94,0,0,0,.37-13.24,1.51,1.51,0,0,0-3-.4c-2.1,5.81-.72,11.92-2.29,17.79-1.29,4.8-2.83,7.91-1.92,13a1.52,1.52,0,0,0,2.75.36c3.29-7,5.63-14.2,5.23-22-.08-1.58-2.71-2.16-2.95-.4a85,85,0,0,1-16,39.29L96,109.24c4.33-7.76,11.8-13.51,13.48-22.6a1.51,1.51,0,0,0-2.74-1.16c-6.32,9.36-13.66,22.25-24.78,26.37l1.15,2.74,14.15-7.83-1.82-2.35c-5,6.08-13,7.13-19.8,10.22-1.52.69-.53,2.64.76,2.79,7.73.91,12.05-5.74,18.79-8L94,106.65C89,110,82.46,116.13,76.42,117c-3.38.5-6.7-2.12-9.43-3.77-3-1.82-5.91-3.75-8.77-5.77-1.6-1.12-3,1.46-1.52,2.59,5.46,4.06,11.72,8.91,18.89,7.46a1.51,1.51,0,0,0,.36-2.74,62.07,62.07,0,0,1-15.06-9.37,1.52,1.52,0,0,0-2.56,1.06c.18,3.42,2.2,5.33,4.82,7.33l1.51-2.59-7.78-4.71c-1.65-1-3.16,1.59-1.51,2.59Z" transform="translate(0)" style="fill: #d8e5ff"/>
        <path d="M97.14,35.66c2.33,5.5,8,12.36,14.45,8.51.88-.53,1.08-2.13,0-2.59-2.45-1.06-5.39-1.85-7.22-3.82-1.47-1.58-2-3.72-3.09-5.57-.87-1.4-3.27-.51-2.74,1.16A22.88,22.88,0,0,0,101,39c1.55,2.41,3.83,4,5.06,6.6,1.43,3,.41,6.08.21,9.32s-.17,6.74-.12,10.11a1.5,1.5,0,0,0,2.94.4c2.13-7.19,2.74-14.57,3.24-22h-3q.25,12.2.07,24.38c0,1.93,3,1.93,3,0q.19-12.2-.07-24.38a1.5,1.5,0,0,0-3,0c-.48,7.18-1.07,14.28-3.13,21.21l3,.4c0-3.68-.1-7.36.18-11,.19-2.54,1.07-5.44.57-8a8.65,8.65,0,0,0-2.66-4.47c-2.65-2.88-4.65-5.08-5.85-8.92l-2.74,1.16c1.23,2,1.71,4.52,3.32,6.28,2,2.17,5.45,3,8.07,4.18V41.58l-6.3-1.24a10.18,10.18,0,0,1-1.89-2.25,18.92,18.92,0,0,1-2.16-4c-.75-1.77-3.33-.24-2.59,1.52Z" transform="translate(0)" style="fill: #d8e5ff"/>
        <path d="M75.59,34.62a1.88,1.88,0,1,0,1.88,1.88,1.88,1.88,0,0,0-1.88-1.88Zm0,0" transform="translate(0)" style="fill: #2478ff"/>
        <path d="M113.29,38.39A9.44,9.44,0,0,1,103.86,29,1.88,1.88,0,0,0,102,27.08H49.2A1.88,1.88,0,0,0,47.32,29a9.44,9.44,0,0,1-9.42,9.43A1.88,1.88,0,0,0,36,40.27V71a54.74,54.74,0,0,0,39,52.47,1.68,1.68,0,0,0,.54.08,1.64,1.64,0,0,0,.54-.08,54.74,54.74,0,0,0,39-52.47V40.27a1.88,1.88,0,0,0-1.88-1.88ZM111.4,71a50.7,50.7,0,0,1-35.81,48.7A51,51,0,0,1,39.78,71V42A13.21,13.21,0,0,0,51,30.85h49.28A13.22,13.22,0,0,0,111.4,42Zm0,0" transform="translate(0)" style="fill: #2478ff"/>
        <path d="M106.5,44.51a17,17,0,0,1-8.76-8.76A1.88,1.88,0,0,0,96,34.62H83.13a1.89,1.89,0,1,0,0,3.77H94.82a20.73,20.73,0,0,0,9,9V71a42.93,42.93,0,0,1-28.27,40.73A42.93,42.93,0,0,1,47.32,71V47.43a20.68,20.68,0,0,0,9-9h11.7a1.89,1.89,0,0,0,0-3.77H55.17a1.88,1.88,0,0,0-1.73,1.13,17,17,0,0,1-8.76,8.76,1.88,1.88,0,0,0-1.13,1.73V71A46.91,46.91,0,0,0,75,115.54a1.74,1.74,0,0,0,.63.11,1.71,1.71,0,0,0,.63-.11A46.9,46.9,0,0,0,107.63,71V46.24a1.88,1.88,0,0,0-1.13-1.73Zm0,0" transform="translate(0)" style="fill: #2478ff"/>
        <path d="M75.59,54.6a17,17,0,1,0,17,17,17,17,0,0,0-17-17Zm0,30.15a13.19,13.19,0,1,1,13.2-13.19,13.2,13.2,0,0,1-13.2,13.19Zm0,0" transform="translate(0)" style="fill: #2478ff"/>
        <path d="M84.46,66.46a1.87,1.87,0,0,0-2.66,0l-8.09,8.09-2.44-2.44a1.89,1.89,0,0,0-2.67,2.67l3.77,3.77a1.9,1.9,0,0,0,2.67,0l9.42-9.43a1.87,1.87,0,0,0,0-2.66Zm0,0" transform="translate(0)" style="fill: #2478ff"/>
      </g>
    </g>
  </g>
</svg>
