<svg xmlns="http://www.w3.org/2000/svg" xmlns:xlink="http://www.w3.org/1999/xlink" viewBox="0 0 150 150">
  <defs>
    <clipPath id="clip-path" transform="translate(0)">
      <rect x="34.33" y="26.01" width="81.35" height="97.67" style="fill: none"/>
    </clipPath>
  </defs>
  <title>one</title>
  <g id="Слой_1" data-name="Слой 1">
    <rect width="150" height="150" style="fill: none"/>
  </g>
  <g id="Слой_2" data-name="Слой 2">
    <g id="Слой_3" data-name="Слой 3">
      <path d="M51.31,79.56c-2,5.36-4.15,10.64-6.27,15.94s-4,10.91-7.1,15.74c-.79,1.22.82,2.93,2.05,2.06,4.34-3.08,10-2.58,14.06-6.24,1.2-1.07-.09-2.77-1.45-2.5A26,26,0,0,0,43.69,108l2.05,2c2.21-3.31,6.16-4.63,9.41-6.67A1.5,1.5,0,0,0,54,100.66a33.31,33.31,0,0,0-11.83,5.75c-1.5,1.13-.14,3.68,1.51,2.59a107.12,107.12,0,0,0,11.58-8.89c1.07-1-.07-3.09-1.46-2.51a72.66,72.66,0,0,0-12.52,6.61l1.51,2.6c4.78-3.34,9.39-6.71,13-11.36A1.51,1.51,0,0,0,54,93.1a30.64,30.64,0,0,0-8.2,5.48c-1.23,1.13.44,3.4,1.82,2.36,3.52-2.68,8.27-5.33,10.48-9.25a1.52,1.52,0,0,0-1.7-2.21A31.08,31.08,0,0,0,45.55,95c-1.4,1.1.38,3.09,1.82,2.36a30.64,30.64,0,0,0,10.37-8.51,1.51,1.51,0,0,0-1.82-2.36,24,24,0,0,0-7.8,6.25,1.5,1.5,0,0,0,2.12,2.13c2.93-2.66,5.38-5.27,6.92-8.94.54-1.28-1.17-2.27-2.2-1.69a29.35,29.35,0,0,0-6.73,5.1l2.12,2.12a58.29,58.29,0,0,0,5.76-8.59c.66-1.2-.78-3-2-2.06a18.42,18.42,0,0,0-4.29,4.56c-1,1.45,1.16,2.95,2.36,1.81a46.88,46.88,0,0,0,5-5.61H54.56C56.78,84.72,57.15,87,61,88.2c1.14.35,6.21.56,6.8,1.39s-3,6.07-3.61,7.09L67,97.83l1.75-7.61A1.51,1.51,0,0,0,66,89.06a47.26,47.26,0,0,1-3.78,5.15L64.55,96c1.07-2.3,2.84-4.86,3.07-7.43a1.47,1.47,0,0,0-.74-1.3c-2.65-1.19-6.29-1.23-9.13-1.68a1.51,1.51,0,0,0-1.16,2.74,20,20,0,0,0,7.62,3.14V88.6A8.21,8.21,0,0,1,58,87.66a1.5,1.5,0,0,0-1.51,2.59,20.8,20.8,0,0,0,6.77,3.18l.8-2.89c-3.89-1.05-5.65-4.36-7.3-7.68-.72-1.46-2.66-.58-2.79.76a15.29,15.29,0,0,0,.35,5.14c.43,1.88,3.32,1.09,2.9-.8A9.13,9.13,0,0,1,57,83.62l-2.8.76c2.09,4.22,4.34,7.77,9.09,9.05a1.5,1.5,0,0,0,.8-2.89A18.9,18.9,0,0,1,58,87.66l-1.51,2.59c2.9,1.28,5.38,2.11,8.5,1.25,1.35-.38,1.5-2.6,0-2.9a18,18,0,0,1-6.9-2.83L57,88.51c.93.15,6.23.37,6.66,1.07.72,1.14-1,3.59-1.65,4.93s1.17,3.23,2.35,1.82a54.34,54.34,0,0,0,4.25-5.75l-2.74-1.16L64.07,97a1.51,1.51,0,0,0,2.74,1.15c1.36-2.22,5.25-7.7,3.39-10.54-.68-1.05-2.21-1-3.29-1.25-1.41-.3-3.8-.42-5.08-1.1-2.24-1.18-3.31-3.29-4.68-5.21a1.53,1.53,0,0,0-2.59,0,41.62,41.62,0,0,1-4.55,5l2.35,1.82a11.36,11.36,0,0,1,3.21-3.48l-2-2.05a53.68,53.68,0,0,1-5.29,8c-1.18,1.47.72,3.52,2.12,2.12a27,27,0,0,1,6.12-4.63l-2.2-1.69c-1.32,3.13-3.69,5.37-6.15,7.6l2.12,2.13a22.53,22.53,0,0,1,7.19-5.79l-1.81-2.36a28.59,28.59,0,0,1-9.76,8l1.81,2.35a27,27,0,0,1,9.48-4.77l-1.69-2.21c-2,3.48-6.32,5.84-9.41,8.18l1.82,2.35a28.39,28.39,0,0,1,7.6-5l-1.82-2.36c-3.43,4.44-7.8,7.7-12.37,10.88-1.57,1.1-.11,3.67,1.51,2.6a68,68,0,0,1,11.8-6.32L53.13,98a99.38,99.38,0,0,1-11,8.43L43.68,109a31.41,31.41,0,0,1,11.11-5.45l-1.15-2.74c-3.82,2.4-7.91,3.87-10.49,7.75-.84,1.26.81,2.81,2.05,2a24.29,24.29,0,0,1,8.19-3.16l-1.46-2.51c-3.73,3.36-9.37,2.87-13.45,5.77l2.05,2.05c2.93-4.52,4.68-9.66,6.67-14.63,2.36-5.91,4.81-11.79,7-17.77.67-1.81-2.23-2.6-2.89-.8Z" transform="translate(0)" style="fill: #d8e5ff"/>
      <path d="M50.3,109a33.69,33.69,0,0,1,5.09,9.49,1.51,1.51,0,0,0,2.89,0c2.49-7,3.54-15.31,7-21.9l-2.75-.36c1.16,3.58-2.18,7.93-3.55,11.11-1.07,2.47-2,5-2.88,7.55l2.74-.36c-2.35-5.21,1.7-9.15,3.94-13.4a43.46,43.46,0,0,0,3.57-9.49,1.51,1.51,0,0,0-2.74-1.16c-3.83,6-7.46,12-9.31,18.86a1.51,1.51,0,0,0,2.9.8,79.56,79.56,0,0,1,6.4-16.3,1.51,1.51,0,0,0-2-2.05C56,95,53.59,103.28,51.51,109c-.67,1.82,2.22,2.59,2.89.8,1.11-3,1.1-5.91,1.78-9,.77-3.46,3-5.59,5-8.34,1-1.37-.85-2.59-2.05-2.06a15,15,0,0,0-9.07,14c0,1.8,2.35,1.88,2.94.4a81.85,81.85,0,0,1,3.64-7.83c.9-1.71-1.68-3.22-2.59-1.51A89.13,89.13,0,0,0,50.14,104l3,.4A12.08,12.08,0,0,1,60.67,93L58.62,91c-1.86,2.59-4.07,4.47-5,7.6-1,3.43-.84,7-2.11,10.42l2.89.8c1.74-4.78,4-12.65,8.7-15.37l-2.05-2a83,83,0,0,0-6.71,17l2.9.8c1.78-6.67,5.31-12.39,9-18.14L63.5,90.87c-1.56,6-5.06,10.46-7.42,16a10.68,10.68,0,0,0,.21,9.19c.57,1.27,2.37.75,2.74-.35a129.77,129.77,0,0,1,5.45-12.92c1.18-2.53,1.86-4.63,1-7.34a1.52,1.52,0,0,0-2.74-.35C59.08,102,58,110.39,55.39,117.72h2.89a36.56,36.56,0,0,0-5.39-10.2c-1.15-1.53-3.75,0-2.59,1.51Z" transform="translate(0)" style="fill: #d8e5ff"/>
      <path d="M80.4,89.59c2.4,2,2.79,5,3.79,7.84a41,41,0,0,0,2.8,5.63c2.52,4.69,4,10,5.81,15a1.52,1.52,0,0,0,2.9,0c1.41-3.4,1-6.58,3.55-9.7l-2.51-1.46a27.5,27.5,0,0,1-3.68,6.86l2.74,1.15a20.82,20.82,0,0,0,1.65-8.09,1.51,1.51,0,0,0-2.79-.76l-2.84,4.54,2.8.75.95-8.37c.18-1.67-2.68-2.07-2.95-.4a7.7,7.7,0,0,1-1.24,3.69l2.79.75-.39-7.8c-.06-1.36-2.12-2.21-2.79-.76l-1.89,4.1,2.79.75a72.69,72.69,0,0,1,0-8.35,1.5,1.5,0,0,0-2.94-.4,10.1,10.1,0,0,1-1.5,3.86l2.74.36a23.48,23.48,0,0,1-.08-5.92c.17-1.77-2.43-1.91-3-.4l-1.81,5.3,2.94.4a42.54,42.54,0,0,1,.78-10.62c.32-1.55-2-2.81-2.74-1.16l-1.69,3.84,2.79.76a32.36,32.36,0,0,0-.36-4.4,1.5,1.5,0,0,0-2.2-.9,11,11,0,0,0-3.1,3.14l2.35-.31c2.39,3,13-6,14.65-7.07l-2-.53a31.53,31.53,0,0,1,2.92,5.55l2.5-1.46a33.37,33.37,0,0,0-4.34-4.23,1.52,1.52,0,0,0-2.5.66c-1,3.26.77,7.61,1.41,10.85l2.2-1.69c-2-1.42-2.52-5.37-4.09-7.38-.66-.84-1.85-.37-2.36.3l-4.9,6.44c-.9,1.18.88,2.92,2,2l6.15-4.53a1.5,1.5,0,0,0-1.51-2.59,17.3,17.3,0,0,0-6.58,4.8,1.51,1.51,0,0,0,1.46,2.51,36.93,36.93,0,0,0,10-4.35l-2.2-1.69a12.28,12.28,0,0,1-5.26,7l1.51,2.59a37.54,37.54,0,0,0,7.87-7l-2.51-.66-.57,4c-.7,1.46,1.11,3.13,2.36,1.82a8.17,8.17,0,0,0,2.52-6.24l-2.79.76c2.22,4.12,3.14,8.75,4.91,13.06,1.45,3.57,3.23,7,5,10.39l2.36-1.82c-3.07-2.71-8-3.87-12-4.18-3.68-.28-5.27,3.42-6.49,6.4-.65,1.6,1.91,2.58,2.75,1.15.51-.85,1-1.72,1.48-2.6l-1.7-.69c.34.59-2,3.25-2.31,3.8l2.79.76c.18-2-.38-8.71,2.27-9.44,1.23-.35,7.1,1.54,7.78,2.58l1.3-2.25c-3.44-.27-7.82-.17-10.5-2.75l-1.06,2.56,10.08,1.29c1.18.15,1.81-1.37,1.3-2.26A137.31,137.31,0,0,1,100.3,89l-2.89.8a110,110,0,0,1,4.28,12.1l2.5-1.46c-2.84-2.43-4.36-5.5-5.84-8.86-.69-1.54-3.36-.44-2.75,1.15a58.45,58.45,0,0,0,5.94,11.49l2-2c-5-2.15-6-7.91-8.46-12.21a1.56,1.56,0,0,0-1.69-.69c-2.41.33-5.3.16-6.46,2.63A1.53,1.53,0,0,0,87.52,94c2.07,1,3.65-.51,5.68.22l.4-2.95a7.92,7.92,0,0,0-3.65.25A1.52,1.52,0,0,0,89.29,94q3.64,4.52,7.64,8.69l2.12-2.12a40.07,40.07,0,0,1-5.79-6.21c-1.14-1.46-3,.4-2.36,1.81A41.06,41.06,0,0,0,94,102l2.35-1.82-2.29-2.06A1.51,1.51,0,0,0,91.71,100l.72,1.69c.76,1.77,3.35.24,2.59-1.51l-.72-1.7-2.36,1.82,2.29,2.07c1.21,1.09,3.31-.32,2.36-1.82a41.62,41.62,0,0,1-3.1-5.82L91.14,96.5a39.62,39.62,0,0,0,5.79,6.21c1.46,1.22,3.48-.7,2.12-2.12-2.67-2.8-5.21-5.68-7.64-8.69l-.66,2.5,2.85-.14c1.78.16,1.9-2.41.4-2.94s-3.76.69-5,.08l.54,2c.53-1.13,3.75-1.13,4.67-1.25l-1.7-.69c2.81,4.86,3.93,10.84,9.53,13.28,1.24.53,3-.67,2.06-2.06A53.78,53.78,0,0,1,98.5,92l-2.75,1.15c1.61,3.61,3.28,6.88,6.32,9.47a1.52,1.52,0,0,0,2.51-1.46A107.93,107.93,0,0,0,100.3,89c-.74-1.75-3.64-1-2.89.8a145.4,145.4,0,0,0,8,16.17l1.3-2.26-10.08-1.29c-1.33-.17-1.92,1.72-1.06,2.56,3.34,3.23,8.22,3.28,12.62,3.63a1.51,1.51,0,0,0,1.29-2.26c-1-1.55-2.13-1.89-3.88-2.41-2.22-.67-6.31-2.66-8.73-2.1-3.94.92-2.8,10.22-3,12.88-.12,1.51,2.11,2,2.8.75,1.14-2,3.77-4.27,2.31-6.82a1.56,1.56,0,0,0-1.69-.69c-1.76.27-2.52,2.69-3.27,4l2.74,1.15c1.58-3.87,2.58-4.2,6.57-3.51,2.41.42,5,1,6.91,2.62a1.51,1.51,0,0,0,2.36-1.82,96.62,96.62,0,0,1-6-13.13c-1.2-3.53-2.12-7-3.9-10.32a1.52,1.52,0,0,0-2.8.76L98.2,91.84l2.36,1.82a9.48,9.48,0,0,0,.88-6.36,1.51,1.51,0,0,0-2.51-.66,35.31,35.31,0,0,1-7.26,6.49c-1.6,1.07-.11,3.66,1.51,2.59a15.74,15.74,0,0,0,6.64-8.81,1.52,1.52,0,0,0-2.2-1.7,34.74,34.74,0,0,1-9.29,4l1.46,2.51a15.71,15.71,0,0,1,6-4.33l-1.51-2.59L88.1,89.37l2.05,2L95.05,85l-2.35.3c2.06,2.63,1.85,5.78,4.7,7.85,1.15.84,2.43-.54,2.2-1.69-.46-2.34-2.13-6.94-1.41-9.26l-2.51.66A33.37,33.37,0,0,1,100,87.08c.94,1.1,3.07-.07,2.51-1.46a37.12,37.12,0,0,0-3.22-6.27,1.54,1.54,0,0,0-2.06-.54A97.32,97.32,0,0,1,89,84.29c-1.84,1-5,.87-6.49,2.15S80.81,89.09,82,90.6a1.52,1.52,0,0,0,2.36-.31l2-2.06-2.2-.9a19,19,0,0,1,.25,3.61c0,1.38,2.17,2.19,2.8.76l1.69-3.84L86.18,86.7a45.12,45.12,0,0,0-.89,11.42,1.51,1.51,0,0,0,2.95.4l1.81-5.3-2.94-.4a27.48,27.48,0,0,0,.19,6.72c.18,1.31,2.16,1.4,2.74.36a17.41,17.41,0,0,0,1.8-4.58l-3-.4a72.69,72.69,0,0,0,0,8.35c.08,1.36,2.12,2.22,2.8.76l1.89-4.1-2.8-.75.39,7.8a1.52,1.52,0,0,0,2.8.76,12.62,12.62,0,0,0,1.54-4.4l-2.94-.4-.95,8.37c-.18,1.57,2.07,1.92,2.79.76l2.84-4.54-2.8-.75a18.88,18.88,0,0,1-1.54,7.3c-.69,1.65,1.84,2.47,2.74,1.15a30.12,30.12,0,0,0,4-7.57c.46-1.38-1.55-2.63-2.5-1.46-2.93,3.57-2.66,7-4.33,11h2.9c-1.89-5.24-3.46-10.76-6.12-15.68-2.42-4.47-3-10.67-7.06-14.07-1.46-1.24-3.59.87-2.12,2.12Z" transform="translate(0)" style="fill: #d8e5ff"/>
      <path d="M62.27,54.86c3.49.36,7.27.59,10.12-1.82,2.45-2.08,2.81-5.62,4.16-8.38l-2.8-.76c.31,5.38,2.56,10.73,8.71,9.34a1.51,1.51,0,0,0,0-2.89,8.06,8.06,0,0,1-5.3-4.61c-.64-1.38-2.84-.67-2.8.76l.17,6.42,2.8-.75a9.87,9.87,0,0,1-1-3.24,1.51,1.51,0,0,0-2.51-.66c-1.42,1.7-2,3.52-4.48,4.24a1.5,1.5,0,0,0,.79,2.9c3.65-.69,7.25-1.52,10.84-2.48l-1.16-2.74a30.29,30.29,0,0,1-6.34,2.18c-1.75.44-1.19,2.78.4,3a16.31,16.31,0,0,0,5.68-.77A27.66,27.66,0,0,1,88,54.18l-.76-2.79C83.82,53.11,80,52.1,76.7,53.9a1.51,1.51,0,0,0,.75,2.79,28.1,28.1,0,0,0,9.35-1.35l-1.7-2.21c-.81,1.31-2.86,1.73-4.07,2.59a14.93,14.93,0,0,0-3.13,3.07c-.85,1.06-.11,3,1.46,2.51,2.59-.85,3.06-2.93,5.2-4.46l-2.2-1.69c-.45,2.37-1.78,4.35-1.86,6.81A17.84,17.84,0,0,0,82.07,69l2.74-1.16a13.54,13.54,0,0,1-2.44-10.36c.24-1.54-1.93-2.81-2.75-1.16-2.22,4.5-2.68,8.88.62,12.91l1.82-2.36c-2.23-1.43-3-4.42-3.09-6.82,0-.77-.2-3.2.85-3.47L78,54.77c-.3,2.13-1.35,4-1.76,6.07-.28,1.46.05,2.78-.06,4.22l1.5-1.5c-1.41.07-2.25-.81-3.91-.37-2.65.7-5.43,2.47-7.71,3.9l2.21,1.7c1.05-3,3.68-8.91,2-12.12-1.08-2-4.78-3.67-6.91-3.72a1.52,1.52,0,0,0-1.5,1.5c0,2.67,4.53,4.44,6.32,5.7a1.51,1.51,0,0,0,2.26-1.3,25.16,25.16,0,0,0-.94-6.08l-2.2,1.7c3.48,2.13.93,7,0,9.79-.49,1.58,1.43,2.3,2.51,1.46,3.9-3,3.68-7.72,4.49-12.19l-3-.4-1.11,10c-.17,1.45,1.67,1.75,2.56,1.06,2.67-2.11,3.61-5.85,4.18-9.05a1.5,1.5,0,0,0-2.89-.79c-.78,2.43-2.69,7-.74,9.27a1.46,1.46,0,0,0,1.46.39c2.49-.86,2.5-4,2.77-6.27h-3c0,1.34,0,2.64-.09,4L77,60.64c-2-2-4.05-4.28-6.48-5.76-2.23-1.36-6.36-1-8.17-2.6L61.3,54.84c1.84-.18,3.66.14,5.48-.17,2.09-.36,4-1.41,6.07-2a1.51,1.51,0,0,0-.8-2.9c-1.61.44-3.1,1.2-4.7,1.63-2,.54-4,.2-6,.4-1.17.12-2.13,1.62-1.06,2.56,1.83,1.6,3.35,1.25,5.69,1.85,3.72,1,6.29,4,9,6.51a1.52,1.52,0,0,0,2.56-1.06c.09-1.34.12-2.64.09-4,0-2-2.77-1.87-3,0L74.16,60c1.14,2.09,1.67,2.1,1.58,0,.58-1.35.74-3.47,1.2-4.92l-2.89-.79C73.56,57.07,73,60.21,70.64,62l2.56,1.07,1.11-10c.19-1.67-2.64-2.06-2.94-.4C70.68,56.55,71,61,67.65,63.6l2.51,1.46c1.47-4.73,3.78-10-1.43-13.19a1.52,1.52,0,0,0-2.2,1.7,17.14,17.14,0,0,1,.83,5.28l2.26-1.3c-.44-.3-4.85-3-4.84-3.1L63.28,56c6.5.16,3.24,8.7,2.07,12a1.51,1.51,0,0,0,2.2,1.69,18.1,18.1,0,0,1,10.1-3.12,1.54,1.54,0,0,0,1.5-1.5c.12-1.59-.13-3.21.3-4.78a38.15,38.15,0,0,0,1.42-4.71A1.53,1.53,0,0,0,79,53.72C72.43,55.4,76.6,67,80.54,69.49c1.53,1,2.84-1.11,1.82-2.35-2.5-3.07-1.64-6.24-.15-9.27l-2.74-1.16a16.67,16.67,0,0,0,2.75,12.67c.89,1.31,3.4.53,2.74-1.15C84.23,66.38,83.23,64,83.5,62s1.37-4,1.75-6c.21-1.15-1-2.52-2.21-1.69-1.57,1.13-2.71,3.58-4.48,4.15L80,60.91c2.17-2.71,5.91-3.41,7.67-6.26A1.52,1.52,0,0,0,86,52.44a25.58,25.58,0,0,1-8.55,1.25l.76,2.8c3.09-1.69,7.24-.85,10.54-2.51,1.44-.72.61-2.69-.75-2.8a32.12,32.12,0,0,0-6.72,0c-2.57.34-4.77,1.46-7.43,1.19l.4,2.94a34.4,34.4,0,0,0,7.06-2.48c1.54-.77.45-3.18-1.16-2.74-3.59,1-7.19,1.78-10.83,2.47l.79,2.9c3.46-1,3.59-2.36,5.82-5l-2.51-.66a16.69,16.69,0,0,0,1.32,4c.63,1.38,2.83.66,2.79-.76l-.17-6.42-2.8.75a10.5,10.5,0,0,0,7.1,6V50.35c-4.13.93-4.77-4-4.91-6.45-.08-1.37-2.1-2.19-2.79-.76s-1.06,2.7-1.67,4c-2.41,5.14-5.07,5.23-10,4.72-1.92-.19-1.9,2.81,0,3Z" transform="translate(0)" style="fill: #d8e5ff"/>
      <path d="M69.07,31.9c6.59-.73,13.69-1.38,18.79,3.71l1.46-2.51c-4.85-1-9.43-2.89-14.46-2.75A39.22,39.22,0,0,0,61.23,32.8l1.46,2.51a15.4,15.4,0,0,1,7.9-3.76l-1.16-2.74A43.06,43.06,0,0,0,52.21,42.34L55,43.5c.92-4.92,4.26-7.63,8.6-9.52L62,31.39C54.69,35,49.92,41.58,47.39,49.23c-1.06,3.23-4.13,14.11,2.26,14a1.47,1.47,0,0,0,1.29-.74c1-2.09.3-4.67.32-6.9a22.27,22.27,0,0,1,4-12.48c1.07-1.61-1.52-3.12-2.59-1.51a25.78,25.78,0,0,0-4,9.46,26.79,26.79,0,0,0-.41,5.36c0,2.35,0,4.6.59,1.06C50.41,47.6,54.07,38.59,63.55,34c1.76-.85.22-3.34-1.51-2.59-5.06,2.2-8.94,5.73-10,11.31a1.51,1.51,0,0,0,2.74,1.15A40.29,40.29,0,0,1,70.94,31.4c1.66-.72.4-3-1.15-2.75a18.34,18.34,0,0,0-9.22,4.54c-1.08,1,.06,3.08,1.45,2.51a36.46,36.46,0,0,1,12.84-2.35c4.73-.13,9.1,1.7,13.66,2.65A1.51,1.51,0,0,0,90,33.49c-5.72-5.71-13.39-5.43-20.91-4.59-1.9.21-1.92,3.21,0,3Z" transform="translate(0)" style="fill: #d8e5ff"/>
      <path d="M46,62a50.91,50.91,0,0,0,8.93,14.5c1.09,1.24,2.71-.14,2.5-1.46-.87-5.57-4.85-11.53-7.16-16.63-.64-1.4-2.81-.65-2.8.76,0,4.84-.65,9.38,2.21,13.49a31,31,0,0,0,11.08,9.44c7.1,3.67,19.84,7.32,25.63,0a1.51,1.51,0,0,0-1.82-2.36,30.43,30.43,0,0,1-14.79,1.9c-3.79-.52-10.88-3.83-12.66-7l-2,2.06,12.35,7.6.35-2.74a7.21,7.21,0,0,1-6.79-2.05l-1.82,2.36c6.65,4.26,15.7,7,23.44,4.15,7.34-2.67,13.34-8.92,17.3-15.46l-2.74-.36c.25,1.57-3.71,5.45-4.64,6.4-2,2.07-5.57,5.25-8.73,5l1.45,1.11c.12.34,7.62-4.13,8.18-4.61A40.18,40.18,0,0,0,100,70.18H97.41c1.65,2.3-7.77,9.21-9.19,10.33s.63,3.31,2.12,2.12c3.21-2.54,13.38-8.77,9.66-14a1.52,1.52,0,0,0-2.59,0,40.21,40.21,0,0,1-5,6.22c-2.43,2.33-4.53,2.89-7.4,4.3-1.76.87-3.4,2-2.66,4.24a1.54,1.54,0,0,0,1.44,1.1c4,.34,8.26-3.21,10.85-5.86,2.25-2.3,6-5.88,5.41-9.32C99.79,68,97.88,68,97.27,69,93.87,74.62,89,79.69,83,82.52c-7.26,3.41-16,.8-22.37-3.29-1.41-.9-3.18,1.3-1.82,2.35,3,2.36,5.84,4.06,9.71,2.82a1.52,1.52,0,0,0,.36-2.74l-12.34-7.6a1.51,1.51,0,0,0-2.06,2A10.9,10.9,0,0,0,59,80.62a34.68,34.68,0,0,0,8.7,3.73c5.69,1.26,13,.22,18.36-2L84.22,80c-5,6.42-17.43,2.25-23.3-1.17a29.45,29.45,0,0,1-7.75-6.48c-3.3-3.91-2.69-8.33-2.74-13.13l-2.8.75c2.22,4.89,6,10.62,6.87,15.91L57,74.39a46,46,0,0,1-8.16-13.17c-.72-1.76-3.62-1-2.89.8Z" transform="translate(0)" style="fill: #d8e5ff"/>
      <path d="M88.51,34.9c6.52,2.19,10.06,9.8,11.62,16l2.89-.8c-1.25-3.8-3.87-6.58-6.53-9.49-2.29-2.51-4.16-5.1-7.49-6.16-1.68-.53-2.53,1.84-1.16,2.75,5.17,3.39,8.44,6.59,10.38,12.59L101,48.6l-2.73-5.24c-.92-1.76-3.33-.22-2.59,1.51,1.82,4.27,3.72,8.78,3.82,13.49.1,4.49-1.61,8.37-3.46,12.37a1.51,1.51,0,0,0,2.35,1.82c6.18-5,7.9-16.7,4.21-23.6-.91-1.7-3.5-.19-2.59,1.52,3.08,5.75,1.3,15.87-3.74,20l2.36,1.82c2-4.42,4-8.9,3.87-13.88-.12-5.28-2.19-10.21-4.23-15l-2.59,1.51,2.73,5.24A1.51,1.51,0,0,0,101.11,49c-2.19-6.79-5.86-10.52-11.75-14.38L88.2,37.31c2.63.83,4.41,3.45,6.17,5.38,2.26,2.47,4.69,4.91,5.76,8.17a1.5,1.5,0,0,0,2.89-.8c-1.85-7.3-6.11-15.5-13.71-18.06-1.84-.61-2.62,2.28-.8,2.9Z" transform="translate(0)" style="fill: #d8e5ff"/>
    </g>
    <g>
      <g style="clip-path: url(#clip-path)">
        <path d="M115.45,112.83,102.54,81.66a1.56,1.56,0,0,0-2.88,1.19L111.34,111,100.69,108a1.55,1.55,0,0,0-1.8.74l-5.35,9.71L81,88.16A31.38,31.38,0,1,0,49.91,76.07L34.69,112.83a1.57,1.57,0,0,0,.28,1.64,1.54,1.54,0,0,0,1.59.45l12.56-3.64,6.31,11.46a1.54,1.54,0,0,0,1.36.8h.09a1.54,1.54,0,0,0,1.35-1L70.3,93.46a1.56,1.56,0,1,0-2.88-1.19L56.59,118.4l-5.34-9.71a1.55,1.55,0,0,0-1.8-.74L38.8,111,52.17,78.77a31.28,31.28,0,0,0,22.9,10q1.4,0,2.76-.12l14.08,34a1.54,1.54,0,0,0,1.35,1h.09a1.56,1.56,0,0,0,1.36-.8L101,111.28l12.56,3.64a1.55,1.55,0,0,0,1.87-2.09ZM46.82,57.37A28.25,28.25,0,1,1,75.07,85.62,28.28,28.28,0,0,1,46.82,57.37Zm0,0" transform="translate(0)" style="fill: #2478ff"/>
      </g>
      <path d="M93.05,51.53a1.57,1.57,0,0,0-1.22-1.06L81.36,48.72,76.45,39.3a1.55,1.55,0,0,0-2.76,0l-4.91,9.42L58.31,50.47a1.57,1.57,0,0,0-.86,2.63l7.45,7.58-1.57,10.5a1.55,1.55,0,0,0,2.23,1.62l9.51-4.73,9.5,4.73a1.56,1.56,0,0,0,.7.16,1.52,1.52,0,0,0,.91-.29,1.58,1.58,0,0,0,.63-1.49l-1.57-10.5,7.44-7.58a1.55,1.55,0,0,0,.37-1.57ZM82.48,59.05a1.57,1.57,0,0,0-.43,1.32l1.24,8.31-7.53-3.74a1.53,1.53,0,0,0-.69-.17,1.5,1.5,0,0,0-.69.17l-7.53,3.74,1.24-8.31a1.57,1.57,0,0,0-.43-1.32l-5.89-6,8.29-1.39a1.55,1.55,0,0,0,1.12-.82l3.89-7.45L79,50.84a1.59,1.59,0,0,0,1.13.82l8.29,1.39Zm0,0" transform="translate(0)" style="fill: #2478ff"/>
      <path d="M98.65,58.94a1.56,1.56,0,0,0-1.75,1.34,22,22,0,1,1,0-5.82,1.55,1.55,0,1,0,3.08-.41,25.14,25.14,0,1,0,0,6.64,1.55,1.55,0,0,0-1.33-1.75Zm0,0" transform="translate(0)" style="fill: #2478ff"/>
    </g>
  </g>
</svg>
