<svg xmlns="http://www.w3.org/2000/svg" xmlns:xlink="http://www.w3.org/1999/xlink" viewBox="0 0 150 150">
  <defs>
    <clipPath id="clip-path" transform="translate(0)">
      <rect x="35.85" y="30.59" width="79.32" height="89.84" style="fill: none"/>
    </clipPath>
  </defs>
  <title>seven</title>
  <g id="Слой_1" data-name="Слой 1">
    <rect width="150" height="150" style="fill: none"/>
  </g>
  <g id="Слой_2" data-name="Слой 2">
    <g id="Слой_3" data-name="Слой 3">
      <g>
        <path d="M43.5,101.51a1.16,1.16,0,0,0,1.28-.13l-3.49-3.49.16.49L42,94.52a18.57,18.57,0,0,0-1.65,8.11c0,2.07,1,6.35-.7,7.75-4.22,3.5.47,9.16,4.86,8.36l.57-.1c3.44-.63,4.24-4.7,3-7.35-1.41-3-.93-6.47-.47-9.64.39-2.69-.67-5.34-3.49-6.15-2.35-.67-5.76.83-6.15,3.5-.9,6.16-1.24,11.57,1.48,17.34l3-7.35-.58.11,4.87,8.35c3.34-2.77,3.78-7,3.71-11a34.11,34.11,0,0,1-.07-5.89c.32-2,1.35-3.1.61-5.29a5,5,0,0,0-3.49-3.5,21.66,21.66,0,0,0-3.94-.22c-6.43,0-6.45,10,0,10Z" transform="translate(0)" style="fill: #d8e5ff"/>
        <path d="M76.33,52.22C64.84,52,56.6,60.63,56.77,72c.15,10.09,9.17,17.76,18.81,18.7a16,16,0,0,0,12.59-4c5-4.12,6.26-8.44,6.9-14.68.51-5,1.55-9.42-2.46-13.15-3.64-3.39-8.73-7-13.88-7C67.9,51.75,62.3,63.63,63.19,73.11s11,16,19.64,10.73a13,13,0,0,0,6.22-10.29c.26-4.23-1.08-10.92-4.94-13.43-8.09-5.26-19.46,6.8-14,14.61,7,9.87,22.94-3,13.83-10.7-3.92-3.32-9.47-.67-10.79,3.92-1.5,5.22,2.91,10.19,8.24,8.49,6.11-2,3.5-11.61-2.66-9.64l-1,.3,3.85.51-.92-.55,2.3,3-.17,1.08-3.53,1.46q1.71-3.39-1.07-3.77A16.07,16.07,0,0,1,79.09,72c0,1.44-.29,2.92-1.86,3.52-4.22,1.61-4.33-4.5-3.91-6.92.59-3.4,2.65-7.81,6.82-6.43,1,.35,5,2.66,5.4,3.74.34.89-.18,3.17-.28,4.13-.41,4.1-.65,7.56-4.63,9.89-2.95,1.73-6.84.6-9.57-1.18-3.77-2.46-4.9-6-3.85-10.31s4.75-6.33,9.12-6.25c6.43.12,6.43-9.88,0-10Z" transform="translate(0)" style="fill: #d8e5ff"/>
        <path d="M76.59,79.62a1.21,1.21,0,0,0-.5,0,3.37,3.37,0,0,1-3-3.32,1.47,1.47,0,1,0-2.94,0,6.3,6.3,0,0,0,4.63,6.07v1.47a1.48,1.48,0,0,0,3,0V82.44A6.3,6.3,0,0,0,76.47,70a3.35,3.35,0,1,1,3.34-3.34,1.48,1.48,0,0,0,3,0,6.29,6.29,0,0,0-5-6.16V59.14a1.48,1.48,0,1,0-3,0v1.43a6.29,6.29,0,0,0,1.66,12.36,3.35,3.35,0,0,1,.12,6.69Zm0,0" transform="translate(0)" style="fill: #2478ff"/>
        <g style="clip-path: url(#clip-path)">
          <path d="M55.1,71.57A21.37,21.37,0,1,0,76.47,50.2,21.37,21.37,0,0,0,55.1,71.57ZM76.47,53.15A18.42,18.42,0,1,1,58.05,71.57,18.42,18.42,0,0,1,76.47,53.15Zm0,0" transform="translate(0)" style="fill: #2478ff"/>
          <path d="M105.1,96.57,93.56,102a9.41,9.41,0,0,0-8-5l-10.65-.29A11.37,11.37,0,0,1,70,95.54L69,95a19.13,19.13,0,0,0-17.72,0l.07-2.45A1.48,1.48,0,0,0,49.88,91L38.19,90.7a1.47,1.47,0,0,0-1.51,1.43L36,117.78a1.47,1.47,0,0,0,1.44,1.51l11.68.32h0a1.48,1.48,0,0,0,1.48-1.43l0-1.23,3-1.62a5.19,5.19,0,0,1,3.88-.43L75.69,120l.09,0a18.51,18.51,0,0,0,4,.41A19.4,19.4,0,0,0,88,118.63l.19-.1,26.28-17a1.47,1.47,0,0,0,.48-2,7.44,7.44,0,0,0-9.83-3ZM39,116.39l.62-22.7,8.74.24-.62,22.7Zm47.7-.39a16.71,16.71,0,0,1-10.22,1.14l-18.08-5.07a8.14,8.14,0,0,0-6.08.66l-1.55.83.42-15.09a16.18,16.18,0,0,1,16.45-.88l1.09.56a14.15,14.15,0,0,0,6.12,1.58l10.65.3a6.45,6.45,0,0,1,6.15,5.15l-15.88-.44a1.48,1.48,0,0,0-.08,3l17.52.48h0a1.47,1.47,0,0,0,1.47-1.44,9.4,9.4,0,0,0-.14-1.91l11.84-5.59,0,0a4.53,4.53,0,0,1,5.1.71Zm0,0" transform="translate(0)" style="fill: #2478ff"/>
        </g>
        <path d="M77.94,46.06v-14a1.48,1.48,0,0,0-3,0v14a1.48,1.48,0,0,0,3,0Zm0,0" transform="translate(0)" style="fill: #2478ff"/>
        <path d="M89,46.06V39.43a1.47,1.47,0,1,0-2.94,0v6.63a1.47,1.47,0,0,0,2.94,0Zm0,0" transform="translate(0)" style="fill: #2478ff"/>
        <path d="M66.89,46.06V39.43a1.48,1.48,0,1,0-3,0v6.63a1.48,1.48,0,0,0,3,0Zm0,0" transform="translate(0)" style="fill: #2478ff"/>
      </g>
    </g>
  </g>
</svg>
