<svg xmlns="http://www.w3.org/2000/svg" xmlns:xlink="http://www.w3.org/1999/xlink" viewBox="0 0 150 150">
  <defs>
    <clipPath id="clip-path" transform="translate(0)">
      <rect x="35.85" y="34.54" width="79.32" height="79.32" style="fill: none"/>
    </clipPath>
  </defs>
  <title>six</title>
  <g id="Слой_1" data-name="Слой 1">
    <rect width="150" height="150" style="fill: none"/>
  </g>
  <g id="Слой_2" data-name="Слой 2">
    <g id="Слой_3" data-name="Слой 3">
      <g>
        <g style="clip-path: url(#clip-path)">
          <path d="M44.61,39.9c-.59,4.31.92,5.75,3.11,9.14,1,1.55,1.36,3.35,2.4,4.86a8.69,8.69,0,0,0,1.72,1.91q2,2.28.68-1.61l3-2.29-.83.18,2.66,9.65A13.37,13.37,0,0,0,62.14,59c3.33-2.86.61-8.61-3.54-8.53-4.38.08-7.67,2.6-9.89,6.31l-1.07,1.35L48.78,58c.2-.77-.28-2.44-.32-3.3-.08-1.75.82-6.11-1.15-6.24l-3.53-1.47c.52.46.44,4.61,0,5.76-.62,1.82-2.36,2.8-3.24,4.47-1.75,3.32-1,9.82,1.41,12.71,1.5,1.81,3,3,4.32,5A23.55,23.55,0,0,0,51,80.4c3.45,3,4.87,7.31,8.76,9.81a20.33,20.33,0,0,1,4.75,3.62,19.69,19.69,0,0,0,5.18,4.44c3.5,2,6.77,5.34,10.6,6.52,8.15,2.52,19.32-3.38,17.32-12.72-1.14-5.35-8-4.1-9.64,0l-1.07,2.6c-2.28,5.58,6.11,8.14,9.14,3.85.17-.23,1.67-2.89,2.08-3.07L94.27,96c2.58,1.08,4.61,4.48,7.34,5.2l1.55,1.07c.79-3.2.81-4,0-2.48-1.15,1-.58,1.77-2.41,2.2-2.28.54-5.77-.78-8-1.33a65.67,65.67,0,0,1-9.45-3.2L82,107.24a54.51,54.51,0,0,0,19.06-3.31l-6.15-6.15-.36,1,2.3-3c-3.32,2.51-9.64,1.11-13.23-.2a26.77,26.77,0,0,1-11.78-8.89c-3-3.76-6.68-6.64-9.75-10.28C58.55,72.16,56.25,67,54,62c-2.72-5.82-11.34-.75-8.64,5.05,3.15,6.74,6.5,13.48,11.93,18.72C62,90.4,66,96.1,71.33,100.1a34.44,34.44,0,0,0,17.39,6.72c6,.55,13.45-.12,15.83-6.38,1.32-3.45-2.72-7.41-6.15-6.15A46.63,46.63,0,0,1,82,97.24c-6.06,0-6.22,7.77-1.32,9.82,6.4,2.68,14.34,5.39,21.41,4.86,5.32-.4,10.67-5.59,11.11-11,.48-5.92-8.63-10.1-12.77-12.69-6.61-4.13-9.21-.14-13,5.26l9.14,3.85,1.06-2.59H88c-.19-.89-2.77.39-3.53.42-1.84,0-2.53-.86-3.94-2-2.15-1.73-4.87-2.53-7-4.21s-3.42-4.24-5.87-5.79c-1.38-.88-2.74-1.3-3.74-2.62-.8-1.08-1.25-2.41-2.06-3.51-2-2.75-5-4.3-6.9-7.17-.78-1.19-1.37-2.37-2.26-3.49s-2.19-1.82-2.92-2.85c.14.19.07-2,0-1.93.25-.94,1.85-2.14,2.38-3.09a17.77,17.77,0,0,0,1.89-8.78c0-5.22-1.75-12.35-8.56-11.29-6.4,1-7.16,7.8-7.1,13,.06,5.94.09,13.43,6.58,16.07a8.5,8.5,0,0,0,7.58-.65c1.46-.84,5-6.41,6-6.43l-3.53-8.54-.39.2c-6,2.09-3.66,11.08,2.66,9.65a6.81,6.81,0,0,0,4.45-9.58c-.89-2-2.82-3.15-3.89-5-.15-.27-3.35-6.78-3.64-4.63.86-6.29-8.77-9-9.65-2.66Z" transform="translate(0)" style="fill: #d8e5ff"/>
          <path d="M112.9,95.59l-16-10.68a4.67,4.67,0,0,0-6.26,1l-4.67,6a2,2,0,0,1-2.56.54L82.52,92c-3-1.6-6.61-3.6-14-11s-9.38-11-11-14l-.49-.88a2,2,0,0,1,.53-2.57l6-4.66a4.67,4.67,0,0,0,1-6.26l-10.68-16a4.65,4.65,0,0,0-6.27-1.41l-6.69,4a9.44,9.44,0,0,0-4.31,5.59c-2.41,8.79-.6,24,21.74,46.3,17.77,17.77,31,22.55,40.1,22.55a23.12,23.12,0,0,0,6.19-.81,9.41,9.41,0,0,0,5.59-4.31l4-6.69a4.65,4.65,0,0,0-1.41-6.27Zm-.86,4.92-4,6.69a6.82,6.82,0,0,1-4,3.12c-8.11,2.23-22.29.38-43.73-21.06S37,53.64,39.2,45.52a6.8,6.8,0,0,1,3.12-4l6.7-4a2,2,0,0,1,2.72.61l5.8,8.71,4.87,7.3A2,2,0,0,1,62,56.82l-6,4.66a4.62,4.62,0,0,0-1.23,5.93l.48.86c1.69,3.09,3.78,6.94,11.43,14.59S78.15,92.6,81.24,94.29l.87.47A4.6,4.6,0,0,0,88,93.54l4.67-6a2,2,0,0,1,2.71-.44l16,10.69a2,2,0,0,1,.61,2.72Zm0,0" transform="translate(0)" style="fill: #2478ff"/>
        </g>
        <path d="M80.69,47.74A22.43,22.43,0,0,1,103.1,70.15a1.32,1.32,0,1,0,2.64,0,25.08,25.08,0,0,0-25-25.05,1.32,1.32,0,1,0,0,2.64Zm0,0" transform="translate(0)" style="fill: #2478ff"/>
        <path d="M80.69,55.65a14.52,14.52,0,0,1,14.5,14.5,1.32,1.32,0,1,0,2.64,0A17.16,17.16,0,0,0,80.69,53a1.32,1.32,0,1,0,0,2.64Zm0,0" transform="translate(0)" style="fill: #2478ff"/>
        <path d="M80.69,63.56a6.61,6.61,0,0,1,6.59,6.59,1.32,1.32,0,0,0,2.64,0,9.25,9.25,0,0,0-9.23-9.23,1.32,1.32,0,1,0,0,2.64Zm0,0" transform="translate(0)" style="fill: #2478ff"/>
      </g>
    </g>
  </g>
</svg>
