<svg xmlns="http://www.w3.org/2000/svg" xmlns:xlink="http://www.w3.org/1999/xlink" viewBox="0 0 150 150">
  <defs>
    <clipPath id="clip-path" transform="translate(0)">
      <rect x="35.85" y="29.01" width="79.32" height="91.2" style="fill: none"/>
    </clipPath>
  </defs>
  <title>three</title>
  <g id="Слой_1" data-name="Слой 1">
    <rect width="150" height="150" style="fill: none"/>
  </g>
  <g id="Слой_2" data-name="Слой 2">
    <g id="Слой_3" data-name="Слой 3">
      <g style="clip-path: url(#clip-path)">
        <path d="M57.89,59.32a33.82,33.82,0,0,0,3.32-6.88C61.73,51,59.72,50,58.7,51a17.55,17.55,0,0,0-3.6,5l2.74.36c-1.08-6.64,2.2-3.14,3.45-5.9.52-1.15.7-2.5,1.24-3.65.68-1.42-1.17-3.21-2.35-1.82a47.62,47.62,0,0,0-3.67,5l2.79.76c1.21-10.4,15.82-12.2,23.43-8.78a18.43,18.43,0,0,1,8.77,8.25,25.81,25.81,0,0,1,1.8,5.1c1,1.91.84,1.44-.44-1.39a12.44,12.44,0,0,1-.52-4.19h-3a13.46,13.46,0,0,0,1.45,4.74l2.59-1.52C90.87,49.25,87.22,40.38,82,40.32A1.51,1.51,0,0,0,81,42.88a46.65,46.65,0,0,0,8.09,6.24c1.42.88,3.1-1.2,1.81-2.35-2.86-2.55-3.48-5.32-7.48-6.38A34.79,34.79,0,0,0,71,39.71c-6.51.74-14.77,5-13.27,12.72a1.51,1.51,0,0,0,2.51.66c4.37-4.41,9.1-4.16,14.86-3.82a38.3,38.3,0,0,1,15.11,3.64,1.5,1.5,0,0,0,1.51-2.59c-4.18-3.13-8.54-6.22-13.89-6.73-5.92-.57-12.13,1.5-17.57,3.61l1.85,1.85c1.41-4.15,8.44-3.78,11.88-4a84.61,84.61,0,0,1,10.68.11l-1.06-2.56C77.73,49,67,44.47,60.34,50.33c-1.45,1.28.67,3.4,2.12,2.12,6.59-5.81,17-.92,23.24-7.72a1.52,1.52,0,0,0-1.06-2.56,77.27,77.27,0,0,0-17.85.64c-3.6.6-6.38,1.86-7.6,5.44A1.51,1.51,0,0,0,61,50.1c4.66-1.82,10.07-3.77,15.13-3.6,5.5.19,9.78,3.24,14,6.41l1.51-2.59c-5.8-2.88-12-3.88-18.37-4.13s-10.54,0-15.23,4.78l2.51.66C59.11,44,70.73,42.38,75.77,42.57c3,.11,6,.19,8.57,1.84,2,1.25,2.72,3,4.4,4.48l1.82-2.36a43.61,43.61,0,0,1-7.48-5.77L82,43.32c2.58,0,7.36,9.06,8.77,11.12a1.5,1.5,0,0,0,2.59-1.52l-1-3.22c-.25-1.85-3-2-3,0s2.13,14.07,6.42,10.21c1.64-1.47.59-5,.1-6.84a22.08,22.08,0,0,0-5.43-9.41c-9.24-9.46-32.27-8.9-34.13,7.05-.18,1.58,2.07,1.89,2.8.75a41,41,0,0,1,3.2-4.33l-2.36-1.82c-.78,1.65-.8,2.59-2.25,3.94-.47.44-1.24.64-1.72,1.14-1.8,1.87-1.4,4.46-1,6.78a1.51,1.51,0,0,0,2.74.36,15.52,15.52,0,0,1,3.14-4.43l-2.51-1.46a30.34,30.34,0,0,1-3,6.16c-1,1.64,1.55,3.14,2.59,1.52Z" transform="translate(0)" style="fill: #d8e5ff"/>
        <path d="M73,83.25h4.19c.64.07.68-.42.12-1.46a5.14,5.14,0,0,0-2-.29,12,12,0,0,0-2.54.09,1.54,1.54,0,0,0-1.5,1.5,1.52,1.52,0,0,0,1.5,1.5,12.13,12.13,0,0,1,2.33-.1c.73,0,1.44.26,2.17.29a2.54,2.54,0,0,0,2.76-2,2.25,2.25,0,0,0-2.3-2.53c-1.55-.13-3.16,0-4.72,0a1.5,1.5,0,0,0,0,3Z" transform="translate(0)" style="fill: #d8e5ff"/>
        <path d="M60.9,95.46c-5.75,2-12.92,2.24-18,5.69a12.06,12.06,0,0,0-4.52,5.42c-1,2.42-.46,4.39-.7,6.81l1.47-3.53-.55.42c-3.5,2.74-.48,8.63,3.54,8.54l32.82-.74,16.44-.38,7.86-.18c2.5-.05,6.22-.79,8.59.08l-3-2.3.55.76,7.85-6c-.9-.72-.73-4.7-1.28-5.9a8.7,8.7,0,0,0-4.79-4.33C102,97.62,96,98.13,90.63,96.48s-8.69,6.28-3.85,9.14c1.92,1.13,4.6,2.17,6.17,3.77l-.78-6.06q.7-1.41-1.41-.54a8.6,8.6,0,0,1-1.59-1.6,9,9,0,0,0-3-1.87c-3-1-6.06.63-9,.82-8.53.55-17,.25-25.54,1.2l1.33,9.82a30.58,30.58,0,0,1,10.6-1.11c6.43.4,6.4-9.6,0-10a39.1,39.1,0,0,0-13.26,1.46C45,103,45.77,112,51.55,111.34c10.55-1.17,21.17-.85,31.63-2.13,1.51-.18-1-.68-.06.24a10.57,10.57,0,0,0,7.64,3.34c3.61.12,8.49-.75,10-4.41.89-2.1.92-4.33-.78-6.06-2.26-2.3-5.44-3.71-8.19-5.34L88,106.12a41.54,41.54,0,0,0,6.71,1.44c2,.27,6.17,0,7.68,1.2s.18-.11.62,1.45c.22.78.15,1.66.37,2.46a8.19,8.19,0,0,0,2.79,4.4c4,3.23,11.41-1,7.85-6.06-3.16-4.47-7.85-3.65-12.82-3.54l-20.59.47-38.49.87,3.53,8.53c3.13-2.44.49-6.61,3.64-8.31,4.08-2.2,9.87-2.38,14.29-3.92,6-2.11,3.44-11.77-2.66-9.65Z" transform="translate(0)" style="fill: #d8e5ff"/>
        <path d="M39,120.21h73a3,3,0,0,0,3-3V111c-.51-10.24-6.08-12-6.31-12L89.19,93.23V84.72a10.84,10.84,0,0,0,3.46-7.07h4.14a4.56,4.56,0,0,0,4.56-4.56V64a4.56,4.56,0,0,0-3-4.28v-9.4c0-12.13-9.8-21.28-22.8-21.28s-22.8,9.15-22.8,21.28v9.4a4.56,4.56,0,0,0-3,4.28v9.12a4.55,4.55,0,0,0,3,4.28v1.8a6.08,6.08,0,0,0,6.08,6.08h3v8L42.32,99c-.24.07-5.81,1.79-6.31,12.1v6a3,3,0,0,0,3,3.08ZM55.75,53.48A19.31,19.31,0,0,1,75.51,38.13,19.38,19.38,0,0,1,95.27,53.48v5.93H93.39C91.87,53,88.93,51,88.6,50.83c-4.23-2.54-17.47-2.12-22.43-1.8a5.81,5.81,0,0,0-3.84,1.64,20.15,20.15,0,0,0-4.59,8.74h-2ZM64.87,88c2.49,3.22,3.66,6.41,8.24,6.41,6.89,0,8.13.63,11.71-4.58.41-.58.84-1.21,1.33-1.84v6.18c-2.44,6.47-18.89,6.41-21.28,0Zm21.61-4.85c-4.74,4.26-4.88,8.22-8.57,8.22-6.57,0-6.52.64-9.21-3.26-.58-.84-1.26-1.81-2.11-2.82h3.26a3,3,0,0,0,2.62,1.52h6.08a3,3,0,0,0,3-3v-3a3,3,0,0,0-3-3H72.47a3,3,0,0,0-3,3v1.52H63.65c-2.43-2.64-2.37-5-2.26-7.86A22.12,22.12,0,0,0,61,67.71c-.59-3.07-1-5.17-.23-7.69a17.14,17.14,0,0,1,3.76-7.2,2.9,2.9,0,0,1,1.88-.76c4.94-.32,16.15-.69,20.68,1.38,1.81,1.4,4,6.26,3.66,10.13-.35,3.67-1.12,5.47-1.12,8.36,0,4.72.94,7.54-3.1,11.17Zm-14,.62v-3h6.08v3ZM98.31,73.09a1.52,1.52,0,0,1-1.52,1.52h-4.1c-.24-6.52.48-4.86,1-10.74a11.26,11.26,0,0,0,0-1.42h3A1.52,1.52,0,0,1,98.31,64Zm-4.07-28.9c-3.26-4.54-9-9.1-18.73-9.1S60,39.65,56.78,44.19C62.44,28,88.58,28,94.24,44.19ZM52.71,64a1.52,1.52,0,0,1,1.52-1.52h3.06A28.55,28.55,0,0,0,58,68.28a20.11,20.11,0,0,1,.37,6.33h-4.1a1.52,1.52,0,0,1-1.52-1.52Zm3,15.2V77.65h2.62a10.43,10.43,0,0,0,1.47,4.56H58.79a3,3,0,0,1-3-3ZM43.17,101.91,62.51,96.2c1.21,2.12,4.5,5.77,13,5.77s11.79-3.65,13-5.78l19.32,5.7c.15.06,3.77,1.37,4.15,9.19v6.09H39.05v-6c.38-7.9,4-9.21,4.12-9.25Zm0,0" transform="translate(0)" style="fill: #2478ff"/>
      </g>
    </g>
  </g>
</svg>
