<svg xmlns="http://www.w3.org/2000/svg" xmlns:xlink="http://www.w3.org/1999/xlink" viewBox="0 0 150 150">
  <defs>
    <clipPath id="clip-path" transform="translate(0)">
      <rect x="35.45" y="34.28" width="79.72" height="82.19" style="fill: none"/>
    </clipPath>
  </defs>
  <title>two</title>
  <g id="Слой_1" data-name="Слой 1">
    <rect width="150" height="150" style="fill: none"/>
  </g>
  <g id="Слой_2" data-name="Слой 2">
    <g id="Слой_3" data-name="Слой 3">
      <path d="M47.24,40.48c.55,1.29.06,3.27-.08,4.61-.18,1.64-.43,3.27-.77,4.88-.29,1.39-1.4,3.8-.1,5s3.66.14,5.06-.11l9.31-1.59C62,53,62,51.15,61,50.52a17.56,17.56,0,0,1-5.39-4.69c-1.3-1.82-2.45-3.71-3.85-5.46a1.51,1.51,0,0,0-2.51.66c-.94,4.58,3,8.83,6.38,11.42l.76-2.79c-1.64-.06-3.17-.25-4.3-1.49a14.78,14.78,0,0,1-1.63-2.91c-1-1.69-3.45-.2-2.59,1.52.71,1.41,2,3.16,2.26,4.74l.69-1.7a5.56,5.56,0,0,1-3,.53L49,52.91a12.31,12.31,0,0,1,2.2-1.52,1.5,1.5,0,0,0-1.51-2.59,23.11,23.11,0,0,0-2.82,2c-1,.84-.15,2.57,1.06,2.56,1.45,0,3.25-.08,4.47-.94A1.58,1.58,0,0,0,53,50.72c-.34-1.84-1.73-3.8-2.56-5.46l-2.59,1.52c.89,1.58,1.35,3.3,2.9,4.38a10.45,10.45,0,0,0,5.62,1.5c1.63.05,1.83-2,.75-2.8-2.09-1.6-5.6-5.06-5-8l-2.5.66c1.68,2.1,3,4.49,4.68,6.57a19.93,19.93,0,0,0,5.17,4l.35-2.74-6.2,1.06L50.55,52c-.51.09-2.31.7-2.59.53l.74,1.29c-.11-2.41,1-5.21,1.34-7.63s.75-4.92-.21-7.18c-.75-1.77-3.33-.25-2.59,1.51Z" transform="translate(0)" style="fill: #d8e5ff"/>
      <path d="M71.51,113.54l5-.66-1.06-2.56-2.16.75-2.8-.75a8.68,8.68,0,0,1-.87,3.48c-.54,1.34,1.15,2.19,2.2,1.69,6-2.86,12.68-3.89,19.16-5.38l-1.15-2.75c-4.46,3.08-9.58,3.79-14.85,4.33-1.88.19-2,3,0,3,5.84,0,10.92-2.36,16.15-4.69,4.52-2,8.86-3.85,11.73-8.06,1-1.4-1.24-3.11-2.36-1.82a43.15,43.15,0,0,1-13.41,10.25l2.06,2c4.92-6.43,12.36-10,16.83-16.83a44.19,44.19,0,0,0,7.12-20.67h-3c.46,5.56-1.71,11-3.19,16.34a1.5,1.5,0,0,0,2.89.8,81.38,81.38,0,0,0,3.55-15c.24-1.92-2.75-1.89-3,0-1.09,8.34-3.94,18.7-10.19,24.71l2.51.66c-.72-4.86,4.86-10.89,6.68-15.25a50.31,50.31,0,0,0,3.35-13.09l-2.26,1.29c1.62.77,0,5.45-.33,6.39a32.55,32.55,0,0,1-1.93,3.82,1.5,1.5,0,0,0,2.59,1.52c1.77-3.16,6.29-11.89,1.19-14.32a1.53,1.53,0,0,0-2.26,1.3,45.33,45.33,0,0,1-6.3,18.16c-2.28,3.72-4.29,6.49-3.63,11,.18,1.17,1.78,1.36,2.51.66,6.86-6.61,9.88-17.71,11.07-26.83h-3a77.78,77.78,0,0,1-3.44,14.16l2.89.8c1.56-5.58,3.78-11.27,3.3-17.14a1.5,1.5,0,0,0-3,0c-.75,8.22-3.81,16.54-9.42,22.77-4.39,4.86-10.08,7.93-14.13,13.22-1,1.31.87,2.63,2.06,2a45.3,45.3,0,0,0,14-10.72l-2.35-1.82c-2.53,3.71-6.72,5.24-10.65,7-4.77,2.12-9.32,4.27-14.64,4.28v3c5.8-.59,11.46-1.35,16.36-4.73a1.51,1.51,0,0,0-1.15-2.75c-6.79,1.56-13.58,2.7-19.89,5.69l2.21,1.7a14.47,14.47,0,0,0,1-4.28c.14-1.49-2.13-2-2.79-.76-3.18,6.1,3.29,6,6.87,2.88.93-.79.23-2.73-1.06-2.56l-5,.66c-1.89.25-1.92,3.25,0,3Z" transform="translate(0)" style="fill: #d8e5ff"/>
      <path d="M81.7,37.51c-6.63-1.09-13.62-2.22-20.18-.13-3.89,1.24-9.7,3.72-9.67,8.48a1.5,1.5,0,0,0,1.5,1.5c2.53-.26,3.9-1.66,6.08-3a30.71,30.71,0,0,1,11-3.63A64.93,64.93,0,0,1,81.25,40c4.72.07,8.34,1.89,12.35,4.25l1.16-2.74A54.63,54.63,0,0,0,78.56,38c-1.69-.11-2,2.56-.4,2.94,7.56,1.77,14.13,1.87,20.18,7.45a38.93,38.93,0,0,1,6.54,8.19c1.3,2.1,6.41,9.57,4.46,12l2.36.3c-1.87-3.61-2-8-3.68-11.69a24.72,24.72,0,0,0-5.13-7.45c-2.67-2.59-6.47-3.52-9.14-5.92-3.4-3.06,2.22,1.76,2.85,2.64,1.11,1.54,2.09,3.18,3.16,4.75,2.72,4,5.56,7.88,6.9,12.59a42.1,42.1,0,0,1,1.21,8.28c.06.74,0,2.8.55,3.52,3.54,4.6,4.16-3.53,5-4.77l-2.79-.76a33.26,33.26,0,0,1,.08,5c-.11,1.93,2.89,1.93,3,0a33.26,33.26,0,0,0-.08-5,1.52,1.52,0,0,0-2.8-.76c-.52.83-1.56,2.43-1.18,3.47.48,1.29,1.06-.83,1.21-1.58a10.44,10.44,0,0,0-.3-3,31.77,31.77,0,0,0-4.3-12.65,104.91,104.91,0,0,0-8-12c-1.7-2.1-4.78-5.2-7.83-4.78A2.69,2.69,0,0,0,87.79,42c.31,2.54,3.93,4.18,5.78,5.23,4.49,2.53,8.3,5,10.87,9.58,2.42,4.36,2.43,9.32,4.67,13.65a1.5,1.5,0,0,0,2.35.3c1.89-2.35,1.64-4.49.51-7.2a57.43,57.43,0,0,0-7.69-13,31.54,31.54,0,0,0-9.84-8.55C89.6,39.36,84.19,39.3,79,38.07l-.4,3A51.56,51.56,0,0,1,94,44.39c1.62.61,2.58-1.9,1.15-2.75-7.1-4.19-12.81-5-21-4.28a46.5,46.5,0,0,0-10.78,2,28.55,28.55,0,0,0-4.76,2c-1.64.9-3.31,2.75-5.25,3l1.5,1.5c0-4.54,9.53-6.37,12.85-6.59A57.94,57.94,0,0,1,80.9,40.4c1.89.31,2.71-2.58.8-2.89Z" transform="translate(0)" style="fill: #d8e5ff"/>
      <g>
        <path d="M38.74,82.7a40.41,40.41,0,0,1-.62-5.25,1.35,1.35,0,0,0-1.4-1.3,1.36,1.36,0,0,0-1.26,1.45,42.29,42.29,0,0,0,.66,5.61,1.34,1.34,0,0,0,1.31,1.11l.25,0a1.36,1.36,0,0,0,1.06-1.6Zm0,0" transform="translate(0)" style="fill: #2478ff"/>
        <path d="M44.69,97.21a1.3,1.3,0,0,0-1.85-.35,1.39,1.39,0,0,0-.34,1.91,40.88,40.88,0,0,0,3.44,4.42,1.31,1.31,0,0,0,1.88.08,1.4,1.4,0,0,0,.08-1.94,38.87,38.87,0,0,1-3.21-4.12Zm0,0" transform="translate(0)" style="fill: #2478ff"/>
        <path d="M36.76,73.41a.21.21,0,0,0,.11,0,1.34,1.34,0,0,0,1.33-1.25A40,40,0,0,1,39,66.93a1.37,1.37,0,0,0-1-1.64,1.34,1.34,0,0,0-1.59,1,44.13,44.13,0,0,0-.84,5.61,1.45,1.45,0,0,0,.32,1,1.35,1.35,0,0,0,.91.47Zm0,0" transform="translate(0)" style="fill: #2478ff"/>
        <path d="M55.81,108.05A38.12,38.12,0,0,1,51.63,105a1.32,1.32,0,0,0-1.88.18,1.39,1.39,0,0,0,.18,1.93,41.33,41.33,0,0,0,4.48,3.3,1.27,1.27,0,0,0,1.35.07,1.35,1.35,0,0,0,.72-1.19,1.38,1.38,0,0,0-.67-1.21Zm0,0" transform="translate(0)" style="fill: #2478ff"/>
        <path d="M38.72,62.67a1.27,1.27,0,0,0,.47.09,1.35,1.35,0,0,0,1.25-.89c.45-1.23,1-2.44,1.53-3.62a1.39,1.39,0,0,0-.6-1.83,1.31,1.31,0,0,0-1.78.6c-.61,1.27-1.16,2.56-1.65,3.89a1.38,1.38,0,0,0,.78,1.76Zm0,0" transform="translate(0)" style="fill: #2478ff"/>
        <path d="M40.06,87.8A1.31,1.31,0,0,0,38.37,87a1.37,1.37,0,0,0-.83,1.74,43,43,0,0,0,2.14,5.22,1.32,1.32,0,0,0,1.78.57,1.39,1.39,0,0,0,.6-1.81,38.91,38.91,0,0,1-2-4.87Zm0,0" transform="translate(0)" style="fill: #2478ff"/>
        <path d="M65.19,112.29a36.32,36.32,0,0,1-4.83-1.78,1.32,1.32,0,0,0-1.72.72,1.39,1.39,0,0,0,.65,1.79,38.42,38.42,0,0,0,5.19,1.91,1.09,1.09,0,0,0,.36.06,1.35,1.35,0,0,0,1.32-1.19,1.37,1.37,0,0,0-1-1.5Zm0,0" transform="translate(0)" style="fill: #2478ff"/>
        <path d="M43,86.89a1.33,1.33,0,0,0,1.74.75,1.38,1.38,0,0,0,.72-1.79,31,31,0,0,1-1.53-5,1.33,1.33,0,0,0-1.59-1,1.38,1.38,0,0,0-1,1.63A34.35,34.35,0,0,0,43,86.89Zm0,0" transform="translate(0)" style="fill: #2478ff"/>
        <path d="M43.28,66.24a1.39,1.39,0,0,0,.4.06,1.34,1.34,0,0,0,1.27-1,33.93,33.93,0,0,1,1.91-4.87,1.39,1.39,0,0,0-.59-1.84,1.31,1.31,0,0,0-1.79.61,35.27,35.27,0,0,0-2.07,5.28,1.39,1.39,0,0,0,.09,1,1.31,1.31,0,0,0,.78.68Zm0,0" transform="translate(0)" style="fill: #2478ff"/>
        <path d="M43.39,75.65v-.26a35.22,35.22,0,0,1,.4-4.92,1.4,1.4,0,0,0-.48-1.3A1.29,1.29,0,0,0,42,69a1.36,1.36,0,0,0-.82,1.09,37.49,37.49,0,0,0-.43,5.29v.37a1.33,1.33,0,0,0,1.33,1.34,1.39,1.39,0,0,0,1.33-1.41Zm0,0" transform="translate(0)" style="fill: #2478ff"/>
        <path d="M58.15,102.2a37.29,37.29,0,0,1-3.95-3.38,1.3,1.3,0,0,0-1.86.06,1.41,1.41,0,0,0,0,1.92,39.25,39.25,0,0,0,4.23,3.62,1.3,1.3,0,0,0,1.86-.31,1.4,1.4,0,0,0-.3-1.91Zm0,0" transform="translate(0)" style="fill: #2478ff"/>
        <path d="M67.22,106.94a29,29,0,0,1-4.71-2,1.31,1.31,0,0,0-1.79.6,1.38,1.38,0,0,0,.58,1.84,33.32,33.32,0,0,0,5.12,2.17,1.33,1.33,0,0,0,1.67-.9,1.38,1.38,0,0,0-.87-1.72Zm0,0" transform="translate(0)" style="fill: #2478ff"/>
        <g style="clip-path: url(#clip-path)">
          <path d="M50.52,96.83a1.38,1.38,0,0,0,.21-1.92,38.93,38.93,0,0,1-2.93-4.35,1.33,1.33,0,0,0-1.17-.72,1.29,1.29,0,0,0-1.17.72,1.4,1.4,0,0,0,.06,1.4,43.08,43.08,0,0,0,3.13,4.66,1.31,1.31,0,0,0,1.87.22Zm0,0" transform="translate(0)" style="fill: #2478ff"/>
          <path d="M75.34,34.28a39,39,0,0,0-21.55,6.48l-5.43-6A1.31,1.31,0,0,0,47,34.34a1.37,1.37,0,0,0-.92,1.13L43.4,56a1.43,1.43,0,0,0,.38,1.16,1.33,1.33,0,0,0,1.13.38l18.64-2.74a1.32,1.32,0,0,0,1.06-.9,1.38,1.38,0,0,0-.27-1.38l-5-5.59a31.24,31.24,0,0,1,36.55,3.22,33.47,33.47,0,0,1,9.52,36.44,32,32,0,0,1-30,21.65h0a25.62,25.62,0,0,1-3.15-.2,1.34,1.34,0,0,0-1.48,1.2,1.36,1.36,0,0,0,1.16,1.52,28.7,28.7,0,0,0,3.46.22h0A34.72,34.72,0,0,0,108.1,87,36.23,36.23,0,0,0,96.69,47.32,33.82,33.82,0,0,0,56.52,45.5a1.37,1.37,0,0,0-.59,1,1.42,1.42,0,0,0,.34,1.1l4.4,4.89-14.4,2.12,2.06-15.87,4.26,4.76a1.3,1.3,0,0,0,1.73.2,36.45,36.45,0,0,1,43.51,1.11,39,39,0,0,1,12.84,42.78,37.4,37.4,0,0,1-35.33,26.16,36.62,36.62,0,0,1-5.12-.36,1.34,1.34,0,0,0-1.48,1.17,1.36,1.36,0,0,0,1.12,1.54,39.47,39.47,0,0,0,38.07-17,42.11,42.11,0,0,0,2.86-42.6A39.84,39.84,0,0,0,75.34,34.28Zm0,0" transform="translate(0)" style="fill: #2478ff"/>
        </g>
        <path d="M75.34,49.35A1.35,1.35,0,0,0,74,50.72V75.37a1.4,1.4,0,0,0,.39,1L87.72,90a1.3,1.3,0,0,0,1.86,0,1.4,1.4,0,0,0,0-1.92L76.68,74.8V50.72a1.35,1.35,0,0,0-1.34-1.37Zm0,0" transform="translate(0)" style="fill: #2478ff"/>
      </g>
    </g>
  </g>
</svg>
