<svg xmlns="http://www.w3.org/2000/svg" viewBox="0 0 150 150">
  <title>dishwasher</title>
  <g id="Слой_1" data-name="Слой 1">
    <g>
      <rect x="33.05" y="27.58" width="87.54" height="91.2" style="fill: #d8e5ff"/>
      <path d="M118.77,20.28H31.23a5.49,5.49,0,0,0-5.48,5.47V117a5.48,5.48,0,0,0,5.48,5.47h87.54a5.48,5.48,0,0,0,5.48-5.47V25.75a5.49,5.49,0,0,0-5.48-5.47ZM120.6,117a1.82,1.82,0,0,1-1.83,1.82H31.23A1.82,1.82,0,0,1,29.4,117V25.75a1.83,1.83,0,0,1,1.83-1.82h87.54a1.83,1.83,0,0,1,1.83,1.82Zm0,0" transform="translate(0)" style="fill: #2478ff"/>
      <path d="M87.77,51.29A29.18,29.18,0,1,0,117,80.47,29.22,29.22,0,0,0,87.77,51.29Zm0,54.72A25.54,25.54,0,1,1,113.3,80.47,25.57,25.57,0,0,1,87.77,106Zm0,0" transform="translate(0)" style="fill: #2478ff"/>
      <path d="M47.64,118.77H33.05a1.82,1.82,0,0,0-1.82,1.83v5.47a3.64,3.64,0,0,0,3.64,3.65h11a3.65,3.65,0,0,0,3.65-3.65V120.6a1.84,1.84,0,0,0-1.83-1.83Zm-1.82,7.3h-11v-3.65h11Zm0,0" transform="translate(0)" style="fill: #2478ff"/>
      <path d="M117,118.77H102.36a1.82,1.82,0,0,0-1.82,1.83v5.47a3.64,3.64,0,0,0,3.64,3.65h10.95a3.64,3.64,0,0,0,3.64-3.65V120.6a1.82,1.82,0,0,0-1.82-1.83Zm-1.82,7.3H104.18v-3.65h10.95Zm0,0" transform="translate(0)" style="fill: #2478ff"/>
      <path d="M122.42,106H27.58a1.82,1.82,0,1,0,0,3.64h94.84a1.82,1.82,0,1,0,0-3.64Zm0,0" transform="translate(0)" style="fill: #2478ff"/>
      <path d="M122.42,44H27.58a1.83,1.83,0,1,0,0,3.65h94.84a1.83,1.83,0,1,0,0-3.65Zm0,0" transform="translate(0)" style="fill: #2478ff"/>
      <path d="M108.74,27.58A6.39,6.39,0,1,0,115.13,34a6.38,6.38,0,0,0-6.39-6.38Zm0,9.12A2.74,2.74,0,1,1,111.48,34a2.74,2.74,0,0,1-2.74,2.74Zm0,0" transform="translate(0)" style="fill: #2478ff"/>
      <path d="M34.87,27.58a1.83,1.83,0,0,0-1.82,1.82v9.12a1.83,1.83,0,1,0,3.65,0V29.4a1.83,1.83,0,0,0-1.83-1.82Zm0,0" transform="translate(0)" style="fill: #2478ff"/>
      <path d="M42.17,27.58a1.82,1.82,0,0,0-1.82,1.82v9.12a1.82,1.82,0,1,0,3.64,0V29.4a1.82,1.82,0,0,0-1.82-1.82Zm0,0" transform="translate(0)" style="fill: #2478ff"/>
      <path d="M49.46,27.58a1.83,1.83,0,0,0-1.82,1.82v9.12a1.83,1.83,0,1,0,3.65,0V29.4a1.83,1.83,0,0,0-1.83-1.82Zm0,0" transform="translate(0)" style="fill: #2478ff"/>
      <path d="M56.76,27.58a1.82,1.82,0,0,0-1.82,1.82v9.12a1.82,1.82,0,1,0,3.64,0V29.4a1.82,1.82,0,0,0-1.82-1.82Zm0,0" transform="translate(0)" style="fill: #2478ff"/>
      <path d="M75.82,103.05a25.4,25.4,0,0,1-6.29-4.7,26,26,0,0,1-4.35-6,25.53,25.53,0,0,1,10.68-34.5,1.85,1.85,0,0,0,.76-.76,1.83,1.83,0,0,0-.76-2.47,29.19,29.19,0,1,0,0,51.62,1.8,1.8,0,0,0,.76-.76,1.82,1.82,0,0,0-.76-2.47Zm-13.58,3a25.54,25.54,0,1,1,8.87-49.49,29.21,29.21,0,0,0,0,47.9A25.55,25.55,0,0,1,62.24,106Zm0,0" transform="translate(0)" style="fill: #2478ff"/>
      <path d="M69.53,62.6a2,2,0,0,0,.45-.74,1.83,1.83,0,0,0-1.2-2.29,22.37,22.37,0,0,0-6.55-1,21.89,21.89,0,0,0,0,43.78,22.18,22.18,0,0,0,6.53-1,1.76,1.76,0,0,0,.75-.45,1.81,1.81,0,0,0,0-2.57,25.54,25.54,0,0,1,0-35.75ZM62.3,98.71a18.24,18.24,0,0,1-.07-36.48,18.87,18.87,0,0,1,2.61.2,29.2,29.2,0,0,0,0,36.1,18,18,0,0,1-2.54.18Zm0,0" transform="translate(0)" style="fill: #2478ff"/>
      <path d="M87.77,51.29A29.18,29.18,0,1,0,117,80.47,29.22,29.22,0,0,0,87.77,51.29Zm0,54.72A25.54,25.54,0,1,1,113.3,80.47,25.57,25.57,0,0,1,87.77,106Zm0,0" transform="translate(0)" style="fill: #2478ff"/>
      <path d="M87.77,58.58a22.56,22.56,0,0,0-6.57,1,21.88,21.88,0,0,0,0,41.78,21.89,21.89,0,1,0,6.56-42.78Zm0,40.13a18.53,18.53,0,0,1-5.48-.83,18.24,18.24,0,0,1,0-34.82,18.53,18.53,0,0,1,5.48-.83,18.24,18.24,0,1,1,0,36.48Zm0,0" transform="translate(0)" style="fill: #2478ff"/>
      <path d="M87.77,58.58a22.39,22.39,0,0,0-6.55,1,21.86,21.86,0,1,0,6.55-1Zm0,40.13A18.23,18.23,0,0,1,82.3,63.07a18.75,18.75,0,0,1,5.47-.84,18.24,18.24,0,1,1,0,36.48Zm0,0" transform="translate(0)" style="fill: #2478ff"/>
      <path d="M122.42,80.47H27.58a1.83,1.83,0,1,0,0,3.65h94.84a1.83,1.83,0,1,0,0-3.65Zm0,0" transform="translate(0)" style="fill: #2478ff"/>
    </g>
  </g>
  <g id="Слой_2" data-name="Слой 2">
    <rect width="150" height="150" style="fill: none"/>
  </g>
</svg>
