<svg xmlns="http://www.w3.org/2000/svg" viewBox="0 0 150 150">
  <title>dryer</title>
  <g id="Слой_1" data-name="Слой 1">
    <g>
      <path d="M114.52,133.16a13.65,13.65,0,0,1,4.83,1.06h.31a2.63,2.63,0,0,0-1.33-1.36h.18c1.86,0,3.36-3.07,3.36-6.87V29.33c0-3.8-1.5-6.87-3.36-6.87H37.71c-1.85,0-3.35,3.07-3.35,6.87V126c0,3.8,1.5,6.87,3.35,6.87h77Q114.61,133,114.52,133.16Z" transform="translate(0)" style="fill: #d8e5ff"/>
      <path d="M117.79,13.87H32.21A6.11,6.11,0,0,0,26.09,20V130a6.11,6.11,0,0,0,6.12,6.11h85.58a6.11,6.11,0,0,0,6.12-6.11V20a6.11,6.11,0,0,0-6.12-6.11Zm2,116.15a2,2,0,0,1-2,2H32.21a2,2,0,0,1-2-2V20a2,2,0,0,1,2-2h85.58a2,2,0,0,1,2,2Zm0,0" transform="translate(0)" style="fill: #2478ff"/>
      <path d="M121.87,22H28.13a2,2,0,1,0,0,4.07h93.74a2,2,0,1,0,0-4.07Zm0,0" transform="translate(0)" style="fill: #2478ff"/>
      <path d="M121.87,50.55H28.13a2,2,0,1,0,0,4.07h93.74a2,2,0,1,0,0-4.07Zm0,0" transform="translate(0)" style="fill: #2478ff"/>
      <path d="M75,58.7a30.57,30.57,0,1,0,30.57,30.56A30.57,30.57,0,0,0,75,58.7Zm0,57.06a26.5,26.5,0,1,1,26.49-26.5A26.49,26.49,0,0,1,75,115.76Zm0,0" transform="translate(0)" style="fill: #2478ff"/>
      <path d="M75,66.85A22.42,22.42,0,1,0,97.41,89.26,22.41,22.41,0,0,0,75,66.85Zm0,40.75A18.34,18.34,0,1,1,93.34,89.26,18.34,18.34,0,0,1,75,107.6Zm0,0" transform="translate(0)" style="fill: #2478ff"/>
      <path d="M44.43,123.91H36.28a2,2,0,1,0,0,4.07h8.15a2,2,0,1,0,0-4.07Zm0,0" transform="translate(0)" style="fill: #2478ff"/>
      <path d="M62.77,123.91H52.59a2,2,0,1,0,0,4.07H62.77a2,2,0,1,0,0-4.07Zm0,0" transform="translate(0)" style="fill: #2478ff"/>
      <path d="M81.11,123.91H70.92a2,2,0,0,0,0,4.07H81.11a2,2,0,1,0,0-4.07Zm0,0" transform="translate(0)" style="fill: #2478ff"/>
      <path d="M97.41,123.91H89.26a2,2,0,0,0,0,4.07h8.15a2,2,0,1,0,0-4.07Zm0,0" transform="translate(0)" style="fill: #2478ff"/>
      <path d="M113.72,123.91h-8.15a2,2,0,1,0,0,4.07h8.15a2,2,0,1,0,0-4.07Zm0,0" transform="translate(0)" style="fill: #2478ff"/>
      <path d="M107.6,30.17a8.15,8.15,0,1,0,8.16,8.15,8.15,8.15,0,0,0-8.16-8.15Zm0,12.23a4.08,4.08,0,1,1,4.08-4.08,4.08,4.08,0,0,1-4.08,4.08Zm0,0" transform="translate(0)" style="fill: #2478ff"/>
      <path d="M70.92,34.24a2,2,0,0,0-2,2v4.08a2,2,0,0,0,4.07,0V36.28a2,2,0,0,0-2-2Zm0,0" transform="translate(0)" style="fill: #2478ff"/>
      <path d="M79.08,34.24a2,2,0,0,0-2,2v4.08a2,2,0,0,0,4.07,0V36.28a2,2,0,0,0-2-2Zm0,0" transform="translate(0)" style="fill: #2478ff"/>
    </g>
  </g>
  <g id="Слой_2" data-name="Слой 2">
    <rect width="150" height="150" style="fill: none"/>
  </g>
</svg>
