<svg xmlns="http://www.w3.org/2000/svg" viewBox="0 0 150 150">
  <title>freezer</title>
  <g id="Слой_1" data-name="Слой 1">
    <rect x="33.1" y="34.87" width="87.53" height="77.57" rx="14.5" ry="14.5" style="fill: #d8e5ff"/>
    <g>
      <path d="M97.4,106.53a1.66,1.66,0,0,0,1.66-1.66V38.5a1.66,1.66,0,0,0-1.66-1.66H36a1.66,1.66,0,0,0-1.66,1.66v66.37A1.66,1.66,0,0,0,36,106.53Zm-1.66-10H92.42V80a5,5,0,0,0-3.32-4.7V73.34h6.64ZM37.67,40.15H95.74V63.38h-5V46.79a1.65,1.65,0,0,0-.48-1.17L88.62,44a1.68,1.68,0,0,0-1.18-.49h-10a1.66,1.66,0,0,0-1.17.49l-1.66,1.66a1.66,1.66,0,0,0-.49,1.17V63.38H70.85V46.79a1.65,1.65,0,0,0-.48-1.17L68.71,44a1.68,1.68,0,0,0-1.18-.49h-10A1.7,1.7,0,0,0,56.4,44l-.48.49L55.43,44a1.66,1.66,0,0,0-1.17-.49h-10a1.66,1.66,0,0,0-1.17.49l-1.66,1.66A1.66,1.66,0,0,0,41,46.79V63.38H37.67ZM77.49,57.94V54.72l10-2.48v3.21Zm10,.93V62.7l-.68.68H78.18l-.69-.68V61.36Zm-10-7.56V47.48l.69-.69h8.58l.68.69v1.34ZM59.24,60.07a5,5,0,1,0-1.66-9.65V47.48l.68-.69h8.59l.68.69V62.7l-.68.68H58.26l-.68-.68V59.76a4.93,4.93,0,0,0,1.66.31Zm-1.66-5a1.66,1.66,0,1,1,1.66,1.66,1.66,1.66,0,0,1-1.66-1.66Zm-6.64,1.66H47.62a6.58,6.58,0,0,0-3.32.89v-.89a3.32,3.32,0,0,1,3.32-3.32h3.32a6.66,6.66,0,0,0,3.32-.89v.89a3.32,3.32,0,0,1-3.32,3.32Zm3.32,2.39V62.7l-.69.68H45l-.62-.62a3.31,3.31,0,0,1,3.25-2.69h3.32a6.6,6.6,0,0,0,3.32-.93ZM44.3,51V47.48l.69-.69h8.58l.63.63a3.32,3.32,0,0,1-3.26,2.69H47.62A6.69,6.69,0,0,0,44.3,51ZM37.67,66.7H95.74V70H37.67ZM89.1,85v3.31H85.79v3.32H89.1v5H79.15v-5h3.32V88.27H79.15V85h3.32V81.64H79.15V80a1.66,1.66,0,0,1,1.66-1.66,1.66,1.66,0,0,0,1.66-1.66V73.34h3.32v3.32a1.65,1.65,0,0,0,1.65,1.66A1.66,1.66,0,0,1,89.1,80v1.66H85.79V85ZM67.53,76V73.34H79.15v1.94A5,5,0,0,0,75.83,80V96.57h-5V84.67A12.85,12.85,0,0,0,67.53,76Zm-10,17.25h10v3.32h-10ZM56.49,77.39c-.21.31-.37.65-.56,1A12.59,12.59,0,0,0,54.26,76V73.34h3.32V76a11.31,11.31,0,0,0-1.09,1.39Zm1.09,12.54V86.62h10v3.31Zm7.12-12.1a9.63,9.63,0,0,1,2.73,5.47H57.68a9.63,9.63,0,0,1,2.73-5.47,1.66,1.66,0,0,0,.49-1.17V73.34h3.31v3.32a1.66,1.66,0,0,0,.49,1.17ZM44.3,89.93V86.62h10v3.31Zm10,3.32v3.32h-10V93.25ZM51.43,77.83a9.61,9.61,0,0,1,2.72,5.47H44.4a9.7,9.7,0,0,1,2.74-5.47,1.65,1.65,0,0,0,.48-1.17V73.34h3.32v3.32a1.66,1.66,0,0,0,.49,1.17ZM37.67,73.34H44.3V76a13.13,13.13,0,0,0-1.08,1.38A13,13,0,0,0,41,84.67v11.9H37.67Zm0,26.55H95.74v3.32H37.67Zm0,0" transform="translate(0)" style="fill: #2478ff"/>
      <path d="M27.71,121.46H36a1.66,1.66,0,0,0,1.66-1.66v-5H95.74v5a1.66,1.66,0,0,0,1.66,1.66h8.3a1.66,1.66,0,0,0,1.66-1.66v-5h10a6.63,6.63,0,0,0,6.64-6.63v-73a6.64,6.64,0,0,0-6.64-6.64H105.7a1.65,1.65,0,0,0-1.52,1,6.54,6.54,0,0,0-3.46-1h-68a6.64,6.64,0,0,0-6.64,6.64V119.8a1.66,1.66,0,0,0,1.66,1.66ZM114,31.86h3.32a3.32,3.32,0,0,1,3.32,3.32v73a3.32,3.32,0,0,1-3.32,3.31H114Zm-6.63,3.32V31.86h3.31V111.5h-3.31Zm-3.32,83h-5v-3.32h5Zm-74.67-83a3.32,3.32,0,0,1,3.32-3.32h68A3.32,3.32,0,0,1,104,35.18V111.5H29.37Zm0,79.64h5v3.32h-5Zm0,0" transform="translate(0)" style="fill: #2478ff"/>
    </g>
  </g>
  <g id="Слой_2" data-name="Слой 2">
    <rect width="150" height="150" style="fill: none"/>
  </g>
</svg>
