<svg xmlns="http://www.w3.org/2000/svg" viewBox="0 0 150 150">
  <title>garbage-disposal</title>
  <g id="Слой_1" data-name="Слой 1">
    <rect width="150" height="150" style="fill: none"/>
  </g>
  <g id="Слой_2" data-name="Слой 2">
    <path d="M69,36.05c3.35,0,6.69,0,10,0a6,6,0,0,0,0-12c-3.35-.07-6.69-.08-10,0-3.14.05-6.15,2.73-6,6a6.09,6.09,0,0,0,6,6Z" style="fill: #d8e5ff"/>
    <path d="M101.78,57.23c7.72,0,7.73-12,0-12s-7.74,12,0,12Z" style="fill: #d8e5ff"/>
    <path d="M53,45.8c7.72,0,7.73-12,0-12s-7.74,12,0,12Z" style="fill: #d8e5ff"/>
    <rect x="50.4" y="32.24" width="52.07" height="89.14" rx="4.76" ry="4.76" style="fill: #d8e5ff"/>
    <g>
      <path d="M105.12,42.28h-1.53V37a4.81,4.81,0,0,0-4.8-4.79H88.1V24.88A2.07,2.07,0,0,0,86,22.81H62.14a2.07,2.07,0,0,0-2.07,2.07v7.36H49.38A4.81,4.81,0,0,0,44.58,37v5.25H43.05A5.08,5.08,0,0,0,38,47.35v7.77A2.07,2.07,0,0,0,40,57.19h1.33l1.86,64.31a7.53,7.53,0,0,0,7.56,7.34H97.38a7.53,7.53,0,0,0,7.56-7.34l1.86-64.31h1.33a2.07,2.07,0,0,0,2.07-2.07V47.35a5.08,5.08,0,0,0-5.08-5.07ZM64.21,27H84v5.29H64.21ZM48.72,37a.66.66,0,0,1,.66-.65H98.79a.65.65,0,0,1,.65.65v5.25H48.72Zm52.08,84.35a3.41,3.41,0,0,1-3.42,3.32H50.79a3.4,3.4,0,0,1-3.42-3.32L45.51,57.19H64.72a2.07,2.07,0,1,0,0-4.14H42.11v-5.7a.94.94,0,0,1,.94-.93h62.07a.94.94,0,0,1,.94.93v5.7H83.45a2.07,2.07,0,0,0,0,4.14h19.2Zm0,0" style="fill: #2478ff"/>
      <path d="M74.12,57.19a2.07,2.07,0,1,1,1.09-3.83,2.07,2.07,0,0,1-1.09,3.83Zm0,0" style="fill: #2478ff"/>
      <path d="M94.28,72.35a2.08,2.08,0,0,0-1.6-1.6c-.78-.16-19.19-3.88-28.64,5.57-8.24,8.23-6.47,23.26-5.77,27.51l-4.62,4.62a2.07,2.07,0,0,0,0,2.93,2.09,2.09,0,0,0,1.46.6,2.06,2.06,0,0,0,1.47-.6l4.61-4.62a51,51,0,0,0,8.12.65c6.21,0,14.17-1.2,19.4-6.42,9.45-9.45,5.73-27.86,5.57-28.64Zm-8.5,25.71c-5.49,5.49-15.37,5.5-20.87,5l5-5H76a2.08,2.08,0,0,0,0-4.15h-2l6.57-6.56a2.07,2.07,0,0,0-2.93-2.93l-1.4,1.39V84.38a2.07,2.07,0,0,0-4.14,0v5.53L62,100.12c-.51-5.51-.51-15.38,5-20.87,6.54-6.55,19.29-5.3,23.49-4.68.62,4.2,1.86,17-4.68,23.49Zm0,0" style="fill: #2478ff"/>
    </g>
  </g>
</svg>
