<svg xmlns="http://www.w3.org/2000/svg" viewBox="0 0 150 150">
  <title>ice-maker</title>
  <g id="Слой_1" data-name="Слой 1">
    <g>
      <rect x="33.16" y="29.38" width="73.56" height="94.9" style="fill: #d8e5ff"/>
      <path d="M116.14,66.59a2,2,0,0,0,2-2V61.14h4a2,2,0,0,0,2-2v-25a2,2,0,0,0-2-2h-4V30.83c0-4.31-3-7.81-6.76-7.81a6.46,6.46,0,0,0-5.28,2.92,8.86,8.86,0,0,0-6.3-2.63H34.62a8.88,8.88,0,0,0-8.87,8.87v85.93A8.88,8.88,0,0,0,34.62,127H99.83a8.88,8.88,0,0,0,8.87-8.87v-1.2a17.08,17.08,0,0,0,0-33.92V66.59Zm2-30.47h2v21h-2ZM29.82,32.18a4.81,4.81,0,0,1,4.8-4.81H99.83a4.82,4.82,0,0,1,4.81,4.81V62.82H29.82ZM119.69,100a13,13,0,0,1-26,0c0-.26,0-.53,0-.8a2,2,0,1,0-4.06-.24c0,.35,0,.69,0,1a17.11,17.11,0,0,0,15.06,17v1.2a4.81,4.81,0,0,1-4.81,4.81H34.62a4.8,4.8,0,0,1-4.8-4.81V66.88h74.82V83a17.08,17.08,0,0,0-6.83,2.36,2,2,0,1,0,2.1,3.47A13,13,0,0,1,119.69,100Zm-11-37.42V32.18c0-.31,0-.62,0-.92a2.1,2.1,0,0,0,0-.43c0-2,1.24-3.75,2.71-3.75s2.7,1.71,2.7,3.75v31.7Zm0,0" transform="translate(0)" style="fill: #2478ff"/>
      <path d="M43.93,70.18H37.85a2,2,0,0,0-2,2v25a2,2,0,0,0,2,2h1v6.35a2,2,0,1,0,4.06,0V99.26h1a2,2,0,0,0,2-2v-25a2,2,0,0,0-2-2Zm-2,25h-2v-21h2Zm0,0" transform="translate(0)" style="fill: #2478ff"/>
      <path d="M40.89,109.47a2,2,0,0,0-2,2v.1a2,2,0,0,0,4.06,0v-.1a2,2,0,0,0-2-2Zm0,0" transform="translate(0)" style="fill: #2478ff"/>
      <path d="M114.4,97.92h-2.79l2-2a2,2,0,0,0-2.88-2.87l-2,2V92.23a2,2,0,0,0-4.06,0v2.86l-2-2A2,2,0,0,0,99.83,96l2,2H99A2,2,0,0,0,99,102h2.77l-1.94,1.93a2,2,0,0,0,1.43,3.47,2.06,2.06,0,0,0,1.44-.59l2-2v2.74a2,2,0,0,0,4.06,0V104.9l1.92,1.92a2,2,0,0,0,2.88-2.87l-2-2h2.81a2,2,0,0,0,0-4.07Zm0,0" transform="translate(0)" style="fill: #2478ff"/>
      <path d="M94.18,91.28a2,2,0,0,0-2.73.89,2,2,0,0,1-.1.21,2,2,0,0,0,.92,2.71,2,2,0,0,0,.9.22A2,2,0,0,0,95,94.17l.09-.16a2,2,0,0,0-.9-2.73Zm0,0" transform="translate(0)" style="fill: #2478ff"/>
      <path d="M52.82,56.75h-.1a2,2,0,0,0,0,4.06h.1a2,2,0,0,0,0-4.06Zm0,0" transform="translate(0)" style="fill: #2478ff"/>
      <path d="M99.83,29.38H34.62a2.79,2.79,0,0,0-2.79,2.8v26.6a2,2,0,0,0,2,2h8.39a2,2,0,0,0,0-4.06H35.89V48.34H62.72a2,2,0,0,0,2-2V33.44H98.56V40.6H71.46a2,2,0,0,0-2,2V56.75H58.71a2,2,0,1,0,0,4.06h41.88a2,2,0,0,0,2-2V32.18a2.8,2.8,0,0,0-2.8-2.8ZM60.69,36.83H56.47a2,2,0,0,0,0,4.06h4.22v3.39H35.89V40.89h5a2,2,0,0,0,0-4.06h-5V33.44h24.8ZM79.14,56.75H73.49V44.66h5.65Zm9.71,0H83.2V44.66h5.65Zm9.71,0H92.91V44.66h5.65Zm0,0" transform="translate(0)" style="fill: #2478ff"/>
    </g>
  </g>
  <g id="Слой_2" data-name="Слой 2">
    <rect width="150" height="150" style="fill: none"/>
  </g>
</svg>
