<svg xmlns="http://www.w3.org/2000/svg" xmlns:xlink="http://www.w3.org/1999/xlink" viewBox="0 0 150 150">
  <defs>
    <clipPath id="clip-path" transform="translate(0)">
      <rect x="14.47" y="34.3" width="121.07" height="81.41" style="fill: none"/>
    </clipPath>
  </defs>
  <title>microwave</title>
  <g id="Слой_1" data-name="Слой 1">
    <g>
      <g style="clip-path: url(#clip-path)">
        <path d="M125.18,42.47H26.73a4.09,4.09,0,0,0-4.09,4.09v57.52a4.09,4.09,0,0,0,4.09,4.09h93.81a1.72,1.72,0,0,0-.69,1.75,1.8,1.8,0,0,0,1.42,2.76c1.79.06,5.59.6,5.81-2,.14-1.58-.86-2.24-2.12-2.51h.22a4.09,4.09,0,0,0,4.09-4.09V46.56A4.09,4.09,0,0,0,125.18,42.47Z" transform="translate(0)" style="fill: #d8e5ff"/>
        <path d="M28.48,108.62a5,5,0,0,0-3.91.54,1.74,1.74,0,1,0,1.75,3,1.36,1.36,0,0,1,1.24-.19,1.74,1.74,0,1,0,.92-3.35Z" transform="translate(0)" style="fill: #d8e5ff"/>
        <path d="M127.05,34.3H22.69a8.22,8.22,0,0,0-8.22,8.22V101a8.23,8.23,0,0,0,6.26,8v2.46a4,4,0,0,0,4,4H29a4,4,0,0,0,4-4v-2.22h83.76v2.22a4,4,0,0,0,4,4H125a4,4,0,0,0,4-4v-2.46a8.23,8.23,0,0,0,6.26-8V42.52a8.22,8.22,0,0,0-8.22-8.22Zm-98,77.1a.13.13,0,0,1-.13.13H24.77a.13.13,0,0,1-.13-.13v-2.22h4.44Zm-6.39-6.13A4.31,4.31,0,0,1,18.38,101V42.52a4.31,4.31,0,0,1,4.31-4.31h83.62v66.93a.62.62,0,0,0,0,.13ZM125.1,111.4a.13.13,0,0,1-.13.13h-4.18a.13.13,0,0,1-.13-.13v-2.22h4.44ZM131.36,101a4.31,4.31,0,0,1-4.31,4.31H110.22V38.21h16.83a4.31,4.31,0,0,1,4.31,4.31Zm0,0" transform="translate(0)" style="fill: #2478ff"/>
      </g>
      <path d="M99.92,42.65H24.77a2,2,0,0,0-1.95,2V98.87a2,2,0,0,0,1.95,2H99.92a2,2,0,0,0,2-2V44.6a2,2,0,0,0-2-2ZM98,96.92H26.73V46.56H98Zm0,0" transform="translate(0)" style="fill: #2478ff"/>
      <path d="M122.88,46.82H118.7a4,4,0,0,0-4,4V55a4,4,0,0,0,4,4h4.18a4,4,0,0,0,4-4V50.86a4,4,0,0,0-4-4ZM123,55a.13.13,0,0,1-.13.13H118.7a.13.13,0,0,1-.13-.13V50.86a.13.13,0,0,1,.13-.13h4.18a.13.13,0,0,1,.13.13Zm0,0" transform="translate(0)" style="fill: #2478ff"/>
      <path d="M125,63.52h-8.35a2,2,0,1,0,0,3.91H125a2,2,0,0,0,0-3.91Zm0,0" transform="translate(0)" style="fill: #2478ff"/>
      <path d="M125,80.22h-8.35a2,2,0,1,0,0,3.91H125a2,2,0,0,0,0-3.91Zm0,0" transform="translate(0)" style="fill: #2478ff"/>
      <path d="M125,71.87h-8.35a2,2,0,1,0,0,3.91H125a2,2,0,0,0,0-3.91Zm0,0" transform="translate(0)" style="fill: #2478ff"/>
      <path d="M58.3,77.31a10.14,10.14,0,0,0,2.48,6.74,6.26,6.26,0,0,1,1.7,4.39,2,2,0,0,0,3.91,0,10.14,10.14,0,0,0-2.48-6.74,6.52,6.52,0,0,1,0-8.78,10.4,10.4,0,0,0,0-13.48,6.35,6.35,0,0,1-1.7-4.4,2,2,0,1,0-3.91,0,10.09,10.09,0,0,0,2.48,6.74,6.53,6.53,0,0,1,0,8.79,10.13,10.13,0,0,0-2.48,6.74Zm0,0" transform="translate(0)" style="fill: #2478ff"/>
      <path d="M68.86,79.27a2,2,0,0,0,1.58-.8,19.86,19.86,0,0,0,2.87-19.74,2,2,0,0,0-3.61,1.49,15.51,15.51,0,0,1,1.13,6,15.26,15.26,0,0,1-3.51,9.93,1.93,1.93,0,0,0-.41,1.2,2,2,0,0,0,2,2Zm0,0" transform="translate(0)" style="fill: #2478ff"/>
      <path d="M53.17,85.93A2,2,0,0,0,55,83.23a15.48,15.48,0,0,1-1.11-5.92,15.27,15.27,0,0,1,3.52-10,1.3,1.3,0,0,0,.1-.15A2,2,0,0,0,54.8,64.5a1.92,1.92,0,0,0-.66.67,19.84,19.84,0,0,0-2.78,19.54,2,2,0,0,0,1.81,1.22Zm0,0" transform="translate(0)" style="fill: #2478ff"/>
    </g>
  </g>
  <g id="Слой_2" data-name="Слой 2">
    <rect width="150" height="150" style="fill: none"/>
  </g>
</svg>
