<svg xmlns="http://www.w3.org/2000/svg" viewBox="0 0 150 150">
  <title>oven</title>
  <g id="Слой_1" data-name="Слой 1">
    <g>
      <rect x="36.22" y="32.81" width="84.74" height="88.65" rx="15.43" ry="15.43" style="fill: #d8e5ff"/>
      <path d="M119.32,26.25H30.68a4.93,4.93,0,0,0-4.93,4.93V47.59a1.65,1.65,0,0,0,1.65,1.65H29v59.09H27.4A1.65,1.65,0,0,0,25.75,110v9.85a4.93,4.93,0,0,0,4.93,4.93h88.64a4.93,4.93,0,0,0,4.93-4.93V110a1.65,1.65,0,0,0-1.65-1.64H121V49.24h1.64a1.65,1.65,0,0,0,1.65-1.65V31.18a4.93,4.93,0,0,0-4.93-4.93ZM121,119.82a1.63,1.63,0,0,1-1.64,1.64H30.68A1.63,1.63,0,0,1,29,119.82v-8.21H121Zm-3.28-11.49H32.32V49.24h85.36ZM121,46H29V31.18a1.63,1.63,0,0,1,1.64-1.64h88.64A1.63,1.63,0,0,1,121,31.18Zm0,0" transform="translate(0)" style="fill: #2478ff"/>
      <path d="M40.53,105.05h68.94V75.5h3.29V65.65H37.24V75.5h3.29Zm65.66-3.29H80.6L94.22,88.15,91.9,85.83,76,101.76H69.11L82.73,88.15l-2.32-2.32L64.47,101.76H57.62L71.24,88.15l-2.33-2.32L53,101.76H43.81V75.5h62.38ZM40.53,68.93h68.94v3.29H40.53Zm0,0" transform="translate(0)" style="fill: #2478ff"/>
      <path d="M75,32.82a4.93,4.93,0,1,0,4.92,4.92A4.92,4.92,0,0,0,75,32.82Zm0,6.57a1.65,1.65,0,1,1,1.64-1.65A1.64,1.64,0,0,1,75,39.39Zm0,0" transform="translate(0)" style="fill: #2478ff"/>
      <path d="M60.23,32.82a4.93,4.93,0,1,0,4.92,4.92,4.93,4.93,0,0,0-4.92-4.92Zm0,6.57a1.65,1.65,0,1,1,1.64-1.65,1.65,1.65,0,0,1-1.64,1.65Zm0,0" transform="translate(0)" style="fill: #2478ff"/>
      <path d="M45.45,32.82a4.93,4.93,0,1,0,4.93,4.92,4.92,4.92,0,0,0-4.93-4.92Zm0,6.57a1.65,1.65,0,1,1,1.64-1.65,1.65,1.65,0,0,1-1.64,1.65Zm0,0" transform="translate(0)" style="fill: #2478ff"/>
      <path d="M104.55,32.82a4.93,4.93,0,1,0,4.92,4.92,4.93,4.93,0,0,0-4.92-4.92Zm0,6.57a1.65,1.65,0,1,1,1.64-1.65,1.64,1.64,0,0,1-1.64,1.65Zm0,0" transform="translate(0)" style="fill: #2478ff"/>
      <path d="M89.77,32.82a4.93,4.93,0,1,0,4.93,4.92,4.92,4.92,0,0,0-4.93-4.92Zm0,6.57a1.65,1.65,0,1,1,1.65-1.65,1.65,1.65,0,0,1-1.65,1.65Zm0,0" transform="translate(0)" style="fill: #2478ff"/>
      <path d="M40.53,59.08h68.94v3.29h3.29V52.52h-3.29V55.8H40.53V52.52H37.24v9.85h3.29Zm0,0" transform="translate(0)" style="fill: #2478ff"/>
    </g>
  </g>
  <g id="Слой_2" data-name="Слой 2">
    <rect width="150" height="150" style="fill: none"/>
  </g>
</svg>
