<svg xmlns="http://www.w3.org/2000/svg" viewBox="0 0 150 150">
  <title>range</title>
  <g id="Слой_1" data-name="Слой 1">
    <g>
      <rect x="34.12" y="43.85" width="88.07" height="68.34" rx="4.76" ry="4.76" style="fill: #d8e5ff"/>
      <path d="M96.74,61.53a1.93,1.93,0,1,0,1.92,1.93,1.94,1.94,0,0,0-1.92-1.93Zm0,0" transform="translate(0)" style="fill: #2478ff"/>
      <path d="M53.84,61.53a1.93,1.93,0,1,0,1.92,1.93,1.93,1.93,0,0,0-1.92-1.93Zm0,0" transform="translate(0)" style="fill: #2478ff"/>
      <path d="M118.47,36.53H31.53a5.78,5.78,0,0,0-5.78,5.77v65.4a5.78,5.78,0,0,0,5.78,5.77h86.94a5.78,5.78,0,0,0,5.78-5.77V42.3a5.78,5.78,0,0,0-5.78-5.77Zm1.93,71.17a1.93,1.93,0,0,1-1.93,1.93H31.53a1.93,1.93,0,0,1-1.93-1.93V90.39h90.8Zm0-21.16H29.6V42.3a1.93,1.93,0,0,1,1.93-1.93h86.94a1.93,1.93,0,0,1,1.93,1.93Zm0,0" transform="translate(0)" style="fill: #2478ff"/>
      <path d="M108.89,72.89a15.36,15.36,0,0,0,0-18.87l2.81-2.8A1.92,1.92,0,0,0,109,48.5l-2.81,2.8a15.4,15.4,0,0,0-18.87,0l-2.8-2.8a1.93,1.93,0,1,0-2.73,2.72L84.58,54a15.4,15.4,0,0,0,0,18.87L81.77,75.7a1.93,1.93,0,1,0,2.73,2.72l2.8-2.81a15.36,15.36,0,0,0,18.87,0L109,78.42a1.92,1.92,0,0,0,2.72-2.72Zm-2.75-2.75-2.6-2.6a1.92,1.92,0,0,0-2.72,2.72l2.6,2.6a11.51,11.51,0,0,1-13.37,0l2.61-2.6a1.92,1.92,0,0,0-2.72-2.72l-2.61,2.6a11.56,11.56,0,0,1,0-13.37l2.61,2.61a1.92,1.92,0,0,0,2.72-2.72l-2.61-2.61a11.56,11.56,0,0,1,13.37,0l-2.6,2.61a1.92,1.92,0,0,0,2.72,2.72l2.6-2.61a11.51,11.51,0,0,1,0,13.37Zm0,0" transform="translate(0)" style="fill: #2478ff"/>
      <path d="M66,72.89A15.36,15.36,0,0,0,66,54l2.81-2.8a1.92,1.92,0,0,0-2.72-2.72l-2.81,2.8a15.4,15.4,0,0,0-18.87,0l-2.8-2.8a1.92,1.92,0,0,0-2.72,2.72l2.8,2.8a15.4,15.4,0,0,0,0,18.87l-2.8,2.81a1.92,1.92,0,0,0,2.72,2.72l2.8-2.81a15.36,15.36,0,0,0,18.87,0l2.81,2.81A1.92,1.92,0,0,0,68.8,75.7Zm-2.74-2.75-2.61-2.6a1.92,1.92,0,0,0-2.72,2.72l2.61,2.61a11.55,11.55,0,0,1-13.38,0l2.61-2.6A1.92,1.92,0,0,0,47,67.54l-2.61,2.6a11.56,11.56,0,0,1,0-13.37L47,59.38a1.92,1.92,0,0,0,2.72-2.72l-2.61-2.61a11.57,11.57,0,0,1,13.38,0l-2.61,2.61a1.92,1.92,0,0,0,2.72,2.72l2.61-2.61a11.56,11.56,0,0,1,0,13.37Zm0,0" transform="translate(0)" style="fill: #2478ff"/>
      <path d="M106.36,94.24a5.77,5.77,0,1,0,5.77,5.77,5.78,5.78,0,0,0-5.77-5.77Zm0,7.69a1.93,1.93,0,1,1,1.92-1.92,1.92,1.92,0,0,1-1.92,1.92Zm0,0" transform="translate(0)" style="fill: #2478ff"/>
      <path d="M75,94.24A5.77,5.77,0,1,0,80.77,100,5.78,5.78,0,0,0,75,94.24Zm0,7.69A1.93,1.93,0,1,1,76.92,100,1.92,1.92,0,0,1,75,101.93Zm0,0" transform="translate(0)" style="fill: #2478ff"/>
      <path d="M43.64,94.24A5.77,5.77,0,1,0,49.42,100a5.78,5.78,0,0,0-5.78-5.77Zm0,7.69A1.93,1.93,0,1,1,45.57,100a1.92,1.92,0,0,1-1.93,1.92Zm0,0" transform="translate(0)" style="fill: #2478ff"/>
      <path d="M63.46,98.08H55.19a1.93,1.93,0,1,0,0,3.85h8.27a1.93,1.93,0,0,0,0-3.85Zm0,0" transform="translate(0)" style="fill: #2478ff"/>
      <path d="M94.81,98.08H86.54a1.93,1.93,0,0,0,0,3.85h8.27a1.93,1.93,0,1,0,0-3.85Zm0,0" transform="translate(0)" style="fill: #2478ff"/>
    </g>
  </g>
  <g id="Слой_2" data-name="Слой 2">
    <rect width="150" height="150" style="fill: none"/>
  </g>
</svg>
