<svg xmlns="http://www.w3.org/2000/svg" viewBox="0 0 150 150">
  <title>refrigerator</title>
  <g id="Слой_1" data-name="Слой 1">
    <g>
      <path d="M111.81,16.92H43.5a3.93,3.93,0,0,0-3.93,3.93V128.51a3.91,3.91,0,0,0,1.8,3.3,1.35,1.35,0,0,0-.41,1.5,1.57,1.57,0,0,0-.39,1.89c.68,1.93,3.49,1.44,5,1.44l7.1,0c1.59,0,4.23.5,5.15-1.22a2.46,2.46,0,0,0-.63-3h36a1.38,1.38,0,0,0-.1,1.68,1.29,1.29,0,0,0-.2,1.92c1,1.06,2.5.86,3.82.86l5.6,0c2.38,0,5.87.56,7.62-1.51.71-.85,1-2.22,0-3h1.88a3.93,3.93,0,0,0,3.93-3.93V20.85A3.93,3.93,0,0,0,111.81,16.92ZM55,134.12H51.26v0a22.51,22.51,0,0,1,3.58,0,.7.7,0,0,1,.14,0Z" transform="translate(0)" style="fill: #d8e5ff"/>
      <path d="M102,25.28H98.73A3.7,3.7,0,0,0,95,29V41.15a3.69,3.69,0,0,0,3.69,3.69H102a3.69,3.69,0,0,0,3.69-3.69V29a3.7,3.7,0,0,0-3.69-3.7ZM101.91,41h-3V29.1h3Zm0,0" transform="translate(0)" style="fill: #2478ff"/>
      <path d="M98.73,65.88A3.7,3.7,0,0,0,95,69.57V81.75a3.7,3.7,0,0,0,3.69,3.69H102a3.69,3.69,0,0,0,3.69-3.69V69.57A3.69,3.69,0,0,0,102,65.88Zm3.18,15.74h-3V69.7h3Zm0,0" transform="translate(0)" style="fill: #2478ff"/>
      <path d="M110.81,9.78H39.18a7,7,0,0,0-7,7V125.44A7,7,0,0,0,38,132.33v4a3.91,3.91,0,0,0,3.9,3.9H57.09a3.9,3.9,0,0,0,3.89-3.9v-3.88H89.7v3.88a3.9,3.9,0,0,0,3.89,3.9h15.23a3.9,3.9,0,0,0,3.89-3.9v-4.14a7,7,0,0,0,5.11-6.74V77.51a1.91,1.91,0,1,0-3.82,0V99.38c-11.73,14.09-27,16.81-55.83,10.06-8.23-1.93-17.67.56-22.17,2V58.65h78v10a1.91,1.91,0,0,0,3.82,0V16.78a7,7,0,0,0-7-7ZM57.16,136.32a.09.09,0,0,1-.07.08H41.87a.09.09,0,0,1-.08-.08v-3.88H57.16v3.88Zm51.66.08H93.59a.1.1,0,0,1-.07-.08v-3.88h15.37v3.88a.09.09,0,0,1-.07.08ZM57.3,113.16c10.34,2.42,18.89,3.6,26.19,3.6a55,55,0,0,0,9.29-.74,37.91,37.91,0,0,0,21.22-11v20.39a3.19,3.19,0,0,1-3.19,3.18H39.18A3.19,3.19,0,0,1,36,125.44v-9.92c3.36-1.19,13.21-4.25,21.3-2.36ZM36,54.83v-38a3.19,3.19,0,0,1,3.18-3.18h71.63A3.19,3.19,0,0,1,114,16.78V54.83Zm0,0" transform="translate(0)" style="fill: #2478ff"/>
    </g>
  </g>
  <g id="Слой_2" data-name="Слой 2">
    <rect width="150" height="150" style="fill: none"/>
  </g>
</svg>
