<svg xmlns="http://www.w3.org/2000/svg" viewBox="0 0 150 150">
  <title>stove</title>
  <g id="Слой_1" data-name="Слой 1">
    <g>
      <path d="M119.09,27.82H36.6a3.28,3.28,0,0,0-3.28,3.28v87.59A3.28,3.28,0,0,0,36.6,122h1.61l-1.48.06a1.09,1.09,0,0,0-.49,2,2.48,2.48,0,0,0-.33.51,1.08,1.08,0,0,0,.92,1.6c1.87,0,3.76.12,5.63.09,1.22,0,2.49-.53,2.48-2a2.55,2.55,0,0,0-2.6-2.33h64.72a1.08,1.08,0,0,0-.63,1.92,2.52,2.52,0,0,0-.22.47c-1,3.07,3.12,3.1,5.05,3a8.21,8.21,0,0,0,3.66-1.13h.22a1.07,1.07,0,0,0,1-1.29,2.41,2.41,0,0,0,.23-1.38c-.15-1.27-1.18-1.52-2.23-1.56h4.94a3.27,3.27,0,0,0,3.27-3.28V31.1A3.27,3.27,0,0,0,119.09,27.82ZM42.76,124.19c-.26-.29-1.89-.13-2.54-.1v0C41,124,42.5,123.89,42.76,124.19Z" transform="translate(0)" style="fill: #d8e5ff"/>
      <path d="M112.54,53.8a1.59,1.59,0,0,0,0-3.18H87.19a1.59,1.59,0,0,0,0,3.18Zm0,0" transform="translate(0)" style="fill: #2478ff"/>
      <path d="M68.07,113.31a1.6,1.6,0,1,0,0,3.19H81.93a1.6,1.6,0,1,0,0-3.19Zm0,0" transform="translate(0)" style="fill: #2478ff"/>
      <path d="M35.87,66.63V97.36a4.37,4.37,0,0,0,4.37,4.37h69.52a4.37,4.37,0,0,0,4.37-4.37V66.63a4.38,4.38,0,0,0-4.37-4.38H40.24a4.38,4.38,0,0,0-4.37,4.38Zm75.07,0V97.36a1.18,1.18,0,0,1-1.18,1.18H40.24a1.18,1.18,0,0,1-1.18-1.18V66.63a1.18,1.18,0,0,1,1.18-1.19h69.52a1.18,1.18,0,0,1,1.18,1.19Zm0,0" transform="translate(0)" style="fill: #2478ff"/>
      <path d="M117.92,20.6H32.08A6.41,6.41,0,0,0,25.67,27V49a1.6,1.6,0,1,0,3.19,0V43.11h92.28v64H107.81a1.59,1.59,0,1,0,0,3.18h13.33v6a3.22,3.22,0,0,1-3.22,3.22H32.08a3.22,3.22,0,0,1-3.22-3.22v-6h72.57a1.59,1.59,0,1,0,0-3.18H28.86V55.4a1.6,1.6,0,1,0-3.19,0v60.88a6.42,6.42,0,0,0,6.41,6.41h.86V126a3.41,3.41,0,0,0,3.41,3.4h6.86a3.41,3.41,0,0,0,3.41-3.4v-3.31h56.76V126a3.41,3.41,0,0,0,3.41,3.4h6.86a3.41,3.41,0,0,0,3.41-3.4v-3.31h.86a6.42,6.42,0,0,0,6.41-6.41V27a6.41,6.41,0,0,0-6.41-6.4ZM43.43,126a.22.22,0,0,1-.22.22H36.35a.22.22,0,0,1-.22-.22v-3.31h7.3V126Zm70.44,0a.22.22,0,0,1-.22.22h-6.86a.22.22,0,0,1-.22-.22v-3.31h7.3Zm-62-89.06v3h-9v-3Zm54.69,0v3h-9v-3Zm3.19,3v-3h1.14a2.48,2.48,0,0,0,2.48-2.48V32.3a1.59,1.59,0,1,0-3.18,0v1.46H94.55V32.3a1.6,1.6,0,1,0-3.19,0v2.16a2.48,2.48,0,0,0,2.48,2.48h.5v3H55v-3h1.14a2.48,2.48,0,0,0,2.48-2.48V32.3a1.6,1.6,0,1,0-3.19,0v1.46H39.86V32.3a1.6,1.6,0,1,0-3.19,0v2.16a2.48,2.48,0,0,0,2.48,2.48h.5v3H28.86V27a3.22,3.22,0,0,1,3.22-3.22h85.84A3.22,3.22,0,0,1,121.14,27V39.92Zm0,0" transform="translate(0)" style="fill: #2478ff"/>
      <path d="M41,46.77a5.44,5.44,0,1,0,5.44,5.44A5.45,5.45,0,0,0,41,46.77Zm0,7.7a2.26,2.26,0,1,1,2.26-2.26A2.26,2.26,0,0,1,41,54.47Zm0,0" transform="translate(0)" style="fill: #2478ff"/>
      <path d="M61.63,52.21a5.45,5.45,0,1,0-5.45,5.44,5.45,5.45,0,0,0,5.45-5.44Zm-7.7,0a2.26,2.26,0,1,1,2.25,2.26,2.26,2.26,0,0,1-2.25-2.26Zm0,0" transform="translate(0)" style="fill: #2478ff"/>
      <path d="M76.79,52.21a5.45,5.45,0,1,0-5.44,5.44,5.45,5.45,0,0,0,5.44-5.44Zm-7.7,0a2.26,2.26,0,1,1,2.26,2.26,2.26,2.26,0,0,1-2.26-2.26Zm0,0" transform="translate(0)" style="fill: #2478ff"/>
    </g>
  </g>
  <g id="Слой_2" data-name="Слой 2">
    <rect width="150" height="150" style="fill: none"/>
  </g>
</svg>
