<svg xmlns="http://www.w3.org/2000/svg" viewBox="0 0 150 150">
  <title>washer</title>
  <g id="Слой_1" data-name="Слой 1">
    <g>
      <rect x="36.09" y="24.39" width="86.98" height="104.51" rx="15.43" ry="15.43" style="fill: #d8e5ff"/>
      <path d="M115.27,17.29H34.73A8.72,8.72,0,0,0,26,26V130.53a2.19,2.19,0,0,0,2.18,2.18h93.6a2.19,2.19,0,0,0,2.18-2.18V26a8.72,8.72,0,0,0-8.71-8.71ZM30.38,128.35V39.06h74.05a2.18,2.18,0,1,0,0-4.35H30.38V26a4.35,4.35,0,0,1,4.35-4.35h80.54A4.35,4.35,0,0,1,119.62,26v8.71h-6.46a2.18,2.18,0,0,0,0,4.35h6.46v89.29Zm0,0" transform="translate(0)" style="fill: #2478ff"/>
      <path d="M75,47.77a36,36,0,1,0,36,36,36.05,36.05,0,0,0-36-36Zm0,67.66a31.66,31.66,0,1,1,29.34-43.54h-2a8.73,8.73,0,0,0-2.67.42,27.21,27.21,0,1,0,0,22.93,8.73,8.73,0,0,0,2.67.42h2A31.72,31.72,0,0,1,75,115.43ZM99.92,90.56l-.13-.09A4.34,4.34,0,0,1,98,87V80.6a4.35,4.35,0,0,1,1.8-3.52l.13-.09a4.31,4.31,0,0,1,2.43-.74h3.4a31.91,31.91,0,0,1,0,15h-3.4a4.31,4.31,0,0,1-2.43-.74Zm-4,2.31a22.86,22.86,0,1,1,0-18.19,8.67,8.67,0,0,0-2.33,5.92V87A8.69,8.69,0,0,0,96,92.87Zm0,0" transform="translate(0)" style="fill: #2478ff"/>
      <path d="M110.92,28.2a4.33,4.33,0,1,0-4.33,4.33,4.34,4.34,0,0,0,4.33-4.33Zm0,0" transform="translate(0)" style="fill: #2478ff"/>
      <path d="M93.62,23.87A4.33,4.33,0,1,0,98,28.2a4.33,4.33,0,0,0-4.33-4.33Zm0,0" transform="translate(0)" style="fill: #2478ff"/>
      <path d="M58.76,26H39.17a2.18,2.18,0,0,0,0,4.35H58.76a2.18,2.18,0,1,0,0-4.35Zm0,0" transform="translate(0)" style="fill: #2478ff"/>
      <path d="M71.64,26H67.45a2.18,2.18,0,1,0,0,4.35h4.19a2.18,2.18,0,1,0,0-4.35Zm0,0" transform="translate(0)" style="fill: #2478ff"/>
      <path d="M75,65.18a18.61,18.61,0,0,0-18.59,18.6,2.18,2.18,0,0,0,4.35,0A14.25,14.25,0,0,1,75,69.54a2.18,2.18,0,1,0,0-4.36Zm0,0" transform="translate(0)" style="fill: #2478ff"/>
    </g>
  </g>
  <g id="Слой_2" data-name="Слой 2">
    <rect width="150" height="150" style="fill: none"/>
  </g>
</svg>
