<svg xmlns="http://www.w3.org/2000/svg" viewBox="0 0 150 150">
  <title>wine-cooler</title>
  <g id="Слой_1" data-name="Слой 1">
    <rect width="150" height="150" style="fill: #fff" fill-opacity="0"/>
  </g>
  <g id="Слой_2" data-name="Слой 2">
    <rect x="43.2" y="21.98" width="73.09" height="107.04" rx="4.76" ry="4.76" style="fill: #d8e5ff"/>
    <g>
      <path d="M108.45,110.5a1.57,1.57,0,0,0,1.57-1.57V30.66a2.41,2.41,0,0,0-2.41-2.41H42.39A2.41,2.41,0,0,0,40,30.66v89.68a2.41,2.41,0,0,0,2.41,2.41h65.22a2.41,2.41,0,0,0,2.41-2.41V115.6a1.57,1.57,0,0,0-3.14,0v4H102.7v-9.93a2.61,2.61,0,0,0-2.61-2.61H93.81a2.61,2.61,0,0,0-2.61,2.61v9.93H88.07v-9.93a2.62,2.62,0,0,0-2.62-2.61H79.18a2.61,2.61,0,0,0-2.61,2.61v9.93H73.43v-9.93a2.61,2.61,0,0,0-2.61-2.61H64.55a2.62,2.62,0,0,0-2.62,2.61v9.93H58.8v-9.93a2.61,2.61,0,0,0-2.61-2.61H49.91a2.61,2.61,0,0,0-2.61,2.61v9.93H43.12V95.88h5.12a1.57,1.57,0,1,0,0-3.13H43.12V89.61h63.76v3.14H54.93a1.57,1.57,0,1,0,0,3.13h52v13.05a1.57,1.57,0,0,0,1.57,1.57Zm-8.89-.3v2.3H94.34v-2.3Zm-5.22,5.44h5.22v4H94.34Zm-9.41-5.44v2.3H79.7v-2.3Zm-5.23,5.44h5.23v4H79.7Zm-9.4-5.44v2.3H65.07v-2.3Zm-5.23,5.44H70.3v4H65.07Zm-9.41-5.44v2.3H50.44v-2.3Zm-5.22,5.44h5.22v4H50.44ZM43.12,58.25h63.76v3.14H43.12ZM55.66,48H50.44v-2.3h5.22Zm-5.22,3.14h5.22v4H50.44ZM70.3,48H65.07v-2.3H70.3Zm-5.23,3.14H70.3v4H65.07ZM84.93,48H79.7v-2.3h5.23ZM79.7,51.15h5.23v4H79.7ZM99.56,48H94.34v-2.3h5.22Zm-5.22,3.14h5.22v4H94.34Zm12.54-19.76V55.12H102.7V45.19a2.62,2.62,0,0,0-2.61-2.62H93.81a2.62,2.62,0,0,0-2.61,2.62v9.93H88.07V45.19a2.63,2.63,0,0,0-2.62-2.62H79.18a2.62,2.62,0,0,0-2.61,2.62v9.93H73.43V45.19a2.62,2.62,0,0,0-2.61-2.62H64.55a2.63,2.63,0,0,0-2.62,2.62v9.93H58.8V45.19a2.62,2.62,0,0,0-2.61-2.62H49.91a2.62,2.62,0,0,0-2.61,2.62v9.93H43.12V31.39Zm-51.22,48H50.44v-2.3h5.22Zm-5.22,7.11v-4h5.22v4ZM70.3,79.37H65.07v-2.3H70.3Zm-5.23,7.11v-4H70.3v4Zm19.86-7.11H79.7v-2.3h5.23ZM79.7,86.48v-4h5.23v4Zm19.86-7.11H94.34v-2.3h5.22Zm-5.22,7.11v-4h5.22v4Zm8.36,0V76.55a2.61,2.61,0,0,0-2.61-2.62H93.81a2.61,2.61,0,0,0-2.61,2.62v9.93H88.07V76.55a2.62,2.62,0,0,0-2.62-2.62H79.18a2.61,2.61,0,0,0-2.61,2.62v9.93H73.43V76.55a2.61,2.61,0,0,0-2.61-2.62H64.55a2.62,2.62,0,0,0-2.62,2.62v9.93H58.8V76.55a2.61,2.61,0,0,0-2.61-2.62H49.91a2.61,2.61,0,0,0-2.61,2.62v9.93H43.12v-22h63.76v22Zm0,0" style="fill: #2478ff"/>
      <path d="M113.88,22H36.12a2.41,2.41,0,0,0-2.41,2.41v11a1.57,1.57,0,0,0,3.14,0V25.12h76.3V125.88H36.85V42a1.57,1.57,0,1,0-3.14,0v84.63A2.41,2.41,0,0,0,36.12,129h77.76a2.41,2.41,0,0,0,2.41-2.41V24.39A2.41,2.41,0,0,0,113.88,22Zm0,0" style="fill: #2478ff"/>
    </g>
  </g>
</svg>
